<svg xmlns="http://www.w3.org/2000/svg" xmlns:xlink="http://www.w3.org/1999/xlink" width="1080" zoomAndPan="magnify" viewBox="0 0 810 809.999993" height="1080" preserveAspectRatio="xMidYMid meet" version="1.0"><defs><filter x="0%" y="0%" width="100%" height="100%" id="e8b7298bec"><feColorMatrix values="0 0 0 0 1 0 0 0 0 1 0 0 0 0 1 0 0 0 1 0" color-interpolation-filters="sRGB"/></filter><g/><linearGradient x1="174.591001" gradientTransform="matrix(0.7502, 0, 0, 0.750182, 59.023551, 285.679489)" y1="149" x2="1001.034328" gradientUnits="userSpaceOnUse" y2="149" id="d3494ede35"><stop stop-opacity="1" stop-color="rgb(100%, 19.219971%, 19.219971%)" offset="0"/><stop stop-opacity="1" stop-color="rgb(100%, 19.219971%, 19.219971%)" offset="0.5"/><stop stop-opacity="1" stop-color="rgb(100%, 19.219971%, 19.219971%)" offset="0.515625"/><stop stop-opacity="1" stop-color="rgb(100%, 20.196533%, 19.503784%)" offset="0.519531"/><stop stop-opacity="1" stop-color="rgb(100%, 21.173096%, 19.789124%)" offset="0.523438"/><stop stop-opacity="1" stop-color="rgb(100%, 22.184753%, 20.083618%)" offset="0.527344"/><stop stop-opacity="1" stop-color="rgb(100%, 23.197937%, 20.379639%)" offset="0.53125"/><stop stop-opacity="1" stop-color="rgb(100%, 24.209595%, 20.674133%)" offset="0.535156"/><stop stop-opacity="1" stop-color="rgb(100%, 25.222778%, 20.970154%)" offset="0.539062"/><stop stop-opacity="1" stop-color="rgb(100%, 26.234436%, 21.264648%)" offset="0.542969"/><stop stop-opacity="1" stop-color="rgb(100%, 27.24762%, 21.560669%)" offset="0.546875"/><stop stop-opacity="1" stop-color="rgb(100%, 28.259277%, 21.856689%)" offset="0.550781"/><stop stop-opacity="1" stop-color="rgb(100%, 29.272461%, 22.15271%)" offset="0.554688"/><stop stop-opacity="1" stop-color="rgb(100%, 30.284119%, 22.447205%)" offset="0.558594"/><stop stop-opacity="1" stop-color="rgb(100%, 31.297302%, 22.743225%)" offset="0.5625"/><stop stop-opacity="1" stop-color="rgb(100%, 32.30896%, 23.03772%)" offset="0.566406"/><stop stop-opacity="1" stop-color="rgb(100%, 33.322144%, 23.33374%)" offset="0.570312"/><stop stop-opacity="1" stop-color="rgb(100%, 34.333801%, 23.628235%)" offset="0.574219"/><stop stop-opacity="1" stop-color="rgb(100%, 35.346985%, 23.924255%)" offset="0.578125"/><stop stop-opacity="1" stop-color="rgb(100%, 36.358643%, 24.21875%)" offset="0.582031"/><stop stop-opacity="1" stop-color="rgb(100%, 37.371826%, 24.514771%)" offset="0.585938"/><stop stop-opacity="1" stop-color="rgb(100%, 38.38501%, 24.809265%)" offset="0.589844"/><stop stop-opacity="1" stop-color="rgb(100%, 39.398193%, 25.105286%)" offset="0.59375"/><stop stop-opacity="1" stop-color="rgb(100%, 40.409851%, 25.39978%)" offset="0.597656"/><stop stop-opacity="1" stop-color="rgb(100%, 41.423035%, 25.695801%)" offset="0.601562"/><stop stop-opacity="1" stop-color="rgb(100%, 42.434692%, 25.990295%)" offset="0.605469"/><stop stop-opacity="1" stop-color="rgb(100%, 43.447876%, 26.286316%)" offset="0.609375"/><stop stop-opacity="1" stop-color="rgb(100%, 44.459534%, 26.580811%)" offset="0.613281"/><stop stop-opacity="1" stop-color="rgb(100%, 45.472717%, 26.876831%)" offset="0.617187"/><stop stop-opacity="1" stop-color="rgb(100%, 46.484375%, 27.172852%)" offset="0.621094"/><stop stop-opacity="1" stop-color="rgb(100%, 47.497559%, 27.468872%)" offset="0.625"/><stop stop-opacity="1" stop-color="rgb(100%, 48.509216%, 27.763367%)" offset="0.628906"/><stop stop-opacity="1" stop-color="rgb(100%, 49.5224%, 28.059387%)" offset="0.632812"/><stop stop-opacity="1" stop-color="rgb(100%, 50.534058%, 28.353882%)" offset="0.636719"/><stop stop-opacity="1" stop-color="rgb(100%, 51.547241%, 28.649902%)" offset="0.640625"/><stop stop-opacity="1" stop-color="rgb(100%, 52.558899%, 28.944397%)" offset="0.644531"/><stop stop-opacity="1" stop-color="rgb(100%, 53.572083%, 29.240417%)" offset="0.648438"/><stop stop-opacity="1" stop-color="rgb(100%, 54.58374%, 29.534912%)" offset="0.652344"/><stop stop-opacity="1" stop-color="rgb(100%, 55.596924%, 29.830933%)" offset="0.65625"/><stop stop-opacity="1" stop-color="rgb(100%, 56.227112%, 30.014038%)" offset="0.660156"/><stop stop-opacity="1" stop-color="rgb(100%, 56.858826%, 30.198669%)" offset="0.664062"/><stop stop-opacity="1" stop-color="rgb(100%, 56.858826%, 30.198669%)" offset="0.671875"/><stop stop-opacity="1" stop-color="rgb(100%, 56.858826%, 30.198669%)" offset="0.6875"/><stop stop-opacity="1" stop-color="rgb(100%, 56.858826%, 30.198669%)" offset="0.75"/><stop stop-opacity="1" stop-color="rgb(100%, 56.858826%, 30.198669%)" offset="1"/></linearGradient><clipPath id="eb19232ee2"><rect x="0" width="810" y="0" height="810"/></clipPath><clipPath id="6431ea63e6"><rect x="0" width="810" y="0" height="810"/></clipPath><clipPath id="455580be23"><rect x="0" width="810" y="0" height="810"/></clipPath><mask id="c49f88e02f"><g filter="url(#e8b7298bec)"><g transform="matrix(1, 0, 0, 1, 0, 0.000000000000039746)"><g clip-path="url(#455580be23)"><g transform="matrix(1, 0, 0, 1, 0, 0.000000000000039746)"><g clip-path="url(#6431ea63e6)"><g fill="#000000" fill-opacity="1"><g transform="translate(509.466629, 453.331521)"><g><path d="M 4.796875 -41.578125 C 4.796875 -47.648438 5.941406 -53.320312 8.234375 -58.59375 C 10.523438 -63.875 13.664062 -68.457031 17.65625 -72.34375 C 21.65625 -76.238281 26.375 -79.304688 31.8125 -81.546875 C 37.25 -83.785156 43.0625 -84.90625 49.25 -84.90625 C 55.425781 -84.90625 61.234375 -83.785156 66.671875 -81.546875 C 72.109375 -79.304688 76.828125 -76.238281 80.828125 -72.34375 C 84.828125 -68.457031 87.972656 -63.875 90.265625 -58.59375 C 92.554688 -53.320312 93.703125 -47.648438 93.703125 -41.578125 C 93.703125 -35.492188 92.554688 -29.8125 90.265625 -24.53125 C 87.972656 -19.257812 84.828125 -14.703125 80.828125 -10.859375 C 76.828125 -7.023438 72.109375 -3.988281 66.671875 -1.75 C 61.234375 0.476562 55.425781 1.59375 49.25 1.59375 C 43.0625 1.59375 37.25 0.476562 31.8125 -1.75 C 26.375 -3.988281 21.65625 -7.023438 17.65625 -10.859375 C 13.664062 -14.703125 10.523438 -19.257812 8.234375 -24.53125 C 5.941406 -29.8125 4.796875 -35.492188 4.796875 -41.578125 Z M 49.25 -17.421875 C 55.644531 -17.421875 61.078125 -19.765625 65.546875 -24.453125 C 70.023438 -29.148438 72.265625 -34.859375 72.265625 -41.578125 C 72.265625 -48.390625 70.023438 -54.140625 65.546875 -58.828125 C 61.078125 -63.523438 55.644531 -65.875 49.25 -65.875 C 42.851562 -65.875 37.414062 -63.523438 32.9375 -58.828125 C 28.457031 -54.140625 26.21875 -48.390625 26.21875 -41.578125 C 26.21875 -34.859375 28.457031 -29.148438 32.9375 -24.453125 C 37.414062 -19.765625 42.851562 -17.421875 49.25 -17.421875 Z M 49.25 -17.421875 "/></g></g></g></g></g></g></g></g></mask><clipPath id="30d2ac5bd1"><rect x="0" width="810" y="0" height="810"/></clipPath><clipPath id="7004d5a288"><rect x="0" width="810" y="0" height="810"/></clipPath><clipPath id="e9280055ba"><path d="M 75.347656 420.027344 L 748.847656 420.027344 L 748.847656 565.527344 L 75.347656 565.527344 Z M 75.347656 420.027344 " clip-rule="nonzero"/></clipPath><clipPath id="073f32ae16"><path d="M 0.347656 0.0273438 L 673.847656 0.0273438 L 673.847656 145.527344 L 0.347656 145.527344 Z M 0.347656 0.0273438 " clip-rule="nonzero"/></clipPath><clipPath id="aeed9a74ef"><path d="M 117.347656 0.777344 L 389.59375 0.777344 L 389.59375 144.777344 L 117.347656 144.777344 Z M 117.347656 0.777344 " clip-rule="nonzero"/></clipPath><linearGradient x1="84.004997" gradientTransform="matrix(0.750915, 0, 0, 0.750039, 54.26818, 54.025573)" y1="25" x2="446.558007" gradientUnits="userSpaceOnUse" y2="25" id="e22790ecf2"><stop stop-opacity="1" stop-color="rgb(100%, 19.219971%, 19.219971%)" offset="0"/><stop stop-opacity="1" stop-color="rgb(100%, 19.219971%, 19.219971%)" offset="0.125"/><stop stop-opacity="1" stop-color="rgb(100%, 19.219971%, 19.219971%)" offset="0.1875"/><stop stop-opacity="1" stop-color="rgb(100%, 19.361877%, 19.261169%)" offset="0.203125"/><stop stop-opacity="1" stop-color="rgb(100%, 19.746399%, 19.372559%)" offset="0.207031"/><stop stop-opacity="1" stop-color="rgb(100%, 19.99054%, 19.444275%)" offset="0.210937"/><stop stop-opacity="1" stop-color="rgb(100%, 20.23468%, 19.514465%)" offset="0.214844"/><stop stop-opacity="1" stop-color="rgb(100%, 20.478821%, 19.586182%)" offset="0.21875"/><stop stop-opacity="1" stop-color="rgb(100%, 20.722961%, 19.657898%)" offset="0.222656"/><stop stop-opacity="1" stop-color="rgb(100%, 20.967102%, 19.729614%)" offset="0.226562"/><stop stop-opacity="1" stop-color="rgb(100%, 21.209717%, 19.799805%)" offset="0.230469"/><stop stop-opacity="1" stop-color="rgb(100%, 21.453857%, 19.871521%)" offset="0.234375"/><stop stop-opacity="1" stop-color="rgb(100%, 21.697998%, 19.941711%)" offset="0.238281"/><stop stop-opacity="1" stop-color="rgb(100%, 21.942139%, 20.013428%)" offset="0.242187"/><stop stop-opacity="1" stop-color="rgb(100%, 22.186279%, 20.083618%)" offset="0.246094"/><stop stop-opacity="1" stop-color="rgb(100%, 22.43042%, 20.155334%)" offset="0.25"/><stop stop-opacity="1" stop-color="rgb(100%, 22.673035%, 20.227051%)" offset="0.253906"/><stop stop-opacity="1" stop-color="rgb(100%, 22.917175%, 20.298767%)" offset="0.257812"/><stop stop-opacity="1" stop-color="rgb(100%, 23.161316%, 20.368958%)" offset="0.261719"/><stop stop-opacity="1" stop-color="rgb(100%, 23.405457%, 20.440674%)" offset="0.265625"/><stop stop-opacity="1" stop-color="rgb(100%, 23.649597%, 20.510864%)" offset="0.269531"/><stop stop-opacity="1" stop-color="rgb(100%, 23.893738%, 20.582581%)" offset="0.273437"/><stop stop-opacity="1" stop-color="rgb(100%, 24.136353%, 20.652771%)" offset="0.277344"/><stop stop-opacity="1" stop-color="rgb(100%, 24.380493%, 20.724487%)" offset="0.28125"/><stop stop-opacity="1" stop-color="rgb(100%, 24.624634%, 20.796204%)" offset="0.285156"/><stop stop-opacity="1" stop-color="rgb(100%, 24.868774%, 20.86792%)" offset="0.289062"/><stop stop-opacity="1" stop-color="rgb(100%, 25.112915%, 20.93811%)" offset="0.292969"/><stop stop-opacity="1" stop-color="rgb(100%, 25.357056%, 21.009827%)" offset="0.296875"/><stop stop-opacity="1" stop-color="rgb(100%, 25.59967%, 21.080017%)" offset="0.300781"/><stop stop-opacity="1" stop-color="rgb(100%, 25.843811%, 21.151733%)" offset="0.304688"/><stop stop-opacity="1" stop-color="rgb(100%, 26.087952%, 21.221924%)" offset="0.308594"/><stop stop-opacity="1" stop-color="rgb(100%, 26.332092%, 21.29364%)" offset="0.3125"/><stop stop-opacity="1" stop-color="rgb(100%, 26.576233%, 21.365356%)" offset="0.316406"/><stop stop-opacity="1" stop-color="rgb(100%, 26.820374%, 21.437073%)" offset="0.320312"/><stop stop-opacity="1" stop-color="rgb(100%, 27.062988%, 21.507263%)" offset="0.324219"/><stop stop-opacity="1" stop-color="rgb(100%, 27.307129%, 21.578979%)" offset="0.328125"/><stop stop-opacity="1" stop-color="rgb(100%, 27.55127%, 21.64917%)" offset="0.332031"/><stop stop-opacity="1" stop-color="rgb(100%, 27.79541%, 21.720886%)" offset="0.335937"/><stop stop-opacity="1" stop-color="rgb(100%, 28.039551%, 21.791077%)" offset="0.339844"/><stop stop-opacity="1" stop-color="rgb(100%, 28.283691%, 21.862793%)" offset="0.34375"/><stop stop-opacity="1" stop-color="rgb(100%, 28.526306%, 21.934509%)" offset="0.347656"/><stop stop-opacity="1" stop-color="rgb(100%, 28.770447%, 22.006226%)" offset="0.351562"/><stop stop-opacity="1" stop-color="rgb(100%, 29.014587%, 22.076416%)" offset="0.355469"/><stop stop-opacity="1" stop-color="rgb(100%, 29.258728%, 22.148132%)" offset="0.359375"/><stop stop-opacity="1" stop-color="rgb(100%, 29.502869%, 22.218323%)" offset="0.363281"/><stop stop-opacity="1" stop-color="rgb(100%, 29.747009%, 22.290039%)" offset="0.367187"/><stop stop-opacity="1" stop-color="rgb(100%, 29.99115%, 22.360229%)" offset="0.371094"/><stop stop-opacity="1" stop-color="rgb(100%, 30.235291%, 22.431946%)" offset="0.375"/><stop stop-opacity="1" stop-color="rgb(100%, 30.477905%, 22.503662%)" offset="0.378906"/><stop stop-opacity="1" stop-color="rgb(100%, 30.722046%, 22.575378%)" offset="0.382812"/><stop stop-opacity="1" stop-color="rgb(100%, 30.966187%, 22.645569%)" offset="0.386719"/><stop stop-opacity="1" stop-color="rgb(100%, 31.210327%, 22.717285%)" offset="0.390625"/><stop stop-opacity="1" stop-color="rgb(100%, 31.454468%, 22.787476%)" offset="0.394531"/><stop stop-opacity="1" stop-color="rgb(100%, 31.698608%, 22.859192%)" offset="0.398437"/><stop stop-opacity="1" stop-color="rgb(100%, 31.941223%, 22.929382%)" offset="0.402344"/><stop stop-opacity="1" stop-color="rgb(100%, 32.185364%, 23.001099%)" offset="0.40625"/><stop stop-opacity="1" stop-color="rgb(100%, 32.429504%, 23.072815%)" offset="0.410156"/><stop stop-opacity="1" stop-color="rgb(100%, 32.673645%, 23.144531%)" offset="0.414062"/><stop stop-opacity="1" stop-color="rgb(100%, 32.917786%, 23.214722%)" offset="0.417969"/><stop stop-opacity="1" stop-color="rgb(100%, 33.161926%, 23.286438%)" offset="0.421875"/><stop stop-opacity="1" stop-color="rgb(100%, 33.404541%, 23.356628%)" offset="0.425781"/><stop stop-opacity="1" stop-color="rgb(100%, 33.648682%, 23.428345%)" offset="0.429687"/><stop stop-opacity="1" stop-color="rgb(100%, 33.892822%, 23.498535%)" offset="0.433594"/><stop stop-opacity="1" stop-color="rgb(100%, 34.136963%, 23.570251%)" offset="0.4375"/><stop stop-opacity="1" stop-color="rgb(100%, 34.381104%, 23.641968%)" offset="0.441406"/><stop stop-opacity="1" stop-color="rgb(100%, 34.625244%, 23.713684%)" offset="0.445312"/><stop stop-opacity="1" stop-color="rgb(100%, 34.867859%, 23.783875%)" offset="0.449219"/><stop stop-opacity="1" stop-color="rgb(100%, 35.112%, 23.855591%)" offset="0.453125"/><stop stop-opacity="1" stop-color="rgb(100%, 35.35614%, 23.925781%)" offset="0.457031"/><stop stop-opacity="1" stop-color="rgb(100%, 35.600281%, 23.997498%)" offset="0.460937"/><stop stop-opacity="1" stop-color="rgb(100%, 35.844421%, 24.067688%)" offset="0.464844"/><stop stop-opacity="1" stop-color="rgb(100%, 36.088562%, 24.139404%)" offset="0.46875"/><stop stop-opacity="1" stop-color="rgb(100%, 36.331177%, 24.211121%)" offset="0.472656"/><stop stop-opacity="1" stop-color="rgb(100%, 36.575317%, 24.282837%)" offset="0.476562"/><stop stop-opacity="1" stop-color="rgb(100%, 36.819458%, 24.353027%)" offset="0.480469"/><stop stop-opacity="1" stop-color="rgb(100%, 37.063599%, 24.424744%)" offset="0.484375"/><stop stop-opacity="1" stop-color="rgb(100%, 37.307739%, 24.494934%)" offset="0.488281"/><stop stop-opacity="1" stop-color="rgb(100%, 37.55188%, 24.56665%)" offset="0.492187"/><stop stop-opacity="1" stop-color="rgb(100%, 37.794495%, 24.636841%)" offset="0.496094"/><stop stop-opacity="1" stop-color="rgb(100%, 38.038635%, 24.708557%)" offset="0.5"/><stop stop-opacity="1" stop-color="rgb(100%, 38.282776%, 24.780273%)" offset="0.503906"/><stop stop-opacity="1" stop-color="rgb(100%, 38.526917%, 24.85199%)" offset="0.507812"/><stop stop-opacity="1" stop-color="rgb(100%, 38.771057%, 24.92218%)" offset="0.511719"/><stop stop-opacity="1" stop-color="rgb(100%, 39.015198%, 24.993896%)" offset="0.515625"/><stop stop-opacity="1" stop-color="rgb(100%, 39.257812%, 25.064087%)" offset="0.519531"/><stop stop-opacity="1" stop-color="rgb(100%, 39.501953%, 25.135803%)" offset="0.523437"/><stop stop-opacity="1" stop-color="rgb(100%, 39.746094%, 25.205994%)" offset="0.527344"/><stop stop-opacity="1" stop-color="rgb(100%, 39.990234%, 25.27771%)" offset="0.53125"/><stop stop-opacity="1" stop-color="rgb(100%, 40.234375%, 25.349426%)" offset="0.535156"/><stop stop-opacity="1" stop-color="rgb(100%, 40.478516%, 25.421143%)" offset="0.539062"/><stop stop-opacity="1" stop-color="rgb(100%, 40.72113%, 25.491333%)" offset="0.542969"/><stop stop-opacity="1" stop-color="rgb(100%, 40.965271%, 25.563049%)" offset="0.546875"/><stop stop-opacity="1" stop-color="rgb(100%, 41.209412%, 25.63324%)" offset="0.550781"/><stop stop-opacity="1" stop-color="rgb(100%, 41.453552%, 25.704956%)" offset="0.554688"/><stop stop-opacity="1" stop-color="rgb(100%, 41.697693%, 25.775146%)" offset="0.558594"/><stop stop-opacity="1" stop-color="rgb(100%, 41.941833%, 25.846863%)" offset="0.5625"/><stop stop-opacity="1" stop-color="rgb(100%, 42.185974%, 25.918579%)" offset="0.566406"/><stop stop-opacity="1" stop-color="rgb(100%, 42.430115%, 25.990295%)" offset="0.570312"/><stop stop-opacity="1" stop-color="rgb(100%, 42.672729%, 26.060486%)" offset="0.574219"/><stop stop-opacity="1" stop-color="rgb(100%, 42.91687%, 26.132202%)" offset="0.578125"/><stop stop-opacity="1" stop-color="rgb(100%, 43.161011%, 26.202393%)" offset="0.582031"/><stop stop-opacity="1" stop-color="rgb(100%, 43.405151%, 26.274109%)" offset="0.585938"/><stop stop-opacity="1" stop-color="rgb(100%, 43.649292%, 26.344299%)" offset="0.589844"/><stop stop-opacity="1" stop-color="rgb(100%, 43.893433%, 26.416016%)" offset="0.59375"/><stop stop-opacity="1" stop-color="rgb(100%, 44.136047%, 26.487732%)" offset="0.597656"/><stop stop-opacity="1" stop-color="rgb(100%, 44.380188%, 26.559448%)" offset="0.601562"/><stop stop-opacity="1" stop-color="rgb(100%, 44.624329%, 26.629639%)" offset="0.605469"/><stop stop-opacity="1" stop-color="rgb(100%, 44.868469%, 26.701355%)" offset="0.609375"/><stop stop-opacity="1" stop-color="rgb(100%, 45.11261%, 26.771545%)" offset="0.613281"/><stop stop-opacity="1" stop-color="rgb(100%, 45.35675%, 26.843262%)" offset="0.617188"/><stop stop-opacity="1" stop-color="rgb(100%, 45.599365%, 26.914978%)" offset="0.621094"/><stop stop-opacity="1" stop-color="rgb(100%, 45.843506%, 26.986694%)" offset="0.625"/><stop stop-opacity="1" stop-color="rgb(100%, 46.087646%, 27.056885%)" offset="0.628906"/><stop stop-opacity="1" stop-color="rgb(100%, 46.331787%, 27.128601%)" offset="0.632812"/><stop stop-opacity="1" stop-color="rgb(100%, 46.575928%, 27.198792%)" offset="0.636719"/><stop stop-opacity="1" stop-color="rgb(100%, 46.820068%, 27.270508%)" offset="0.640625"/><stop stop-opacity="1" stop-color="rgb(100%, 47.062683%, 27.340698%)" offset="0.644531"/><stop stop-opacity="1" stop-color="rgb(100%, 47.306824%, 27.412415%)" offset="0.648437"/><stop stop-opacity="1" stop-color="rgb(100%, 47.550964%, 27.484131%)" offset="0.652344"/><stop stop-opacity="1" stop-color="rgb(100%, 47.795105%, 27.555847%)" offset="0.65625"/><stop stop-opacity="1" stop-color="rgb(100%, 48.039246%, 27.626038%)" offset="0.660156"/><stop stop-opacity="1" stop-color="rgb(100%, 48.283386%, 27.697754%)" offset="0.664062"/><stop stop-opacity="1" stop-color="rgb(100%, 48.526001%, 27.767944%)" offset="0.667969"/><stop stop-opacity="1" stop-color="rgb(100%, 48.770142%, 27.839661%)" offset="0.671875"/><stop stop-opacity="1" stop-color="rgb(100%, 49.014282%, 27.909851%)" offset="0.675781"/><stop stop-opacity="1" stop-color="rgb(100%, 49.258423%, 27.981567%)" offset="0.679687"/><stop stop-opacity="1" stop-color="rgb(100%, 49.502563%, 28.053284%)" offset="0.683594"/><stop stop-opacity="1" stop-color="rgb(100%, 49.746704%, 28.125%)" offset="0.6875"/><stop stop-opacity="1" stop-color="rgb(100%, 49.989319%, 28.19519%)" offset="0.691406"/><stop stop-opacity="1" stop-color="rgb(100%, 50.233459%, 28.266907%)" offset="0.695312"/><stop stop-opacity="1" stop-color="rgb(100%, 50.4776%, 28.337097%)" offset="0.699219"/><stop stop-opacity="1" stop-color="rgb(100%, 50.721741%, 28.408813%)" offset="0.703125"/><stop stop-opacity="1" stop-color="rgb(100%, 50.965881%, 28.479004%)" offset="0.707031"/><stop stop-opacity="1" stop-color="rgb(100%, 51.210022%, 28.55072%)" offset="0.710938"/><stop stop-opacity="1" stop-color="rgb(100%, 51.452637%, 28.622437%)" offset="0.714844"/><stop stop-opacity="1" stop-color="rgb(100%, 51.696777%, 28.694153%)" offset="0.71875"/><stop stop-opacity="1" stop-color="rgb(100%, 51.940918%, 28.764343%)" offset="0.722656"/><stop stop-opacity="1" stop-color="rgb(100%, 52.185059%, 28.83606%)" offset="0.726562"/><stop stop-opacity="1" stop-color="rgb(100%, 52.429199%, 28.90625%)" offset="0.730469"/><stop stop-opacity="1" stop-color="rgb(100%, 52.67334%, 28.977966%)" offset="0.734375"/><stop stop-opacity="1" stop-color="rgb(100%, 52.915955%, 29.048157%)" offset="0.738281"/><stop stop-opacity="1" stop-color="rgb(100%, 53.160095%, 29.119873%)" offset="0.742187"/><stop stop-opacity="1" stop-color="rgb(100%, 53.404236%, 29.191589%)" offset="0.746094"/><stop stop-opacity="1" stop-color="rgb(100%, 53.648376%, 29.263306%)" offset="0.75"/><stop stop-opacity="1" stop-color="rgb(100%, 53.892517%, 29.333496%)" offset="0.753906"/><stop stop-opacity="1" stop-color="rgb(100%, 54.136658%, 29.405212%)" offset="0.757812"/><stop stop-opacity="1" stop-color="rgb(100%, 54.379272%, 29.475403%)" offset="0.761719"/><stop stop-opacity="1" stop-color="rgb(100%, 54.623413%, 29.547119%)" offset="0.765625"/><stop stop-opacity="1" stop-color="rgb(100%, 54.867554%, 29.61731%)" offset="0.769531"/><stop stop-opacity="1" stop-color="rgb(100%, 55.111694%, 29.689026%)" offset="0.773437"/><stop stop-opacity="1" stop-color="rgb(100%, 55.355835%, 29.760742%)" offset="0.777344"/><stop stop-opacity="1" stop-color="rgb(100%, 55.599976%, 29.832458%)" offset="0.78125"/><stop stop-opacity="1" stop-color="rgb(100%, 55.844116%, 29.902649%)" offset="0.785156"/><stop stop-opacity="1" stop-color="rgb(100%, 56.088257%, 29.974365%)" offset="0.789062"/><stop stop-opacity="1" stop-color="rgb(100%, 56.330872%, 30.044556%)" offset="0.792969"/><stop stop-opacity="1" stop-color="rgb(100%, 56.575012%, 30.116272%)" offset="0.796875"/><stop stop-opacity="1" stop-color="rgb(100%, 56.716919%, 30.157471%)" offset="0.8125"/><stop stop-opacity="1" stop-color="rgb(100%, 56.858826%, 30.198669%)" offset="0.875"/><stop stop-opacity="1" stop-color="rgb(100%, 56.858826%, 30.198669%)" offset="1"/></linearGradient><clipPath id="e16e93ea43"><rect x="0" width="674" y="0" height="146"/></clipPath><clipPath id="24a3a33637"><path d="M 0.347656 0.0273438 L 673.847656 0.0273438 L 673.847656 145.527344 L 0.347656 145.527344 Z M 0.347656 0.0273438 " clip-rule="nonzero"/></clipPath><clipPath id="9f8f472394"><rect x="0" width="674" y="0" height="146"/></clipPath><clipPath id="4ea8cb844f"><rect x="0" width="674" y="0" height="146"/></clipPath><mask id="ec4182bcd2"><g filter="url(#e8b7298bec)"><g transform="matrix(1, 0, 0, 1, 0.000000000000014211, 0)"><g clip-path="url(#4ea8cb844f)"><g clip-path="url(#24a3a33637)"><g transform="matrix(1, 0, 0, 1, 0.000000000000014211, 0)"><g clip-path="url(#9f8f472394)"><g fill="#000000" fill-opacity="1"><g transform="translate(171.34713, 82.526539)"><g><path d="M 11.046875 -1.625 C 12.210938 -1.625 13.328125 -1.851562 14.390625 -2.3125 C 15.453125 -2.769531 16.34375 -3.40625 17.0625 -4.21875 L 18.40625 -2.8125 C 17.476562 -1.832031 16.363281 -1.066406 15.0625 -0.515625 C 13.769531 0.0234375 12.410156 0.296875 10.984375 0.296875 C 9.617188 0.296875 8.335938 0.046875 7.140625 -0.453125 C 5.941406 -0.960938 4.898438 -1.648438 4.015625 -2.515625 C 3.140625 -3.390625 2.445312 -4.425781 1.9375 -5.625 C 1.4375 -6.820312 1.1875 -8.097656 1.1875 -9.453125 C 1.1875 -10.796875 1.4375 -12.066406 1.9375 -13.265625 C 2.445312 -14.460938 3.140625 -15.5 4.015625 -16.375 C 4.898438 -17.25 5.941406 -17.9375 7.140625 -18.4375 C 8.335938 -18.945312 9.617188 -19.203125 10.984375 -19.203125 C 12.441406 -19.203125 13.820312 -18.925781 15.125 -18.375 C 16.4375 -17.820312 17.550781 -17.0625 18.46875 -16.09375 L 17.09375 -14.640625 C 16.351562 -15.460938 15.4375 -16.109375 14.34375 -16.578125 C 13.257812 -17.046875 12.140625 -17.28125 10.984375 -17.28125 C 9.910156 -17.28125 8.898438 -17.078125 7.953125 -16.671875 C 7.003906 -16.265625 6.1875 -15.710938 5.5 -15.015625 C 4.820312 -14.328125 4.285156 -13.5 3.890625 -12.53125 C 3.492188 -11.570312 3.296875 -10.546875 3.296875 -9.453125 C 3.296875 -8.347656 3.492188 -7.3125 3.890625 -6.34375 C 4.285156 -5.382812 4.828125 -4.554688 5.515625 -3.859375 C 6.210938 -3.171875 7.03125 -2.625 7.96875 -2.21875 C 8.914062 -1.820312 9.941406 -1.625 11.046875 -1.625 Z M 11.046875 -1.625 "/></g></g></g><g fill="#000000" fill-opacity="1"><g transform="translate(195.3683, 82.526539)"><g><path d="M 1.703125 0 L 1.703125 -18.90625 L 3.703125 -19.359375 L 3.703125 -11.9375 C 4.222656 -12.550781 4.84375 -13.015625 5.5625 -13.328125 C 6.28125 -13.640625 7.082031 -13.796875 7.96875 -13.796875 C 9.5 -13.796875 10.75 -13.304688 11.71875 -12.328125 C 12.6875 -11.359375 13.171875 -10.101562 13.171875 -8.5625 L 13.171875 0 L 11.203125 0 L 11.203125 -8.15625 C 11.203125 -9.34375 10.859375 -10.285156 10.171875 -10.984375 C 9.492188 -11.691406 8.578125 -12.046875 7.421875 -12.046875 C 6.609375 -12.046875 5.882812 -11.863281 5.25 -11.5 C 4.613281 -11.144531 4.097656 -10.632812 3.703125 -9.96875 L 3.703125 0 Z M 1.703125 0 "/></g></g></g><g fill="#000000" fill-opacity="1"><g transform="translate(214.72051, 82.526539)"><g><path d="M 13.09375 -1.4375 C 12.34375 -0.875 11.554688 -0.453125 10.734375 -0.171875 C 9.910156 0.109375 9.015625 0.25 8.046875 0.25 C 7.078125 0.25 6.160156 0.0664062 5.296875 -0.296875 C 4.441406 -0.660156 3.703125 -1.15625 3.078125 -1.78125 C 2.460938 -2.414062 1.972656 -3.160156 1.609375 -4.015625 C 1.253906 -4.867188 1.078125 -5.789062 1.078125 -6.78125 C 1.078125 -7.75 1.253906 -8.65625 1.609375 -9.5 C 1.960938 -10.34375 2.4375 -11.078125 3.03125 -11.703125 C 3.625 -12.335938 4.328125 -12.835938 5.140625 -13.203125 C 5.960938 -13.566406 6.832031 -13.75 7.75 -13.75 C 8.644531 -13.75 9.484375 -13.566406 10.265625 -13.203125 C 11.054688 -12.835938 11.734375 -12.335938 12.296875 -11.703125 C 12.867188 -11.078125 13.316406 -10.34375 13.640625 -9.5 C 13.972656 -8.65625 14.140625 -7.75 14.140625 -6.78125 L 14.140625 -6.15625 L 3.046875 -6.15625 C 3.191406 -4.820312 3.738281 -3.710938 4.6875 -2.828125 C 5.644531 -1.953125 6.789062 -1.515625 8.125 -1.515625 C 8.832031 -1.515625 9.515625 -1.617188 10.171875 -1.828125 C 10.835938 -2.046875 11.398438 -2.351562 11.859375 -2.75 Z M 7.6875 -11.984375 C 6.519531 -11.984375 5.507812 -11.585938 4.65625 -10.796875 C 3.800781 -10.003906 3.285156 -8.988281 3.109375 -7.75 L 12.15625 -7.75 C 11.96875 -8.9375 11.457031 -9.9375 10.625 -10.75 C 9.789062 -11.570312 8.8125 -11.984375 7.6875 -11.984375 Z M 7.6875 -11.984375 "/></g></g></g><g fill="#000000" fill-opacity="1"><g transform="translate(234.477543, 82.526539)"><g><path d="M 1.703125 0 L 1.703125 -13.53125 L 3.703125 -13.53125 L 3.703125 -12.046875 C 4.203125 -12.617188 4.785156 -13.050781 5.453125 -13.34375 C 6.117188 -13.644531 6.859375 -13.796875 7.671875 -13.796875 C 8.609375 -13.796875 9.445312 -13.570312 10.1875 -13.125 C 10.9375 -12.6875 11.519531 -12.09375 11.9375 -11.34375 C 12.488281 -12.164062 13.15625 -12.78125 13.9375 -13.1875 C 14.726562 -13.59375 15.609375 -13.796875 16.578125 -13.796875 C 18.035156 -13.796875 19.226562 -13.304688 20.15625 -12.328125 C 21.082031 -11.359375 21.546875 -10.101562 21.546875 -8.5625 L 21.546875 0 L 19.578125 0 L 19.578125 -8.15625 C 19.578125 -9.34375 19.257812 -10.285156 18.625 -10.984375 C 18 -11.691406 17.144531 -12.046875 16.0625 -12.046875 C 15.320312 -12.046875 14.644531 -11.851562 14.03125 -11.46875 C 13.425781 -11.09375 12.90625 -10.546875 12.46875 -9.828125 C 12.507812 -9.628906 12.539062 -9.425781 12.5625 -9.21875 C 12.59375 -9.007812 12.609375 -8.789062 12.609375 -8.5625 L 12.609375 0 L 10.640625 0 L 10.640625 -8.15625 C 10.640625 -9.34375 10.320312 -10.285156 9.6875 -10.984375 C 9.0625 -11.691406 8.21875 -12.046875 7.15625 -12.046875 C 6.4375 -12.046875 5.78125 -11.878906 5.1875 -11.546875 C 4.601562 -11.210938 4.109375 -10.722656 3.703125 -10.078125 L 3.703125 0 Z M 1.703125 0 "/></g></g></g><g fill="#000000" fill-opacity="1"><g transform="translate(262.196093, 82.526539)"><g><path d="M 2.703125 -16.125 C 2.335938 -16.125 2.019531 -16.253906 1.75 -16.515625 C 1.476562 -16.785156 1.34375 -17.101562 1.34375 -17.46875 C 1.34375 -17.84375 1.476562 -18.160156 1.75 -18.421875 C 2.019531 -18.679688 2.335938 -18.8125 2.703125 -18.8125 C 3.078125 -18.8125 3.394531 -18.679688 3.65625 -18.421875 C 3.914062 -18.160156 4.046875 -17.84375 4.046875 -17.46875 C 4.046875 -17.101562 3.914062 -16.785156 3.65625 -16.515625 C 3.394531 -16.253906 3.078125 -16.125 2.703125 -16.125 Z M 3.703125 -13.53125 L 3.703125 0 L 1.703125 0 L 1.703125 -13.53125 Z M 3.703125 -13.53125 "/></g></g></g><g fill="#000000" fill-opacity="1"><g transform="translate(272.129416, 82.526539)"><g><path d="M 0.328125 -1.859375 L 1.53125 -3.15625 C 2.144531 -2.582031 2.832031 -2.132812 3.59375 -1.8125 C 4.363281 -1.5 5.144531 -1.34375 5.9375 -1.34375 C 7.019531 -1.34375 7.898438 -1.566406 8.578125 -2.015625 C 9.265625 -2.472656 9.609375 -3.0625 9.609375 -3.78125 C 9.609375 -4.351562 9.40625 -4.804688 9 -5.140625 C 8.59375 -5.472656 7.957031 -5.703125 7.09375 -5.828125 L 4.75 -6.15625 C 3.40625 -6.351562 2.398438 -6.753906 1.734375 -7.359375 C 1.078125 -7.960938 0.75 -8.773438 0.75 -9.796875 C 0.75 -10.929688 1.226562 -11.875 2.1875 -12.625 C 3.144531 -13.375 4.359375 -13.75 5.828125 -13.75 C 6.804688 -13.75 7.726562 -13.601562 8.59375 -13.3125 C 9.46875 -13.019531 10.320312 -12.570312 11.15625 -11.96875 L 10.09375 -10.609375 C 9.34375 -11.109375 8.609375 -11.484375 7.890625 -11.734375 C 7.179688 -11.992188 6.457031 -12.125 5.71875 -12.125 C 4.800781 -12.125 4.050781 -11.914062 3.46875 -11.5 C 2.882812 -11.082031 2.59375 -10.539062 2.59375 -9.875 C 2.59375 -9.300781 2.789062 -8.859375 3.1875 -8.546875 C 3.582031 -8.234375 4.222656 -8.015625 5.109375 -7.890625 L 7.453125 -7.5625 C 8.804688 -7.382812 9.816406 -6.984375 10.484375 -6.359375 C 11.160156 -5.734375 11.5 -4.910156 11.5 -3.890625 C 11.5 -3.316406 11.359375 -2.769531 11.078125 -2.25 C 10.804688 -1.738281 10.421875 -1.296875 9.921875 -0.921875 C 9.429688 -0.554688 8.851562 -0.269531 8.1875 -0.0625 C 7.519531 0.144531 6.796875 0.25 6.015625 0.25 C 4.898438 0.25 3.851562 0.0664062 2.875 -0.296875 C 1.894531 -0.671875 1.046875 -1.191406 0.328125 -1.859375 Z M 0.328125 -1.859375 "/></g></g></g><g fill="#000000" fill-opacity="1"><g transform="translate(288.701833, 82.526539)"><g><path d="M 3.375 -3.03125 L 3.375 -11.828125 L 0.453125 -11.828125 L 0.453125 -13.53125 L 3.375 -13.53125 L 3.375 -16.953125 L 5.34375 -17.46875 L 5.34375 -13.53125 L 9.421875 -13.53125 L 9.421875 -11.828125 L 5.34375 -11.828125 L 5.34375 -3.53125 C 5.34375 -2.8125 5.503906 -2.296875 5.828125 -1.984375 C 6.148438 -1.671875 6.679688 -1.515625 7.421875 -1.515625 C 7.796875 -1.515625 8.132812 -1.539062 8.4375 -1.59375 C 8.738281 -1.644531 9.054688 -1.734375 9.390625 -1.859375 L 9.390625 -0.109375 C 9.054688 0.015625 8.675781 0.101562 8.25 0.15625 C 7.820312 0.21875 7.410156 0.25 7.015625 0.25 C 5.847656 0.25 4.945312 -0.03125 4.3125 -0.59375 C 3.6875 -1.15625 3.375 -1.96875 3.375 -3.03125 Z M 3.375 -3.03125 "/></g></g></g><g fill="#000000" fill-opacity="1"><g transform="translate(303.088212, 82.526539)"><g><path d="M 1.703125 0 L 1.703125 -13.53125 L 3.703125 -13.53125 L 3.703125 -11.609375 C 4.097656 -12.304688 4.617188 -12.847656 5.265625 -13.234375 C 5.910156 -13.628906 6.648438 -13.828125 7.484375 -13.828125 C 7.734375 -13.828125 7.957031 -13.8125 8.15625 -13.78125 C 8.351562 -13.757812 8.550781 -13.710938 8.75 -13.640625 L 8.75 -11.796875 C 8.507812 -11.867188 8.269531 -11.925781 8.03125 -11.96875 C 7.800781 -12.019531 7.570312 -12.046875 7.34375 -12.046875 C 6.519531 -12.046875 5.789062 -11.804688 5.15625 -11.328125 C 4.53125 -10.847656 4.046875 -10.160156 3.703125 -9.265625 L 3.703125 0 Z M 1.703125 0 "/></g></g></g><g fill="#000000" fill-opacity="1"><g transform="translate(316.961815, 82.526539)"><g><path d="M 4.859375 1.75 L 5.640625 -0.03125 L 0.140625 -13.53125 L 2.34375 -13.53125 L 6.71875 -2.4375 L 11.453125 -13.53125 L 13.609375 -13.53125 L 6.890625 2.03125 C 6.304688 3.320312 5.664062 4.253906 4.96875 4.828125 C 4.269531 5.410156 3.378906 5.703125 2.296875 5.703125 C 2.046875 5.703125 1.804688 5.6875 1.578125 5.65625 C 1.347656 5.625 1.164062 5.59375 1.03125 5.5625 L 1.03125 3.75 C 1.207031 3.789062 1.378906 3.816406 1.546875 3.828125 C 1.722656 3.847656 1.925781 3.859375 2.15625 3.859375 C 2.769531 3.859375 3.289062 3.6875 3.71875 3.34375 C 4.15625 3 4.535156 2.46875 4.859375 1.75 Z M 4.859375 1.75 "/></g></g></g></g></g></g></g></g></g></mask><clipPath id="5f163b22da"><path d="M 117.347656 0.777344 L 389.59375 0.777344 L 389.59375 144.777344 L 117.347656 144.777344 Z M 117.347656 0.777344 " clip-rule="nonzero"/></clipPath><clipPath id="7343bdd2e9"><rect x="0" width="674" y="0" height="146"/></clipPath><clipPath id="a410a72c9c"><rect x="0" width="674" y="0" height="146"/></clipPath><clipPath id="7de04321aa"><path d="M 0.347656 0.0273438 L 673.847656 0.0273438 L 673.847656 145.527344 L 0.347656 145.527344 Z M 0.347656 0.0273438 " clip-rule="nonzero"/></clipPath><clipPath id="79993e5cb0"><path d="M 400.097656 0.777344 L 668.59375 0.777344 L 668.59375 144.777344 L 400.097656 144.777344 Z M 400.097656 0.777344 " clip-rule="nonzero"/></clipPath><linearGradient x1="460.646" gradientTransform="matrix(0.750928, 0, 0, 0.750039, 54.18659, 54.025573)" y1="25" x2="818.19898" gradientUnits="userSpaceOnUse" y2="25" id="8608fc1548"><stop stop-opacity="1" stop-color="rgb(100%, 19.219971%, 19.219971%)" offset="0"/><stop stop-opacity="1" stop-color="rgb(100%, 19.219971%, 19.219971%)" offset="0.125"/><stop stop-opacity="1" stop-color="rgb(100%, 19.219971%, 19.219971%)" offset="0.1875"/><stop stop-opacity="1" stop-color="rgb(100%, 19.274902%, 19.235229%)" offset="0.203125"/><stop stop-opacity="1" stop-color="rgb(100%, 19.577026%, 19.32373%)" offset="0.207031"/><stop stop-opacity="1" stop-color="rgb(100%, 19.822693%, 19.395447%)" offset="0.210938"/><stop stop-opacity="1" stop-color="rgb(100%, 20.068359%, 19.467163%)" offset="0.214844"/><stop stop-opacity="1" stop-color="rgb(100%, 20.315552%, 19.538879%)" offset="0.21875"/><stop stop-opacity="1" stop-color="rgb(100%, 20.561218%, 19.610596%)" offset="0.222656"/><stop stop-opacity="1" stop-color="rgb(100%, 20.808411%, 19.682312%)" offset="0.226562"/><stop stop-opacity="1" stop-color="rgb(100%, 21.054077%, 19.754028%)" offset="0.230469"/><stop stop-opacity="1" stop-color="rgb(100%, 21.299744%, 19.825745%)" offset="0.234375"/><stop stop-opacity="1" stop-color="rgb(100%, 21.54541%, 19.897461%)" offset="0.238281"/><stop stop-opacity="1" stop-color="rgb(100%, 21.792603%, 19.969177%)" offset="0.242188"/><stop stop-opacity="1" stop-color="rgb(100%, 22.038269%, 20.040894%)" offset="0.246094"/><stop stop-opacity="1" stop-color="rgb(100%, 22.285461%, 20.114136%)" offset="0.25"/><stop stop-opacity="1" stop-color="rgb(100%, 22.531128%, 20.185852%)" offset="0.253906"/><stop stop-opacity="1" stop-color="rgb(100%, 22.776794%, 20.257568%)" offset="0.257812"/><stop stop-opacity="1" stop-color="rgb(100%, 23.022461%, 20.329285%)" offset="0.261719"/><stop stop-opacity="1" stop-color="rgb(100%, 23.269653%, 20.401001%)" offset="0.265625"/><stop stop-opacity="1" stop-color="rgb(100%, 23.51532%, 20.472717%)" offset="0.269531"/><stop stop-opacity="1" stop-color="rgb(100%, 23.762512%, 20.544434%)" offset="0.273438"/><stop stop-opacity="1" stop-color="rgb(100%, 24.008179%, 20.61615%)" offset="0.277344"/><stop stop-opacity="1" stop-color="rgb(100%, 24.253845%, 20.687866%)" offset="0.28125"/><stop stop-opacity="1" stop-color="rgb(100%, 24.499512%, 20.759583%)" offset="0.285156"/><stop stop-opacity="1" stop-color="rgb(100%, 24.746704%, 20.831299%)" offset="0.289062"/><stop stop-opacity="1" stop-color="rgb(100%, 24.992371%, 20.903015%)" offset="0.292969"/><stop stop-opacity="1" stop-color="rgb(100%, 25.238037%, 20.974731%)" offset="0.296875"/><stop stop-opacity="1" stop-color="rgb(100%, 25.483704%, 21.046448%)" offset="0.300781"/><stop stop-opacity="1" stop-color="rgb(100%, 25.730896%, 21.118164%)" offset="0.304688"/><stop stop-opacity="1" stop-color="rgb(100%, 25.976562%, 21.18988%)" offset="0.308594"/><stop stop-opacity="1" stop-color="rgb(100%, 26.223755%, 21.263123%)" offset="0.3125"/><stop stop-opacity="1" stop-color="rgb(100%, 26.469421%, 21.334839%)" offset="0.316406"/><stop stop-opacity="1" stop-color="rgb(100%, 26.715088%, 21.406555%)" offset="0.320312"/><stop stop-opacity="1" stop-color="rgb(100%, 26.960754%, 21.478271%)" offset="0.324219"/><stop stop-opacity="1" stop-color="rgb(100%, 27.207947%, 21.549988%)" offset="0.328125"/><stop stop-opacity="1" stop-color="rgb(100%, 27.453613%, 21.621704%)" offset="0.332031"/><stop stop-opacity="1" stop-color="rgb(100%, 27.700806%, 21.69342%)" offset="0.335938"/><stop stop-opacity="1" stop-color="rgb(100%, 27.946472%, 21.765137%)" offset="0.339844"/><stop stop-opacity="1" stop-color="rgb(100%, 28.192139%, 21.836853%)" offset="0.34375"/><stop stop-opacity="1" stop-color="rgb(100%, 28.437805%, 21.908569%)" offset="0.347656"/><stop stop-opacity="1" stop-color="rgb(100%, 28.684998%, 21.980286%)" offset="0.351562"/><stop stop-opacity="1" stop-color="rgb(100%, 28.930664%, 22.052002%)" offset="0.355469"/><stop stop-opacity="1" stop-color="rgb(100%, 29.177856%, 22.123718%)" offset="0.359375"/><stop stop-opacity="1" stop-color="rgb(100%, 29.423523%, 22.195435%)" offset="0.363281"/><stop stop-opacity="1" stop-color="rgb(100%, 29.669189%, 22.267151%)" offset="0.367188"/><stop stop-opacity="1" stop-color="rgb(100%, 29.914856%, 22.338867%)" offset="0.371094"/><stop stop-opacity="1" stop-color="rgb(100%, 30.162048%, 22.412109%)" offset="0.375"/><stop stop-opacity="1" stop-color="rgb(100%, 30.407715%, 22.483826%)" offset="0.378906"/><stop stop-opacity="1" stop-color="rgb(100%, 30.654907%, 22.555542%)" offset="0.382812"/><stop stop-opacity="1" stop-color="rgb(100%, 30.900574%, 22.627258%)" offset="0.386719"/><stop stop-opacity="1" stop-color="rgb(100%, 31.14624%, 22.698975%)" offset="0.390625"/><stop stop-opacity="1" stop-color="rgb(100%, 31.391907%, 22.770691%)" offset="0.394531"/><stop stop-opacity="1" stop-color="rgb(100%, 31.639099%, 22.842407%)" offset="0.398438"/><stop stop-opacity="1" stop-color="rgb(100%, 31.884766%, 22.914124%)" offset="0.402344"/><stop stop-opacity="1" stop-color="rgb(100%, 32.131958%, 22.98584%)" offset="0.40625"/><stop stop-opacity="1" stop-color="rgb(100%, 32.377625%, 23.057556%)" offset="0.410156"/><stop stop-opacity="1" stop-color="rgb(100%, 32.623291%, 23.129272%)" offset="0.414062"/><stop stop-opacity="1" stop-color="rgb(100%, 32.868958%, 23.200989%)" offset="0.417969"/><stop stop-opacity="1" stop-color="rgb(100%, 33.11615%, 23.272705%)" offset="0.421875"/><stop stop-opacity="1" stop-color="rgb(100%, 33.361816%, 23.344421%)" offset="0.425781"/><stop stop-opacity="1" stop-color="rgb(100%, 33.609009%, 23.416138%)" offset="0.429688"/><stop stop-opacity="1" stop-color="rgb(100%, 33.854675%, 23.487854%)" offset="0.433594"/><stop stop-opacity="1" stop-color="rgb(100%, 34.100342%, 23.55957%)" offset="0.4375"/><stop stop-opacity="1" stop-color="rgb(100%, 34.346008%, 23.631287%)" offset="0.441406"/><stop stop-opacity="1" stop-color="rgb(100%, 34.593201%, 23.704529%)" offset="0.445312"/><stop stop-opacity="1" stop-color="rgb(100%, 34.838867%, 23.776245%)" offset="0.449219"/><stop stop-opacity="1" stop-color="rgb(100%, 35.08606%, 23.847961%)" offset="0.453125"/><stop stop-opacity="1" stop-color="rgb(100%, 35.331726%, 23.919678%)" offset="0.457031"/><stop stop-opacity="1" stop-color="rgb(100%, 35.577393%, 23.991394%)" offset="0.460938"/><stop stop-opacity="1" stop-color="rgb(100%, 35.823059%, 24.06311%)" offset="0.464844"/><stop stop-opacity="1" stop-color="rgb(100%, 36.070251%, 24.134827%)" offset="0.46875"/><stop stop-opacity="1" stop-color="rgb(100%, 36.315918%, 24.206543%)" offset="0.472656"/><stop stop-opacity="1" stop-color="rgb(100%, 36.561584%, 24.278259%)" offset="0.476563"/><stop stop-opacity="1" stop-color="rgb(100%, 36.807251%, 24.349976%)" offset="0.480469"/><stop stop-opacity="1" stop-color="rgb(100%, 37.054443%, 24.421692%)" offset="0.484375"/><stop stop-opacity="1" stop-color="rgb(100%, 37.30011%, 24.493408%)" offset="0.488281"/><stop stop-opacity="1" stop-color="rgb(100%, 37.547302%, 24.565125%)" offset="0.492187"/><stop stop-opacity="1" stop-color="rgb(100%, 37.792969%, 24.636841%)" offset="0.496094"/><stop stop-opacity="1" stop-color="rgb(100%, 38.038635%, 24.708557%)" offset="0.5"/><stop stop-opacity="1" stop-color="rgb(100%, 38.284302%, 24.780273%)" offset="0.503906"/><stop stop-opacity="1" stop-color="rgb(100%, 38.531494%, 24.853516%)" offset="0.507812"/><stop stop-opacity="1" stop-color="rgb(100%, 38.777161%, 24.925232%)" offset="0.511719"/><stop stop-opacity="1" stop-color="rgb(100%, 39.024353%, 24.996948%)" offset="0.515625"/><stop stop-opacity="1" stop-color="rgb(100%, 39.27002%, 25.068665%)" offset="0.519531"/><stop stop-opacity="1" stop-color="rgb(100%, 39.515686%, 25.140381%)" offset="0.523438"/><stop stop-opacity="1" stop-color="rgb(100%, 39.761353%, 25.212097%)" offset="0.527344"/><stop stop-opacity="1" stop-color="rgb(100%, 40.008545%, 25.283813%)" offset="0.53125"/><stop stop-opacity="1" stop-color="rgb(100%, 40.254211%, 25.35553%)" offset="0.535156"/><stop stop-opacity="1" stop-color="rgb(100%, 40.501404%, 25.427246%)" offset="0.539062"/><stop stop-opacity="1" stop-color="rgb(100%, 40.74707%, 25.498962%)" offset="0.542969"/><stop stop-opacity="1" stop-color="rgb(100%, 40.992737%, 25.570679%)" offset="0.546875"/><stop stop-opacity="1" stop-color="rgb(100%, 41.238403%, 25.642395%)" offset="0.550781"/><stop stop-opacity="1" stop-color="rgb(100%, 41.485596%, 25.714111%)" offset="0.554688"/><stop stop-opacity="1" stop-color="rgb(100%, 41.731262%, 25.785828%)" offset="0.558594"/><stop stop-opacity="1" stop-color="rgb(100%, 41.978455%, 25.857544%)" offset="0.5625"/><stop stop-opacity="1" stop-color="rgb(100%, 42.224121%, 25.92926%)" offset="0.566406"/><stop stop-opacity="1" stop-color="rgb(100%, 42.469788%, 26.002502%)" offset="0.570312"/><stop stop-opacity="1" stop-color="rgb(100%, 42.715454%, 26.074219%)" offset="0.574219"/><stop stop-opacity="1" stop-color="rgb(100%, 42.962646%, 26.145935%)" offset="0.578125"/><stop stop-opacity="1" stop-color="rgb(100%, 43.208313%, 26.217651%)" offset="0.582031"/><stop stop-opacity="1" stop-color="rgb(100%, 43.455505%, 26.289368%)" offset="0.585938"/><stop stop-opacity="1" stop-color="rgb(100%, 43.701172%, 26.361084%)" offset="0.589844"/><stop stop-opacity="1" stop-color="rgb(100%, 43.946838%, 26.4328%)" offset="0.59375"/><stop stop-opacity="1" stop-color="rgb(100%, 44.192505%, 26.504517%)" offset="0.597656"/><stop stop-opacity="1" stop-color="rgb(100%, 44.439697%, 26.576233%)" offset="0.601562"/><stop stop-opacity="1" stop-color="rgb(100%, 44.685364%, 26.647949%)" offset="0.605469"/><stop stop-opacity="1" stop-color="rgb(100%, 44.932556%, 26.719666%)" offset="0.609375"/><stop stop-opacity="1" stop-color="rgb(100%, 45.178223%, 26.791382%)" offset="0.613281"/><stop stop-opacity="1" stop-color="rgb(100%, 45.423889%, 26.863098%)" offset="0.617188"/><stop stop-opacity="1" stop-color="rgb(100%, 45.669556%, 26.934814%)" offset="0.621094"/><stop stop-opacity="1" stop-color="rgb(100%, 45.916748%, 27.006531%)" offset="0.625"/><stop stop-opacity="1" stop-color="rgb(100%, 46.162415%, 27.078247%)" offset="0.628906"/><stop stop-opacity="1" stop-color="rgb(100%, 46.409607%, 27.151489%)" offset="0.632812"/><stop stop-opacity="1" stop-color="rgb(100%, 46.655273%, 27.223206%)" offset="0.636719"/><stop stop-opacity="1" stop-color="rgb(100%, 46.90094%, 27.294922%)" offset="0.640625"/><stop stop-opacity="1" stop-color="rgb(100%, 47.146606%, 27.366638%)" offset="0.644531"/><stop stop-opacity="1" stop-color="rgb(100%, 47.393799%, 27.438354%)" offset="0.648438"/><stop stop-opacity="1" stop-color="rgb(100%, 47.639465%, 27.510071%)" offset="0.652344"/><stop stop-opacity="1" stop-color="rgb(100%, 47.886658%, 27.581787%)" offset="0.65625"/><stop stop-opacity="1" stop-color="rgb(100%, 48.132324%, 27.653503%)" offset="0.660156"/><stop stop-opacity="1" stop-color="rgb(100%, 48.377991%, 27.72522%)" offset="0.664062"/><stop stop-opacity="1" stop-color="rgb(100%, 48.623657%, 27.796936%)" offset="0.667969"/><stop stop-opacity="1" stop-color="rgb(100%, 48.87085%, 27.868652%)" offset="0.671875"/><stop stop-opacity="1" stop-color="rgb(100%, 49.116516%, 27.940369%)" offset="0.675781"/><stop stop-opacity="1" stop-color="rgb(100%, 49.362183%, 28.012085%)" offset="0.679688"/><stop stop-opacity="1" stop-color="rgb(100%, 49.607849%, 28.083801%)" offset="0.683594"/><stop stop-opacity="1" stop-color="rgb(100%, 49.855042%, 28.155518%)" offset="0.6875"/><stop stop-opacity="1" stop-color="rgb(100%, 50.100708%, 28.227234%)" offset="0.691406"/><stop stop-opacity="1" stop-color="rgb(100%, 50.3479%, 28.29895%)" offset="0.695312"/><stop stop-opacity="1" stop-color="rgb(100%, 50.593567%, 28.370667%)" offset="0.699219"/><stop stop-opacity="1" stop-color="rgb(100%, 50.839233%, 28.443909%)" offset="0.703125"/><stop stop-opacity="1" stop-color="rgb(100%, 51.0849%, 28.515625%)" offset="0.707031"/><stop stop-opacity="1" stop-color="rgb(100%, 51.332092%, 28.587341%)" offset="0.710938"/><stop stop-opacity="1" stop-color="rgb(100%, 51.577759%, 28.659058%)" offset="0.714844"/><stop stop-opacity="1" stop-color="rgb(100%, 51.824951%, 28.730774%)" offset="0.71875"/><stop stop-opacity="1" stop-color="rgb(100%, 52.070618%, 28.80249%)" offset="0.722656"/><stop stop-opacity="1" stop-color="rgb(100%, 52.316284%, 28.874207%)" offset="0.726562"/><stop stop-opacity="1" stop-color="rgb(100%, 52.561951%, 28.945923%)" offset="0.730469"/><stop stop-opacity="1" stop-color="rgb(100%, 52.809143%, 29.017639%)" offset="0.734375"/><stop stop-opacity="1" stop-color="rgb(100%, 53.05481%, 29.089355%)" offset="0.738281"/><stop stop-opacity="1" stop-color="rgb(100%, 53.302002%, 29.161072%)" offset="0.742188"/><stop stop-opacity="1" stop-color="rgb(100%, 53.547668%, 29.232788%)" offset="0.746094"/><stop stop-opacity="1" stop-color="rgb(100%, 53.793335%, 29.304504%)" offset="0.75"/><stop stop-opacity="1" stop-color="rgb(100%, 54.039001%, 29.376221%)" offset="0.753906"/><stop stop-opacity="1" stop-color="rgb(100%, 54.286194%, 29.447937%)" offset="0.757813"/><stop stop-opacity="1" stop-color="rgb(100%, 54.53186%, 29.519653%)" offset="0.761719"/><stop stop-opacity="1" stop-color="rgb(100%, 54.779053%, 29.592896%)" offset="0.765625"/><stop stop-opacity="1" stop-color="rgb(100%, 55.024719%, 29.664612%)" offset="0.769531"/><stop stop-opacity="1" stop-color="rgb(100%, 55.270386%, 29.736328%)" offset="0.773438"/><stop stop-opacity="1" stop-color="rgb(100%, 55.516052%, 29.808044%)" offset="0.777344"/><stop stop-opacity="1" stop-color="rgb(100%, 55.763245%, 29.879761%)" offset="0.78125"/><stop stop-opacity="1" stop-color="rgb(100%, 56.008911%, 29.951477%)" offset="0.785156"/><stop stop-opacity="1" stop-color="rgb(100%, 56.256104%, 30.023193%)" offset="0.789062"/><stop stop-opacity="1" stop-color="rgb(100%, 56.50177%, 30.09491%)" offset="0.792969"/><stop stop-opacity="1" stop-color="rgb(100%, 56.747437%, 30.166626%)" offset="0.796875"/><stop stop-opacity="1" stop-color="rgb(100%, 56.802368%, 30.181885%)" offset="0.8125"/><stop stop-opacity="1" stop-color="rgb(100%, 56.858826%, 30.198669%)" offset="0.875"/><stop stop-opacity="1" stop-color="rgb(100%, 56.858826%, 30.198669%)" offset="1"/></linearGradient><clipPath id="7685e0c130"><rect x="0" width="674" y="0" height="146"/></clipPath><clipPath id="240b59c7b3"><path d="M 0.347656 0.0273438 L 673.847656 0.0273438 L 673.847656 145.527344 L 0.347656 145.527344 Z M 0.347656 0.0273438 " clip-rule="nonzero"/></clipPath><clipPath id="668e04eda7"><rect x="0" width="674" y="0" height="146"/></clipPath><clipPath id="8f3dec7292"><rect x="0" width="674" y="0" height="146"/></clipPath><mask id="7188b8b88c"><g filter="url(#e8b7298bec)"><g transform="matrix(1, 0, 0, 1, 0.000000000000014211, 0)"><g clip-path="url(#8f3dec7292)"><g clip-path="url(#240b59c7b3)"><g transform="matrix(1, 0, 0, 1, 0.000000000000014211, 0)"><g clip-path="url(#668e04eda7)"><g fill="#000000" fill-opacity="1"><g transform="translate(453.827588, 82.526539)"><g><path d="M 2.078125 0 L 2.078125 -18.90625 L 10.28125 -18.90625 C 12.125 -18.90625 13.601562 -18.40625 14.71875 -17.40625 C 15.832031 -16.40625 16.390625 -15.085938 16.390625 -13.453125 C 16.390625 -11.804688 15.828125 -10.476562 14.703125 -9.46875 C 13.578125 -8.46875 12.101562 -7.96875 10.28125 -7.96875 L 4.15625 -7.96875 L 4.15625 0 Z M 10.125 -17.03125 L 4.15625 -17.03125 L 4.15625 -9.78125 L 10.125 -9.78125 C 11.40625 -9.78125 12.421875 -10.109375 13.171875 -10.765625 C 13.929688 -11.421875 14.3125 -12.304688 14.3125 -13.421875 C 14.3125 -14.535156 13.929688 -15.414062 13.171875 -16.0625 C 12.421875 -16.707031 11.40625 -17.03125 10.125 -17.03125 Z M 10.125 -17.03125 "/></g></g></g><g fill="#000000" fill-opacity="1"><g transform="translate(475.824642, 82.526539)"><g><path d="M 1.703125 0 L 1.703125 -13.53125 L 3.703125 -13.53125 L 3.703125 -11.609375 C 4.097656 -12.304688 4.617188 -12.847656 5.265625 -13.234375 C 5.910156 -13.628906 6.648438 -13.828125 7.484375 -13.828125 C 7.734375 -13.828125 7.957031 -13.8125 8.15625 -13.78125 C 8.351562 -13.757812 8.550781 -13.710938 8.75 -13.640625 L 8.75 -11.796875 C 8.507812 -11.867188 8.269531 -11.925781 8.03125 -11.96875 C 7.800781 -12.019531 7.570312 -12.046875 7.34375 -12.046875 C 6.519531 -12.046875 5.789062 -11.804688 5.15625 -11.328125 C 4.53125 -10.847656 4.046875 -10.160156 3.703125 -9.265625 L 3.703125 0 Z M 1.703125 0 "/></g></g></g><g fill="#000000" fill-opacity="1"><g transform="translate(489.698245, 82.526539)"><g><path d="M 13.09375 -1.4375 C 12.34375 -0.875 11.554688 -0.453125 10.734375 -0.171875 C 9.910156 0.109375 9.015625 0.25 8.046875 0.25 C 7.078125 0.25 6.160156 0.0664062 5.296875 -0.296875 C 4.441406 -0.660156 3.703125 -1.15625 3.078125 -1.78125 C 2.460938 -2.414062 1.972656 -3.160156 1.609375 -4.015625 C 1.253906 -4.867188 1.078125 -5.789062 1.078125 -6.78125 C 1.078125 -7.75 1.253906 -8.65625 1.609375 -9.5 C 1.960938 -10.34375 2.4375 -11.078125 3.03125 -11.703125 C 3.625 -12.335938 4.328125 -12.835938 5.140625 -13.203125 C 5.960938 -13.566406 6.832031 -13.75 7.75 -13.75 C 8.644531 -13.75 9.484375 -13.566406 10.265625 -13.203125 C 11.054688 -12.835938 11.734375 -12.335938 12.296875 -11.703125 C 12.867188 -11.078125 13.316406 -10.34375 13.640625 -9.5 C 13.972656 -8.65625 14.140625 -7.75 14.140625 -6.78125 L 14.140625 -6.15625 L 3.046875 -6.15625 C 3.191406 -4.820312 3.738281 -3.710938 4.6875 -2.828125 C 5.644531 -1.953125 6.789062 -1.515625 8.125 -1.515625 C 8.832031 -1.515625 9.515625 -1.617188 10.171875 -1.828125 C 10.835938 -2.046875 11.398438 -2.351562 11.859375 -2.75 Z M 7.6875 -11.984375 C 6.519531 -11.984375 5.507812 -11.585938 4.65625 -10.796875 C 3.800781 -10.003906 3.285156 -8.988281 3.109375 -7.75 L 12.15625 -7.75 C 11.96875 -8.9375 11.457031 -9.9375 10.625 -10.75 C 9.789062 -11.570312 8.8125 -11.984375 7.6875 -11.984375 Z M 7.6875 -11.984375 "/></g></g></g><g fill="#000000" fill-opacity="1"><g transform="translate(509.455278, 82.526539)"><g><path d="M 8.015625 -1.5625 C 8.734375 -1.5625 9.425781 -1.707031 10.09375 -2 C 10.757812 -2.289062 11.382812 -2.710938 11.96875 -3.265625 L 13.203125 -1.921875 C 12.484375 -1.234375 11.671875 -0.695312 10.765625 -0.3125 C 9.867188 0.0625 8.9375 0.25 7.96875 0.25 C 7.007812 0.25 6.109375 0.0664062 5.265625 -0.296875 C 4.421875 -0.660156 3.691406 -1.15625 3.078125 -1.78125 C 2.460938 -2.414062 1.972656 -3.160156 1.609375 -4.015625 C 1.253906 -4.878906 1.078125 -5.800781 1.078125 -6.78125 C 1.078125 -7.75 1.253906 -8.660156 1.609375 -9.515625 C 1.972656 -10.367188 2.460938 -11.109375 3.078125 -11.734375 C 3.691406 -12.367188 4.421875 -12.867188 5.265625 -13.234375 C 6.109375 -13.609375 7.007812 -13.796875 7.96875 -13.796875 C 8.9375 -13.796875 9.882812 -13.601562 10.8125 -13.21875 C 11.738281 -12.84375 12.550781 -12.320312 13.25 -11.65625 L 11.984375 -10.203125 C 11.441406 -10.765625 10.820312 -11.195312 10.125 -11.5 C 9.425781 -11.8125 8.710938 -11.96875 7.984375 -11.96875 C 7.304688 -11.96875 6.660156 -11.832031 6.046875 -11.5625 C 5.429688 -11.289062 4.90625 -10.921875 4.46875 -10.453125 C 4.03125 -9.984375 3.679688 -9.429688 3.421875 -8.796875 C 3.171875 -8.171875 3.046875 -7.5 3.046875 -6.78125 C 3.046875 -6.039062 3.175781 -5.347656 3.4375 -4.703125 C 3.695312 -4.066406 4.046875 -3.519531 4.484375 -3.0625 C 4.929688 -2.601562 5.460938 -2.238281 6.078125 -1.96875 C 6.691406 -1.695312 7.335938 -1.5625 8.015625 -1.5625 Z M 8.015625 -1.5625 "/></g></g></g><g fill="#000000" fill-opacity="1"><g transform="translate(527.835907, 82.526539)"><g><path d="M 2.703125 -16.125 C 2.335938 -16.125 2.019531 -16.253906 1.75 -16.515625 C 1.476562 -16.785156 1.34375 -17.101562 1.34375 -17.46875 C 1.34375 -17.84375 1.476562 -18.160156 1.75 -18.421875 C 2.019531 -18.679688 2.335938 -18.8125 2.703125 -18.8125 C 3.078125 -18.8125 3.394531 -18.679688 3.65625 -18.421875 C 3.914062 -18.160156 4.046875 -17.84375 4.046875 -17.46875 C 4.046875 -17.101562 3.914062 -16.785156 3.65625 -16.515625 C 3.394531 -16.253906 3.078125 -16.125 2.703125 -16.125 Z M 3.703125 -13.53125 L 3.703125 0 L 1.703125 0 L 1.703125 -13.53125 Z M 3.703125 -13.53125 "/></g></g></g><g fill="#000000" fill-opacity="1"><g transform="translate(537.769229, 82.526539)"><g><path d="M 0.328125 -1.859375 L 1.53125 -3.15625 C 2.144531 -2.582031 2.832031 -2.132812 3.59375 -1.8125 C 4.363281 -1.5 5.144531 -1.34375 5.9375 -1.34375 C 7.019531 -1.34375 7.898438 -1.566406 8.578125 -2.015625 C 9.265625 -2.472656 9.609375 -3.0625 9.609375 -3.78125 C 9.609375 -4.351562 9.40625 -4.804688 9 -5.140625 C 8.59375 -5.472656 7.957031 -5.703125 7.09375 -5.828125 L 4.75 -6.15625 C 3.40625 -6.351562 2.398438 -6.753906 1.734375 -7.359375 C 1.078125 -7.960938 0.75 -8.773438 0.75 -9.796875 C 0.75 -10.929688 1.226562 -11.875 2.1875 -12.625 C 3.144531 -13.375 4.359375 -13.75 5.828125 -13.75 C 6.804688 -13.75 7.726562 -13.601562 8.59375 -13.3125 C 9.46875 -13.019531 10.320312 -12.570312 11.15625 -11.96875 L 10.09375 -10.609375 C 9.34375 -11.109375 8.609375 -11.484375 7.890625 -11.734375 C 7.179688 -11.992188 6.457031 -12.125 5.71875 -12.125 C 4.800781 -12.125 4.050781 -11.914062 3.46875 -11.5 C 2.882812 -11.082031 2.59375 -10.539062 2.59375 -9.875 C 2.59375 -9.300781 2.789062 -8.859375 3.1875 -8.546875 C 3.582031 -8.234375 4.222656 -8.015625 5.109375 -7.890625 L 7.453125 -7.5625 C 8.804688 -7.382812 9.816406 -6.984375 10.484375 -6.359375 C 11.160156 -5.734375 11.5 -4.910156 11.5 -3.890625 C 11.5 -3.316406 11.359375 -2.769531 11.078125 -2.25 C 10.804688 -1.738281 10.421875 -1.296875 9.921875 -0.921875 C 9.429688 -0.554688 8.851562 -0.269531 8.1875 -0.0625 C 7.519531 0.144531 6.796875 0.25 6.015625 0.25 C 4.898438 0.25 3.851562 0.0664062 2.875 -0.296875 C 1.894531 -0.671875 1.046875 -1.191406 0.328125 -1.859375 Z M 0.328125 -1.859375 "/></g></g></g><g fill="#000000" fill-opacity="1"><g transform="translate(554.341647, 82.526539)"><g><path d="M 2.703125 -16.125 C 2.335938 -16.125 2.019531 -16.253906 1.75 -16.515625 C 1.476562 -16.785156 1.34375 -17.101562 1.34375 -17.46875 C 1.34375 -17.84375 1.476562 -18.160156 1.75 -18.421875 C 2.019531 -18.679688 2.335938 -18.8125 2.703125 -18.8125 C 3.078125 -18.8125 3.394531 -18.679688 3.65625 -18.421875 C 3.914062 -18.160156 4.046875 -17.84375 4.046875 -17.46875 C 4.046875 -17.101562 3.914062 -16.785156 3.65625 -16.515625 C 3.394531 -16.253906 3.078125 -16.125 2.703125 -16.125 Z M 3.703125 -13.53125 L 3.703125 0 L 1.703125 0 L 1.703125 -13.53125 Z M 3.703125 -13.53125 "/></g></g></g><g fill="#000000" fill-opacity="1"><g transform="translate(564.274969, 82.526539)"><g><path d="M 1.078125 -6.78125 C 1.078125 -7.75 1.253906 -8.664062 1.609375 -9.53125 C 1.972656 -10.394531 2.460938 -11.140625 3.078125 -11.765625 C 3.703125 -12.398438 4.4375 -12.894531 5.28125 -13.25 C 6.132812 -13.613281 7.035156 -13.796875 7.984375 -13.796875 C 8.941406 -13.796875 9.835938 -13.613281 10.671875 -13.25 C 11.515625 -12.894531 12.242188 -12.398438 12.859375 -11.765625 C 13.484375 -11.140625 13.972656 -10.394531 14.328125 -9.53125 C 14.691406 -8.664062 14.875 -7.75 14.875 -6.78125 C 14.875 -5.789062 14.691406 -4.863281 14.328125 -4 C 13.972656 -3.132812 13.484375 -2.382812 12.859375 -1.75 C 12.242188 -1.125 11.515625 -0.628906 10.671875 -0.265625 C 9.835938 0.0859375 8.941406 0.265625 7.984375 0.265625 C 7.035156 0.265625 6.132812 0.0859375 5.28125 -0.265625 C 4.4375 -0.628906 3.703125 -1.125 3.078125 -1.75 C 2.460938 -2.382812 1.972656 -3.132812 1.609375 -4 C 1.253906 -4.863281 1.078125 -5.789062 1.078125 -6.78125 Z M 7.984375 -1.515625 C 8.671875 -1.515625 9.316406 -1.648438 9.921875 -1.921875 C 10.523438 -2.191406 11.046875 -2.5625 11.484375 -3.03125 C 11.929688 -3.507812 12.28125 -4.066406 12.53125 -4.703125 C 12.78125 -5.347656 12.90625 -6.039062 12.90625 -6.78125 C 12.90625 -7.519531 12.78125 -8.207031 12.53125 -8.84375 C 12.28125 -9.476562 11.929688 -10.03125 11.484375 -10.5 C 11.046875 -10.96875 10.523438 -11.335938 9.921875 -11.609375 C 9.316406 -11.878906 8.671875 -12.015625 7.984375 -12.015625 C 7.304688 -12.015625 6.664062 -11.878906 6.0625 -11.609375 C 5.457031 -11.335938 4.929688 -10.96875 4.484375 -10.5 C 4.046875 -10.03125 3.695312 -9.476562 3.4375 -8.84375 C 3.175781 -8.207031 3.046875 -7.519531 3.046875 -6.78125 C 3.046875 -6.039062 3.171875 -5.347656 3.421875 -4.703125 C 3.679688 -4.066406 4.03125 -3.507812 4.46875 -3.03125 C 4.90625 -2.5625 5.429688 -2.191406 6.046875 -1.921875 C 6.660156 -1.648438 7.304688 -1.515625 7.984375 -1.515625 Z M 7.984375 -1.515625 "/></g></g></g><g fill="#000000" fill-opacity="1"><g transform="translate(584.760682, 82.526539)"><g><path d="M 1.703125 0 L 1.703125 -13.53125 L 3.703125 -13.53125 L 3.703125 -11.9375 C 4.222656 -12.550781 4.84375 -13.015625 5.5625 -13.328125 C 6.28125 -13.640625 7.082031 -13.796875 7.96875 -13.796875 C 9.5 -13.796875 10.75 -13.304688 11.71875 -12.328125 C 12.6875 -11.359375 13.171875 -10.101562 13.171875 -8.5625 L 13.171875 0 L 11.203125 0 L 11.203125 -8.15625 C 11.203125 -9.34375 10.859375 -10.285156 10.171875 -10.984375 C 9.492188 -11.691406 8.578125 -12.046875 7.421875 -12.046875 C 6.609375 -12.046875 5.882812 -11.863281 5.25 -11.5 C 4.613281 -11.144531 4.097656 -10.632812 3.703125 -9.96875 L 3.703125 0 Z M 1.703125 0 "/></g></g></g><g fill="#000000" fill-opacity="1"><g transform="translate(604.112892, 82.526539)"><g><path d="M 2.671875 -2.59375 C 3.046875 -2.59375 3.367188 -2.457031 3.640625 -2.1875 C 3.910156 -1.914062 4.046875 -1.59375 4.046875 -1.21875 C 4.046875 -0.832031 3.910156 -0.503906 3.640625 -0.234375 C 3.367188 0.0234375 3.046875 0.15625 2.671875 0.15625 C 2.296875 0.15625 1.972656 0.0234375 1.703125 -0.234375 C 1.429688 -0.503906 1.296875 -0.832031 1.296875 -1.21875 C 1.296875 -1.59375 1.429688 -1.914062 1.703125 -2.1875 C 1.972656 -2.457031 2.296875 -2.59375 2.671875 -2.59375 Z M 2.671875 -2.59375 "/></g></g></g></g></g></g></g></g></g></mask><clipPath id="90b10a844f"><path d="M 400.097656 0.777344 L 668.59375 0.777344 L 668.59375 144.777344 L 400.097656 144.777344 Z M 400.097656 0.777344 " clip-rule="nonzero"/></clipPath><clipPath id="008967ef35"><rect x="0" width="674" y="0" height="146"/></clipPath><clipPath id="b6b9c7fa37"><rect x="0" width="674" y="0" height="146"/></clipPath></defs><rect x="-81" width="972" fill="#ffffff" y="-80.999999" height="971.999992" fill-opacity="1"/><rect x="-81" width="972" fill="#ffffff" y="-80.999999" height="971.999992" fill-opacity="1"/><g fill="#d9d9d9" fill-opacity="1"><g transform="translate(65.642428, 453.331521)"><g><path d="M 49.40625 -17.59375 C 53.132812 -17.59375 56.625 -18.335938 59.875 -19.828125 C 63.125 -21.316406 66.242188 -23.660156 69.234375 -26.859375 L 82.34375 -13.265625 C 78.082031 -8.578125 72.96875 -4.925781 67 -2.3125 C 61.03125 0.289062 54.847656 1.59375 48.453125 1.59375 C 42.367188 1.59375 36.632812 0.476562 31.25 -1.75 C 25.875 -3.988281 21.238281 -7.023438 17.34375 -10.859375 C 13.457031 -14.703125 10.394531 -19.257812 8.15625 -24.53125 C 5.914062 -29.8125 4.796875 -35.492188 4.796875 -41.578125 C 4.796875 -47.648438 5.914062 -53.320312 8.15625 -58.59375 C 10.394531 -63.875 13.457031 -68.457031 17.34375 -72.34375 C 21.238281 -76.238281 25.875 -79.304688 31.25 -81.546875 C 36.632812 -83.785156 42.367188 -84.90625 48.453125 -84.90625 C 55.054688 -84.90625 61.394531 -83.597656 67.46875 -80.984375 C 73.550781 -78.367188 78.722656 -74.71875 82.984375 -70.03125 L 69.546875 -55.796875 C 66.566406 -59.109375 63.367188 -61.613281 59.953125 -63.3125 C 56.546875 -65.019531 52.867188 -65.875 48.921875 -65.875 C 42.640625 -65.875 37.335938 -63.523438 33.015625 -58.828125 C 28.703125 -54.140625 26.546875 -48.390625 26.546875 -41.578125 C 26.546875 -34.753906 28.753906 -29.050781 33.171875 -24.46875 C 37.597656 -19.882812 43.007812 -17.59375 49.40625 -17.59375 Z M 49.40625 -17.59375 "/></g></g></g><g fill="#d9d9d9" fill-opacity="1"><g transform="translate(142.224101, 453.331521)"><g><path d="M 8.640625 0 L 8.640625 -111.921875 L 30.546875 -116.71875 L 30.546875 -76.75 C 33.734375 -79.414062 37.273438 -81.441406 41.171875 -82.828125 C 45.066406 -84.210938 49.304688 -84.90625 53.890625 -84.90625 C 63.472656 -84.90625 71.359375 -81.8125 77.546875 -75.625 C 83.734375 -69.445312 86.828125 -61.503906 86.828125 -51.796875 L 86.828125 0 L 64.921875 0 L 64.921875 -48.609375 C 64.921875 -53.828125 63.347656 -58.035156 60.203125 -61.234375 C 57.054688 -64.429688 52.867188 -66.03125 47.640625 -66.03125 C 44.023438 -66.03125 40.75 -65.3125 37.8125 -63.875 C 34.882812 -62.4375 32.460938 -60.382812 30.546875 -57.71875 L 30.546875 0 Z M 8.640625 0 "/></g></g></g><g fill="#d9d9d9" fill-opacity="1"><g transform="translate(228.558382, 453.331521)"><g><path d="M 83.296875 -10.390625 C 78.179688 -6.234375 72.929688 -3.195312 67.546875 -1.28125 C 62.171875 0.632812 56.175781 1.59375 49.5625 1.59375 C 43.269531 1.59375 37.378906 0.476562 31.890625 -1.75 C 26.398438 -3.988281 21.65625 -7.023438 17.65625 -10.859375 C 13.664062 -14.703125 10.523438 -19.257812 8.234375 -24.53125 C 5.941406 -29.8125 4.796875 -35.492188 4.796875 -41.578125 C 4.796875 -47.546875 5.890625 -53.164062 8.078125 -58.4375 C 10.265625 -63.71875 13.273438 -68.300781 17.109375 -72.1875 C 20.941406 -76.082031 25.492188 -79.144531 30.765625 -81.375 C 36.046875 -83.613281 41.671875 -84.734375 47.640625 -84.734375 C 53.503906 -84.734375 58.96875 -83.585938 64.03125 -81.296875 C 69.09375 -79.003906 73.460938 -75.882812 77.140625 -71.9375 C 80.816406 -68 83.695312 -63.285156 85.78125 -57.796875 C 87.863281 -52.304688 88.90625 -46.363281 88.90625 -39.96875 L 88.90625 -34.21875 L 26.859375 -34.21875 C 28.347656 -28.988281 31.222656 -24.773438 35.484375 -21.578125 C 39.753906 -18.378906 44.769531 -16.78125 50.53125 -16.78125 C 54.15625 -16.78125 57.566406 -17.367188 60.765625 -18.546875 C 63.960938 -19.722656 66.675781 -21.375 68.90625 -23.5 Z M 47.171875 -66.671875 C 42.160156 -66.671875 37.84375 -65.148438 34.21875 -62.109375 C 30.59375 -59.078125 28.085938 -55.003906 26.703125 -49.890625 L 67.46875 -49.890625 C 66.082031 -54.785156 63.550781 -58.804688 59.875 -61.953125 C 56.195312 -65.097656 51.960938 -66.671875 47.171875 -66.671875 Z M 47.171875 -66.671875 "/></g></g></g><g fill="#d9d9d9" fill-opacity="1"><g transform="translate(313.773512, 453.331521)"><g><path d="M 8.640625 0 L 8.640625 -83.296875 L 30.546875 -83.296875 L 30.546875 -77.0625 C 33.523438 -79.625 36.828125 -81.570312 40.453125 -82.90625 C 44.078125 -84.238281 48.019531 -84.90625 52.28125 -84.90625 C 57.613281 -84.90625 62.4375 -83.8125 66.75 -81.625 C 71.070312 -79.4375 74.617188 -76.375 77.390625 -72.4375 C 80.691406 -76.476562 84.6875 -79.566406 89.375 -81.703125 C 94.070312 -83.835938 99.242188 -84.90625 104.890625 -84.90625 C 114.160156 -84.90625 121.78125 -81.8125 127.75 -75.625 C 133.71875 -69.445312 136.703125 -61.503906 136.703125 -51.796875 L 136.703125 0 L 114.796875 0 L 114.796875 -48.609375 C 114.796875 -53.828125 113.382812 -58.035156 110.5625 -61.234375 C 107.738281 -64.429688 103.925781 -66.03125 99.125 -66.03125 C 95.820312 -66.03125 92.8125 -65.3125 90.09375 -63.875 C 87.375 -62.4375 85.054688 -60.382812 83.140625 -57.71875 C 83.242188 -56.757812 83.347656 -55.800781 83.453125 -54.84375 C 83.566406 -53.882812 83.625 -52.867188 83.625 -51.796875 L 83.625 0 L 61.71875 0 L 61.71875 -48.609375 C 61.71875 -53.828125 60.304688 -58.035156 57.484375 -61.234375 C 54.660156 -64.429688 50.847656 -66.03125 46.046875 -66.03125 C 42.742188 -66.03125 39.8125 -65.390625 37.25 -64.109375 C 34.695312 -62.835938 32.460938 -60.972656 30.546875 -58.515625 L 30.546875 0 Z M 8.640625 0 "/></g></g></g><g fill="#d9d9d9" fill-opacity="1"><g transform="translate(450.149882, 453.331521)"><g><path d="M 19.984375 -23.5 L 19.984375 -64.921875 L 2.875 -64.921875 L 2.875 -83.296875 L 19.984375 -83.296875 L 19.984375 -104.5625 L 41.890625 -109.53125 L 41.890625 -83.296875 L 65.5625 -83.296875 L 65.5625 -64.921875 L 41.890625 -64.921875 L 41.890625 -27.984375 C 41.890625 -24.035156 42.742188 -21.257812 44.453125 -19.65625 C 46.160156 -18.0625 49.144531 -17.265625 53.40625 -17.265625 C 55.425781 -17.265625 57.34375 -17.394531 59.15625 -17.65625 C 60.96875 -17.925781 62.941406 -18.4375 65.078125 -19.1875 L 65.078125 -1.28125 C 62.734375 -0.53125 59.90625 0.0820312 56.59375 0.5625 C 53.289062 1.039062 50.46875 1.28125 48.125 1.28125 C 38.851562 1.28125 31.84375 -0.820312 27.09375 -5.03125 C 22.351562 -9.25 19.984375 -15.40625 19.984375 -23.5 Z M 19.984375 -23.5 "/></g></g></g><g fill="#d9d9d9" fill-opacity="1"><g transform="translate(599.478339, 453.331521)"><g><path d="M 8.640625 0 L 8.640625 -83.296875 L 30.546875 -83.296875 L 30.546875 -77.0625 C 33.523438 -79.625 36.828125 -81.570312 40.453125 -82.90625 C 44.078125 -84.238281 48.019531 -84.90625 52.28125 -84.90625 C 57.613281 -84.90625 62.4375 -83.8125 66.75 -81.625 C 71.070312 -79.4375 74.617188 -76.375 77.390625 -72.4375 C 80.691406 -76.476562 84.6875 -79.566406 89.375 -81.703125 C 94.070312 -83.835938 99.242188 -84.90625 104.890625 -84.90625 C 114.160156 -84.90625 121.78125 -81.8125 127.75 -75.625 C 133.71875 -69.445312 136.703125 -61.503906 136.703125 -51.796875 L 136.703125 0 L 114.796875 0 L 114.796875 -48.609375 C 114.796875 -53.828125 113.382812 -58.035156 110.5625 -61.234375 C 107.738281 -64.429688 103.925781 -66.03125 99.125 -66.03125 C 95.820312 -66.03125 92.8125 -65.3125 90.09375 -63.875 C 87.375 -62.4375 85.054688 -60.382812 83.140625 -57.71875 C 83.242188 -56.757812 83.347656 -55.800781 83.453125 -54.84375 C 83.566406 -53.882812 83.625 -52.867188 83.625 -51.796875 L 83.625 0 L 61.71875 0 L 61.71875 -48.609375 C 61.71875 -53.828125 60.304688 -58.035156 57.484375 -61.234375 C 54.660156 -64.429688 50.847656 -66.03125 46.046875 -66.03125 C 42.742188 -66.03125 39.8125 -65.390625 37.25 -64.109375 C 34.695312 -62.835938 32.460938 -60.972656 30.546875 -58.515625 L 30.546875 0 Z M 8.640625 0 "/></g></g></g><g transform="matrix(1, 0, 0, 1, 0, 0.000000000000039746)"><g clip-path="url(#7004d5a288)"><g mask="url(#c49f88e02f)"><g transform="matrix(1, 0, 0, 1, 0, 0.000000000000039746)"><g clip-path="url(#30d2ac5bd1)"><path fill="url(#d3494ede35)" d="M 190 0 L 190 810 L 810 810 L 810 0 Z M 190 0 " fill-rule="nonzero"/></g></g></g></g></g><g fill="#b4b4b4" fill-opacity="1"><g transform="translate(134.92526, 502.526539)"><g><path d="M 7.125 0 L 5.015625 0 L 0.9375 -18.90625 L 3.046875 -18.90625 L 6.265625 -3.296875 L 10.9375 -18.90625 L 12.953125 -18.90625 L 17.625 -3.34375 L 20.875 -18.90625 L 22.890625 -18.90625 L 18.8125 0 L 16.71875 0 L 11.9375 -16.015625 Z M 7.125 0 "/></g></g></g><g fill="#b4b4b4" fill-opacity="1"><g transform="translate(163.264538, 502.526539)"><g><path d="M 1.703125 0 L 1.703125 -18.90625 L 3.703125 -19.359375 L 3.703125 -11.9375 C 4.222656 -12.550781 4.84375 -13.015625 5.5625 -13.328125 C 6.28125 -13.640625 7.082031 -13.796875 7.96875 -13.796875 C 9.5 -13.796875 10.75 -13.304688 11.71875 -12.328125 C 12.6875 -11.359375 13.171875 -10.101562 13.171875 -8.5625 L 13.171875 0 L 11.203125 0 L 11.203125 -8.15625 C 11.203125 -9.34375 10.859375 -10.285156 10.171875 -10.984375 C 9.492188 -11.691406 8.578125 -12.046875 7.421875 -12.046875 C 6.609375 -12.046875 5.882812 -11.863281 5.25 -11.5 C 4.613281 -11.144531 4.097656 -10.632812 3.703125 -9.96875 L 3.703125 0 Z M 1.703125 0 "/></g></g></g><g fill="#b4b4b4" fill-opacity="1"><g transform="translate(182.616748, 502.526539)"><g><path d="M 13.09375 -1.4375 C 12.34375 -0.875 11.554688 -0.453125 10.734375 -0.171875 C 9.910156 0.109375 9.015625 0.25 8.046875 0.25 C 7.078125 0.25 6.160156 0.0664062 5.296875 -0.296875 C 4.441406 -0.660156 3.703125 -1.15625 3.078125 -1.78125 C 2.460938 -2.414062 1.972656 -3.160156 1.609375 -4.015625 C 1.253906 -4.867188 1.078125 -5.789062 1.078125 -6.78125 C 1.078125 -7.75 1.253906 -8.65625 1.609375 -9.5 C 1.960938 -10.34375 2.4375 -11.078125 3.03125 -11.703125 C 3.625 -12.335938 4.328125 -12.835938 5.140625 -13.203125 C 5.960938 -13.566406 6.832031 -13.75 7.75 -13.75 C 8.644531 -13.75 9.484375 -13.566406 10.265625 -13.203125 C 11.054688 -12.835938 11.734375 -12.335938 12.296875 -11.703125 C 12.867188 -11.078125 13.316406 -10.34375 13.640625 -9.5 C 13.972656 -8.65625 14.140625 -7.75 14.140625 -6.78125 L 14.140625 -6.15625 L 3.046875 -6.15625 C 3.191406 -4.820312 3.738281 -3.710938 4.6875 -2.828125 C 5.644531 -1.953125 6.789062 -1.515625 8.125 -1.515625 C 8.832031 -1.515625 9.515625 -1.617188 10.171875 -1.828125 C 10.835938 -2.046875 11.398438 -2.351562 11.859375 -2.75 Z M 7.6875 -11.984375 C 6.519531 -11.984375 5.507812 -11.585938 4.65625 -10.796875 C 3.800781 -10.003906 3.285156 -8.988281 3.109375 -7.75 L 12.15625 -7.75 C 11.96875 -8.9375 11.457031 -9.9375 10.625 -10.75 C 9.789062 -11.570312 8.8125 -11.984375 7.6875 -11.984375 Z M 7.6875 -11.984375 "/></g></g></g><g fill="#b4b4b4" fill-opacity="1"><g transform="translate(202.373781, 502.526539)"><g><path d="M 1.703125 0 L 1.703125 -13.53125 L 3.703125 -13.53125 L 3.703125 -11.609375 C 4.097656 -12.304688 4.617188 -12.847656 5.265625 -13.234375 C 5.910156 -13.628906 6.648438 -13.828125 7.484375 -13.828125 C 7.734375 -13.828125 7.957031 -13.8125 8.15625 -13.78125 C 8.351562 -13.757812 8.550781 -13.710938 8.75 -13.640625 L 8.75 -11.796875 C 8.507812 -11.867188 8.269531 -11.925781 8.03125 -11.96875 C 7.800781 -12.019531 7.570312 -12.046875 7.34375 -12.046875 C 6.519531 -12.046875 5.789062 -11.804688 5.15625 -11.328125 C 4.53125 -10.847656 4.046875 -10.160156 3.703125 -9.265625 L 3.703125 0 Z M 1.703125 0 "/></g></g></g><g fill="#b4b4b4" fill-opacity="1"><g transform="translate(216.247384, 502.526539)"><g><path d="M 13.09375 -1.4375 C 12.34375 -0.875 11.554688 -0.453125 10.734375 -0.171875 C 9.910156 0.109375 9.015625 0.25 8.046875 0.25 C 7.078125 0.25 6.160156 0.0664062 5.296875 -0.296875 C 4.441406 -0.660156 3.703125 -1.15625 3.078125 -1.78125 C 2.460938 -2.414062 1.972656 -3.160156 1.609375 -4.015625 C 1.253906 -4.867188 1.078125 -5.789062 1.078125 -6.78125 C 1.078125 -7.75 1.253906 -8.65625 1.609375 -9.5 C 1.960938 -10.34375 2.4375 -11.078125 3.03125 -11.703125 C 3.625 -12.335938 4.328125 -12.835938 5.140625 -13.203125 C 5.960938 -13.566406 6.832031 -13.75 7.75 -13.75 C 8.644531 -13.75 9.484375 -13.566406 10.265625 -13.203125 C 11.054688 -12.835938 11.734375 -12.335938 12.296875 -11.703125 C 12.867188 -11.078125 13.316406 -10.34375 13.640625 -9.5 C 13.972656 -8.65625 14.140625 -7.75 14.140625 -6.78125 L 14.140625 -6.15625 L 3.046875 -6.15625 C 3.191406 -4.820312 3.738281 -3.710938 4.6875 -2.828125 C 5.644531 -1.953125 6.789062 -1.515625 8.125 -1.515625 C 8.832031 -1.515625 9.515625 -1.617188 10.171875 -1.828125 C 10.835938 -2.046875 11.398438 -2.351562 11.859375 -2.75 Z M 7.6875 -11.984375 C 6.519531 -11.984375 5.507812 -11.585938 4.65625 -10.796875 C 3.800781 -10.003906 3.285156 -8.988281 3.109375 -7.75 L 12.15625 -7.75 C 11.96875 -8.9375 11.457031 -9.9375 10.625 -10.75 C 9.789062 -11.570312 8.8125 -11.984375 7.6875 -11.984375 Z M 7.6875 -11.984375 "/></g></g></g><g fill="#b4b4b4" fill-opacity="1"><g transform="translate(236.004417, 502.526539)"><g/></g></g><g fill="#d9d9d9" fill-opacity="1"><g transform="translate(410.268996, 502.526539)"><g/></g></g><g fill="#b4b4b4" fill-opacity="1"><g transform="translate(420.616656, 502.526539)"><g><path d="M 11.421875 -1.34375 L 4.015625 -16.5 L 4.015625 0 L 2.078125 0 L 2.078125 -18.90625 L 5 -18.90625 L 11.453125 -5.484375 L 17.875 -18.90625 L 20.796875 -18.90625 L 20.796875 0 L 18.8125 0 L 18.8125 -16.53125 Z M 11.421875 -1.34375 "/></g></g></g><g fill="#b4b4b4" fill-opacity="1"><g transform="translate(448.011349, 502.526539)"><g><path d="M 13.09375 -1.4375 C 12.34375 -0.875 11.554688 -0.453125 10.734375 -0.171875 C 9.910156 0.109375 9.015625 0.25 8.046875 0.25 C 7.078125 0.25 6.160156 0.0664062 5.296875 -0.296875 C 4.441406 -0.660156 3.703125 -1.15625 3.078125 -1.78125 C 2.460938 -2.414062 1.972656 -3.160156 1.609375 -4.015625 C 1.253906 -4.867188 1.078125 -5.789062 1.078125 -6.78125 C 1.078125 -7.75 1.253906 -8.65625 1.609375 -9.5 C 1.960938 -10.34375 2.4375 -11.078125 3.03125 -11.703125 C 3.625 -12.335938 4.328125 -12.835938 5.140625 -13.203125 C 5.960938 -13.566406 6.832031 -13.75 7.75 -13.75 C 8.644531 -13.75 9.484375 -13.566406 10.265625 -13.203125 C 11.054688 -12.835938 11.734375 -12.335938 12.296875 -11.703125 C 12.867188 -11.078125 13.316406 -10.34375 13.640625 -9.5 C 13.972656 -8.65625 14.140625 -7.75 14.140625 -6.78125 L 14.140625 -6.15625 L 3.046875 -6.15625 C 3.191406 -4.820312 3.738281 -3.710938 4.6875 -2.828125 C 5.644531 -1.953125 6.789062 -1.515625 8.125 -1.515625 C 8.832031 -1.515625 9.515625 -1.617188 10.171875 -1.828125 C 10.835938 -2.046875 11.398438 -2.351562 11.859375 -2.75 Z M 7.6875 -11.984375 C 6.519531 -11.984375 5.507812 -11.585938 4.65625 -10.796875 C 3.800781 -10.003906 3.285156 -8.988281 3.109375 -7.75 L 12.15625 -7.75 C 11.96875 -8.9375 11.457031 -9.9375 10.625 -10.75 C 9.789062 -11.570312 8.8125 -11.984375 7.6875 -11.984375 Z M 7.6875 -11.984375 "/></g></g></g><g fill="#b4b4b4" fill-opacity="1"><g transform="translate(467.768382, 502.526539)"><g><path d="M 13.09375 -1.4375 C 12.34375 -0.875 11.554688 -0.453125 10.734375 -0.171875 C 9.910156 0.109375 9.015625 0.25 8.046875 0.25 C 7.078125 0.25 6.160156 0.0664062 5.296875 -0.296875 C 4.441406 -0.660156 3.703125 -1.15625 3.078125 -1.78125 C 2.460938 -2.414062 1.972656 -3.160156 1.609375 -4.015625 C 1.253906 -4.867188 1.078125 -5.789062 1.078125 -6.78125 C 1.078125 -7.75 1.253906 -8.65625 1.609375 -9.5 C 1.960938 -10.34375 2.4375 -11.078125 3.03125 -11.703125 C 3.625 -12.335938 4.328125 -12.835938 5.140625 -13.203125 C 5.960938 -13.566406 6.832031 -13.75 7.75 -13.75 C 8.644531 -13.75 9.484375 -13.566406 10.265625 -13.203125 C 11.054688 -12.835938 11.734375 -12.335938 12.296875 -11.703125 C 12.867188 -11.078125 13.316406 -10.34375 13.640625 -9.5 C 13.972656 -8.65625 14.140625 -7.75 14.140625 -6.78125 L 14.140625 -6.15625 L 3.046875 -6.15625 C 3.191406 -4.820312 3.738281 -3.710938 4.6875 -2.828125 C 5.644531 -1.953125 6.789062 -1.515625 8.125 -1.515625 C 8.832031 -1.515625 9.515625 -1.617188 10.171875 -1.828125 C 10.835938 -2.046875 11.398438 -2.351562 11.859375 -2.75 Z M 7.6875 -11.984375 C 6.519531 -11.984375 5.507812 -11.585938 4.65625 -10.796875 C 3.800781 -10.003906 3.285156 -8.988281 3.109375 -7.75 L 12.15625 -7.75 C 11.96875 -8.9375 11.457031 -9.9375 10.625 -10.75 C 9.789062 -11.570312 8.8125 -11.984375 7.6875 -11.984375 Z M 7.6875 -11.984375 "/></g></g></g><g fill="#b4b4b4" fill-opacity="1"><g transform="translate(487.525415, 502.526539)"><g><path d="M 3.375 -3.03125 L 3.375 -11.828125 L 0.453125 -11.828125 L 0.453125 -13.53125 L 3.375 -13.53125 L 3.375 -16.953125 L 5.34375 -17.46875 L 5.34375 -13.53125 L 9.421875 -13.53125 L 9.421875 -11.828125 L 5.34375 -11.828125 L 5.34375 -3.53125 C 5.34375 -2.8125 5.503906 -2.296875 5.828125 -1.984375 C 6.148438 -1.671875 6.679688 -1.515625 7.421875 -1.515625 C 7.796875 -1.515625 8.132812 -1.539062 8.4375 -1.59375 C 8.738281 -1.644531 9.054688 -1.734375 9.390625 -1.859375 L 9.390625 -0.109375 C 9.054688 0.015625 8.675781 0.101562 8.25 0.15625 C 7.820312 0.21875 7.410156 0.25 7.015625 0.25 C 5.847656 0.25 4.945312 -0.03125 4.3125 -0.59375 C 3.6875 -1.15625 3.375 -1.96875 3.375 -3.03125 Z M 3.375 -3.03125 "/></g></g></g><g fill="#b4b4b4" fill-opacity="1"><g transform="translate(501.911794, 502.526539)"><g><path d="M 0.328125 -1.859375 L 1.53125 -3.15625 C 2.144531 -2.582031 2.832031 -2.132812 3.59375 -1.8125 C 4.363281 -1.5 5.144531 -1.34375 5.9375 -1.34375 C 7.019531 -1.34375 7.898438 -1.566406 8.578125 -2.015625 C 9.265625 -2.472656 9.609375 -3.0625 9.609375 -3.78125 C 9.609375 -4.351562 9.40625 -4.804688 9 -5.140625 C 8.59375 -5.472656 7.957031 -5.703125 7.09375 -5.828125 L 4.75 -6.15625 C 3.40625 -6.351562 2.398438 -6.753906 1.734375 -7.359375 C 1.078125 -7.960938 0.75 -8.773438 0.75 -9.796875 C 0.75 -10.929688 1.226562 -11.875 2.1875 -12.625 C 3.144531 -13.375 4.359375 -13.75 5.828125 -13.75 C 6.804688 -13.75 7.726562 -13.601562 8.59375 -13.3125 C 9.46875 -13.019531 10.320312 -12.570312 11.15625 -11.96875 L 10.09375 -10.609375 C 9.34375 -11.109375 8.609375 -11.484375 7.890625 -11.734375 C 7.179688 -11.992188 6.457031 -12.125 5.71875 -12.125 C 4.800781 -12.125 4.050781 -11.914062 3.46875 -11.5 C 2.882812 -11.082031 2.59375 -10.539062 2.59375 -9.875 C 2.59375 -9.300781 2.789062 -8.859375 3.1875 -8.546875 C 3.582031 -8.234375 4.222656 -8.015625 5.109375 -7.890625 L 7.453125 -7.5625 C 8.804688 -7.382812 9.816406 -6.984375 10.484375 -6.359375 C 11.160156 -5.734375 11.5 -4.910156 11.5 -3.890625 C 11.5 -3.316406 11.359375 -2.769531 11.078125 -2.25 C 10.804688 -1.738281 10.421875 -1.296875 9.921875 -0.921875 C 9.429688 -0.554688 8.851562 -0.269531 8.1875 -0.0625 C 7.519531 0.144531 6.796875 0.25 6.015625 0.25 C 4.898438 0.25 3.851562 0.0664062 2.875 -0.296875 C 1.894531 -0.671875 1.046875 -1.191406 0.328125 -1.859375 Z M 0.328125 -1.859375 "/></g></g></g><g fill="#b4b4b4" fill-opacity="1"><g transform="translate(518.484212, 502.526539)"><g/></g></g><g clip-path="url(#e9280055ba)"><g transform="matrix(1, 0, 0, 1, 75, 420)"><g clip-path="url(#a410a72c9c)"><g clip-path="url(#073f32ae16)"><g mask="url(#ec4182bcd2)"><g transform="matrix(1, 0, 0, 1, 0.000000000000014211, 0)"><g clip-path="url(#7343bdd2e9)"><g clip-path="url(#5f163b22da)"><path fill="url(#e22790ecf2)" d="M 117.347656 0.777344 L 117.347656 144.777344 L 389.59375 144.777344 L 389.59375 0.777344 Z M 117.347656 0.777344 " fill-rule="nonzero"/></g></g></g></g></g></g></g><g transform="matrix(1, 0, 0, 1, 75, 420)"><g clip-path="url(#b6b9c7fa37)"><g clip-path="url(#7de04321aa)"><g mask="url(#7188b8b88c)"><g transform="matrix(1, 0, 0, 1, 0.000000000000014211, 0)"><g clip-path="url(#008967ef35)"><g clip-path="url(#90b10a844f)"><path fill="url(#8608fc1548)" d="M 400.097656 0.777344 L 400.097656 144.777344 L 668.59375 144.777344 L 668.59375 0.777344 Z M 400.097656 0.777344 " fill-rule="nonzero"/></g></g></g></g></g></g></g></g></svg>