<svg xmlns="http://www.w3.org/2000/svg" xmlns:xlink="http://www.w3.org/1999/xlink" width="600" zoomAndPan="magnify" viewBox="0 0 450 149.999998" height="200" preserveAspectRatio="xMidYMid meet" version="1.0"><defs><filter x="0%" y="0%" width="100%" height="100%" id="50af2af179"><feColorMatrix values="0 0 0 0 1 0 0 0 0 1 0 0 0 0 1 0 0 0 1 0" color-interpolation-filters="sRGB"/></filter><g/><clipPath id="925f162008"><path d="M 83.21875 0 L 450 0 L 450 150 L 83.21875 150 Z M 83.21875 0 " clip-rule="nonzero"/></clipPath><linearGradient x1="91.139" gradientTransform="matrix(0.945483, 0, 0, 0.944885, -2.949979, -4.179417)" y1="77.5" x2="479.06727" gradientUnits="userSpaceOnUse" y2="77.5" id="6da0c9895c"><stop stop-opacity="1" stop-color="rgb(100%, 19.219971%, 19.219971%)" offset="0"/><stop stop-opacity="1" stop-color="rgb(100%, 19.219971%, 19.219971%)" offset="0.5"/><stop stop-opacity="1" stop-color="rgb(100%, 19.219971%, 19.219971%)" offset="0.5625"/><stop stop-opacity="1" stop-color="rgb(100%, 19.219971%, 19.219971%)" offset="0.570312"/><stop stop-opacity="1" stop-color="rgb(100%, 19.726562%, 19.367981%)" offset="0.574219"/><stop stop-opacity="1" stop-color="rgb(100%, 20.23468%, 19.515991%)" offset="0.578125"/><stop stop-opacity="1" stop-color="rgb(100%, 21.144104%, 19.781494%)" offset="0.582031"/><stop stop-opacity="1" stop-color="rgb(100%, 22.055054%, 20.046997%)" offset="0.585938"/><stop stop-opacity="1" stop-color="rgb(100%, 22.966003%, 20.3125%)" offset="0.589844"/><stop stop-opacity="1" stop-color="rgb(100%, 23.876953%, 20.578003%)" offset="0.59375"/><stop stop-opacity="1" stop-color="rgb(100%, 24.786377%, 20.843506%)" offset="0.597656"/><stop stop-opacity="1" stop-color="rgb(100%, 25.697327%, 21.109009%)" offset="0.601563"/><stop stop-opacity="1" stop-color="rgb(100%, 26.60675%, 21.374512%)" offset="0.605469"/><stop stop-opacity="1" stop-color="rgb(100%, 27.5177%, 21.640015%)" offset="0.609375"/><stop stop-opacity="1" stop-color="rgb(100%, 28.427124%, 21.905518%)" offset="0.613281"/><stop stop-opacity="1" stop-color="rgb(100%, 29.338074%, 22.171021%)" offset="0.617188"/><stop stop-opacity="1" stop-color="rgb(100%, 30.247498%, 22.436523%)" offset="0.621094"/><stop stop-opacity="1" stop-color="rgb(100%, 31.158447%, 22.702026%)" offset="0.625"/><stop stop-opacity="1" stop-color="rgb(100%, 32.069397%, 22.967529%)" offset="0.628906"/><stop stop-opacity="1" stop-color="rgb(100%, 32.980347%, 23.233032%)" offset="0.632812"/><stop stop-opacity="1" stop-color="rgb(100%, 33.889771%, 23.498535%)" offset="0.636719"/><stop stop-opacity="1" stop-color="rgb(100%, 34.80072%, 23.764038%)" offset="0.640625"/><stop stop-opacity="1" stop-color="rgb(100%, 35.710144%, 24.029541%)" offset="0.644531"/><stop stop-opacity="1" stop-color="rgb(100%, 36.621094%, 24.295044%)" offset="0.648438"/><stop stop-opacity="1" stop-color="rgb(100%, 37.530518%, 24.560547%)" offset="0.652344"/><stop stop-opacity="1" stop-color="rgb(100%, 38.441467%, 24.82605%)" offset="0.65625"/><stop stop-opacity="1" stop-color="rgb(100%, 39.350891%, 25.091553%)" offset="0.660156"/><stop stop-opacity="1" stop-color="rgb(100%, 40.261841%, 25.357056%)" offset="0.664062"/><stop stop-opacity="1" stop-color="rgb(100%, 41.172791%, 25.622559%)" offset="0.667969"/><stop stop-opacity="1" stop-color="rgb(100%, 42.08374%, 25.889587%)" offset="0.671875"/><stop stop-opacity="1" stop-color="rgb(100%, 42.993164%, 26.15509%)" offset="0.675781"/><stop stop-opacity="1" stop-color="rgb(100%, 43.904114%, 26.420593%)" offset="0.679688"/><stop stop-opacity="1" stop-color="rgb(100%, 44.813538%, 26.686096%)" offset="0.683594"/><stop stop-opacity="1" stop-color="rgb(100%, 45.724487%, 26.951599%)" offset="0.6875"/><stop stop-opacity="1" stop-color="rgb(100%, 46.633911%, 27.217102%)" offset="0.691406"/><stop stop-opacity="1" stop-color="rgb(100%, 47.544861%, 27.482605%)" offset="0.695312"/><stop stop-opacity="1" stop-color="rgb(100%, 48.454285%, 27.748108%)" offset="0.699219"/><stop stop-opacity="1" stop-color="rgb(100%, 49.365234%, 28.013611%)" offset="0.703125"/><stop stop-opacity="1" stop-color="rgb(100%, 50.274658%, 28.279114%)" offset="0.707031"/><stop stop-opacity="1" stop-color="rgb(100%, 51.185608%, 28.544617%)" offset="0.710938"/><stop stop-opacity="1" stop-color="rgb(100%, 52.096558%, 28.81012%)" offset="0.714844"/><stop stop-opacity="1" stop-color="rgb(100%, 53.007507%, 29.075623%)" offset="0.71875"/><stop stop-opacity="1" stop-color="rgb(100%, 53.916931%, 29.341125%)" offset="0.722656"/><stop stop-opacity="1" stop-color="rgb(100%, 54.827881%, 29.606628%)" offset="0.726563"/><stop stop-opacity="1" stop-color="rgb(100%, 55.737305%, 29.872131%)" offset="0.730469"/><stop stop-opacity="1" stop-color="rgb(100%, 56.648254%, 30.137634%)" offset="0.734375"/><stop stop-opacity="1" stop-color="rgb(100%, 56.75354%, 30.168152%)" offset="0.75"/><stop stop-opacity="1" stop-color="rgb(100%, 56.858826%, 30.198669%)" offset="1"/></linearGradient><clipPath id="e5bc249166"><rect x="0" width="450" y="0" height="150"/></clipPath><clipPath id="fb1251bcbf"><rect x="0" width="450" y="0" height="150"/></clipPath><clipPath id="acae8909cf"><rect x="0" width="450" y="0" height="150"/></clipPath><mask id="5ad9f5c34f"><g filter="url(#50af2af179)"><g transform="matrix(1, 0, 0, 1, 0, -0.000000000000007527)"><g clip-path="url(#acae8909cf)"><g transform="matrix(1, 0, 0, 1, 0, -0.000000000000007527)"><g clip-path="url(#fb1251bcbf)"><g fill="#000000" fill-opacity="1"><g transform="translate(293.720902, 106.854738)"><g><path d="M 3.15625 -27.34375 C 3.15625 -31.34375 3.90625 -35.078125 5.40625 -38.546875 C 6.914062 -42.023438 8.984375 -45.039062 11.609375 -47.59375 C 14.242188 -50.15625 17.347656 -52.171875 20.921875 -53.640625 C 24.503906 -55.117188 28.328125 -55.859375 32.390625 -55.859375 C 36.460938 -55.859375 40.285156 -55.117188 43.859375 -53.640625 C 47.441406 -52.171875 50.546875 -50.15625 53.171875 -47.59375 C 55.796875 -45.039062 57.863281 -42.023438 59.375 -38.546875 C 60.882812 -35.078125 61.640625 -31.34375 61.640625 -27.34375 C 61.640625 -23.351562 60.882812 -19.617188 59.375 -16.140625 C 57.863281 -12.671875 55.796875 -9.671875 53.171875 -7.140625 C 50.546875 -4.617188 47.441406 -2.625 43.859375 -1.15625 C 40.285156 0.3125 36.460938 1.046875 32.390625 1.046875 C 28.328125 1.046875 24.503906 0.3125 20.921875 -1.15625 C 17.347656 -2.625 14.242188 -4.617188 11.609375 -7.140625 C 8.984375 -9.671875 6.914062 -12.671875 5.40625 -16.140625 C 3.90625 -19.617188 3.15625 -23.351562 3.15625 -27.34375 Z M 32.390625 -11.46875 C 36.597656 -11.46875 40.175781 -13.007812 43.125 -16.09375 C 46.070312 -19.175781 47.546875 -22.925781 47.546875 -27.34375 C 47.546875 -31.832031 46.070312 -35.617188 43.125 -38.703125 C 40.175781 -41.796875 36.597656 -43.34375 32.390625 -43.34375 C 28.191406 -43.34375 24.617188 -41.796875 21.671875 -38.703125 C 18.722656 -35.617188 17.25 -31.832031 17.25 -27.34375 C 17.25 -22.925781 18.722656 -19.175781 21.671875 -16.09375 C 24.617188 -13.007812 28.191406 -11.46875 32.390625 -11.46875 Z M 32.390625 -11.46875 "/></g></g></g></g></g></g></g></g></mask><clipPath id="0c2bfb201d"><path d="M 83.21875 0 L 450 0 L 450 150 L 83.21875 150 Z M 83.21875 0 " clip-rule="nonzero"/></clipPath><clipPath id="959f97657e"><rect x="0" width="450" y="0" height="150"/></clipPath><clipPath id="3e2787e8a0"><rect x="0" width="450" y="0" height="150"/></clipPath><clipPath id="2780e615d9"><rect x="0" width="450" y="0" height="150"/></clipPath><clipPath id="4d4efdc217"><rect x="0" width="367" y="0" height="25"/></clipPath></defs><rect x="-45" width="540" fill="#ffffff" y="-15" height="179.999997" fill-opacity="1"/><rect x="-45" width="540" fill="#ffffff" y="-15" height="179.999997" fill-opacity="1"/><g transform="matrix(1, 0, 0, 1, 0, -0.000000000000007527)"><g clip-path="url(#2780e615d9)"><g fill="#222222" fill-opacity="1"><g transform="translate(1.746331, 106.854738)"><g><path d="M 32.5 -11.578125 C 34.957031 -11.578125 37.253906 -12.066406 39.390625 -13.046875 C 41.523438 -14.023438 43.578125 -15.566406 45.546875 -17.671875 L 54.171875 -8.734375 C 51.367188 -5.648438 48.003906 -3.25 44.078125 -1.53125 C 40.148438 0.1875 36.082031 1.046875 31.875 1.046875 C 27.875 1.046875 24.101562 0.3125 20.5625 -1.15625 C 17.019531 -2.625 13.96875 -4.617188 11.40625 -7.140625 C 8.851562 -9.671875 6.835938 -12.671875 5.359375 -16.140625 C 3.890625 -19.617188 3.15625 -23.351562 3.15625 -27.34375 C 3.15625 -31.34375 3.890625 -35.078125 5.359375 -38.546875 C 6.835938 -42.023438 8.851562 -45.039062 11.40625 -47.59375 C 13.96875 -50.15625 17.019531 -52.171875 20.5625 -53.640625 C 24.101562 -55.117188 27.875 -55.859375 31.875 -55.859375 C 36.21875 -55.859375 40.390625 -55 44.390625 -53.28125 C 48.390625 -51.5625 51.789062 -49.160156 54.59375 -46.078125 L 45.75 -36.703125 C 43.789062 -38.878906 41.6875 -40.53125 39.4375 -41.65625 C 37.195312 -42.78125 34.78125 -43.34375 32.1875 -43.34375 C 28.050781 -43.34375 24.5625 -41.796875 21.71875 -38.703125 C 18.882812 -35.617188 17.46875 -31.832031 17.46875 -27.34375 C 17.46875 -22.851562 18.921875 -19.101562 21.828125 -16.09375 C 24.734375 -13.082031 28.289062 -11.578125 32.5 -11.578125 Z M 32.5 -11.578125 "/></g></g></g><g fill="#222222" fill-opacity="1"><g transform="translate(52.12535, 106.854738)"><g><path d="M 5.6875 0 L 5.6875 -73.625 L 20.09375 -76.78125 L 20.09375 -50.484375 C 22.195312 -52.242188 24.523438 -53.578125 27.078125 -54.484375 C 29.640625 -55.398438 32.429688 -55.859375 35.453125 -55.859375 C 41.765625 -55.859375 46.953125 -53.820312 51.015625 -49.75 C 55.078125 -45.6875 57.109375 -40.460938 57.109375 -34.078125 L 57.109375 0 L 42.703125 0 L 42.703125 -31.984375 C 42.703125 -35.410156 41.664062 -38.175781 39.59375 -40.28125 C 37.53125 -42.382812 34.78125 -43.4375 31.34375 -43.4375 C 28.957031 -43.4375 26.800781 -42.960938 24.875 -42.015625 C 22.945312 -41.078125 21.351562 -39.726562 20.09375 -37.96875 L 20.09375 0 Z M 5.6875 0 "/></g></g></g><g fill="#222222" fill-opacity="1"><g transform="translate(108.920136, 106.854738)"><g><path d="M 54.796875 -6.84375 C 51.429688 -4.101562 47.976562 -2.101562 44.4375 -0.84375 C 40.894531 0.414062 36.953125 1.046875 32.609375 1.046875 C 28.472656 1.046875 24.597656 0.3125 20.984375 -1.15625 C 17.367188 -2.625 14.242188 -4.617188 11.609375 -7.140625 C 8.984375 -9.671875 6.914062 -12.671875 5.40625 -16.140625 C 3.90625 -19.617188 3.15625 -23.351562 3.15625 -27.34375 C 3.15625 -31.269531 3.875 -34.96875 5.3125 -38.4375 C 6.75 -41.914062 8.726562 -44.929688 11.25 -47.484375 C 13.78125 -50.046875 16.78125 -52.0625 20.25 -53.53125 C 23.71875 -55.007812 27.414062 -55.75 31.34375 -55.75 C 35.195312 -55.75 38.789062 -54.992188 42.125 -53.484375 C 45.457031 -51.972656 48.332031 -49.921875 50.75 -47.328125 C 53.164062 -44.734375 55.054688 -41.628906 56.421875 -38.015625 C 57.796875 -34.410156 58.484375 -30.503906 58.484375 -26.296875 L 58.484375 -22.515625 L 17.671875 -22.515625 C 18.648438 -19.078125 20.539062 -16.304688 23.34375 -14.203125 C 26.15625 -12.097656 29.453125 -11.046875 33.234375 -11.046875 C 35.617188 -11.046875 37.863281 -11.429688 39.96875 -12.203125 C 42.070312 -12.972656 43.859375 -14.0625 45.328125 -15.46875 Z M 31.03125 -43.859375 C 27.738281 -43.859375 24.898438 -42.859375 22.515625 -40.859375 C 20.128906 -38.867188 18.476562 -36.1875 17.5625 -32.8125 L 44.390625 -32.8125 C 43.472656 -36.039062 41.804688 -38.6875 39.390625 -40.75 C 36.972656 -42.820312 34.1875 -43.859375 31.03125 -43.859375 Z M 31.03125 -43.859375 "/></g></g></g><g fill="#222222" fill-opacity="1"><g transform="translate(164.978681, 106.854738)"><g><path d="M 5.6875 0 L 5.6875 -54.796875 L 20.09375 -54.796875 L 20.09375 -50.703125 C 22.050781 -52.378906 24.222656 -53.65625 26.609375 -54.53125 C 28.992188 -55.414062 31.585938 -55.859375 34.390625 -55.859375 C 37.898438 -55.859375 41.070312 -55.140625 43.90625 -53.703125 C 46.75 -52.265625 49.082031 -50.25 50.90625 -47.65625 C 53.082031 -50.3125 55.710938 -52.34375 58.796875 -53.75 C 61.878906 -55.15625 65.28125 -55.859375 69 -55.859375 C 75.101562 -55.859375 80.117188 -53.820312 84.046875 -49.75 C 87.972656 -45.6875 89.9375 -40.460938 89.9375 -34.078125 L 89.9375 0 L 75.53125 0 L 75.53125 -31.984375 C 75.53125 -35.410156 74.597656 -38.175781 72.734375 -40.28125 C 70.878906 -42.382812 68.375 -43.4375 65.21875 -43.4375 C 63.039062 -43.4375 61.054688 -42.960938 59.265625 -42.015625 C 57.484375 -41.078125 55.960938 -39.726562 54.703125 -37.96875 C 54.765625 -37.34375 54.832031 -36.710938 54.90625 -36.078125 C 54.976562 -35.441406 55.015625 -34.773438 55.015625 -34.078125 L 55.015625 0 L 40.609375 0 L 40.609375 -31.984375 C 40.609375 -35.410156 39.675781 -38.175781 37.8125 -40.28125 C 35.957031 -42.382812 33.453125 -43.4375 30.296875 -43.4375 C 28.117188 -43.4375 26.1875 -43.015625 24.5 -42.171875 C 22.820312 -41.335938 21.351562 -40.113281 20.09375 -38.5 L 20.09375 0 Z M 5.6875 0 "/></g></g></g><g fill="#222222" fill-opacity="1"><g transform="translate(254.693649, 106.854738)"><g><path d="M 13.140625 -15.46875 L 13.140625 -42.703125 L 1.890625 -42.703125 L 1.890625 -54.796875 L 13.140625 -54.796875 L 13.140625 -68.796875 L 27.5625 -72.046875 L 27.5625 -54.796875 L 43.125 -54.796875 L 43.125 -42.703125 L 27.5625 -42.703125 L 27.5625 -18.40625 C 27.5625 -15.8125 28.117188 -13.988281 29.234375 -12.9375 C 30.359375 -11.882812 32.320312 -11.359375 35.125 -11.359375 C 36.457031 -11.359375 37.71875 -11.445312 38.90625 -11.625 C 40.101562 -11.800781 41.40625 -12.132812 42.8125 -12.625 L 42.8125 -0.84375 C 41.269531 -0.351562 39.410156 0.046875 37.234375 0.359375 C 35.054688 0.679688 33.195312 0.84375 31.65625 0.84375 C 25.5625 0.84375 20.953125 -0.539062 17.828125 -3.3125 C 14.703125 -6.082031 13.140625 -10.132812 13.140625 -15.46875 Z M 13.140625 -15.46875 "/></g></g></g><g fill="#222222" fill-opacity="1"><g transform="translate(352.939861, 106.854738)"><g><path d="M 5.6875 0 L 5.6875 -54.796875 L 20.09375 -54.796875 L 20.09375 -50.703125 C 22.050781 -52.378906 24.222656 -53.65625 26.609375 -54.53125 C 28.992188 -55.414062 31.585938 -55.859375 34.390625 -55.859375 C 37.898438 -55.859375 41.070312 -55.140625 43.90625 -53.703125 C 46.75 -52.265625 49.082031 -50.25 50.90625 -47.65625 C 53.082031 -50.3125 55.710938 -52.34375 58.796875 -53.75 C 61.878906 -55.15625 65.28125 -55.859375 69 -55.859375 C 75.101562 -55.859375 80.117188 -53.820312 84.046875 -49.75 C 87.972656 -45.6875 89.9375 -40.460938 89.9375 -34.078125 L 89.9375 0 L 75.53125 0 L 75.53125 -31.984375 C 75.53125 -35.410156 74.597656 -38.175781 72.734375 -40.28125 C 70.878906 -42.382812 68.375 -43.4375 65.21875 -43.4375 C 63.039062 -43.4375 61.054688 -42.960938 59.265625 -42.015625 C 57.484375 -41.078125 55.960938 -39.726562 54.703125 -37.96875 C 54.765625 -37.34375 54.832031 -36.710938 54.90625 -36.078125 C 54.976562 -35.441406 55.015625 -34.773438 55.015625 -34.078125 L 55.015625 0 L 40.609375 0 L 40.609375 -31.984375 C 40.609375 -35.410156 39.675781 -38.175781 37.8125 -40.28125 C 35.957031 -42.382812 33.453125 -43.4375 30.296875 -43.4375 C 28.117188 -43.4375 26.1875 -43.015625 24.5 -42.171875 C 22.820312 -41.335938 21.351562 -40.113281 20.09375 -38.5 L 20.09375 0 Z M 5.6875 0 "/></g></g></g><g transform="matrix(1, 0, 0, 1, 0, -0.000000000000007527)"><g clip-path="url(#3e2787e8a0)"><g mask="url(#5ad9f5c34f)"><g transform="matrix(1, 0, 0, 1, 0, -0.000000000000007527)"><g clip-path="url(#959f97657e)"><g clip-path="url(#0c2bfb201d)"><path fill="url(#6da0c9895c)" d="M 83.21875 0 L 83.21875 150 L 450 150 L 450 0 Z M 83.21875 0 " fill-rule="nonzero"/></g></g></g></g></g></g></g></g><g transform="matrix(1, 0, 0, 1, 46, 120)"><g clip-path="url(#4d4efdc217)"><g fill="#222222" fill-opacity="1"><g transform="translate(1.362104, 18.368377)"><g><path d="M 4.6875 0 L 3.296875 0 L 0.625 -12.4375 L 2 -12.4375 L 4.125 -2.171875 L 7.1875 -12.4375 L 8.53125 -12.4375 L 11.59375 -2.203125 L 13.734375 -12.4375 L 15.0625 -12.4375 L 12.375 0 L 11 0 L 7.859375 -10.53125 Z M 4.6875 0 "/></g></g></g><g fill="#222222" fill-opacity="1"><g transform="translate(20.002266, 18.368377)"><g><path d="M 1.125 0 L 1.125 -12.4375 L 2.4375 -12.734375 L 2.4375 -7.859375 C 2.78125 -8.253906 3.1875 -8.554688 3.65625 -8.765625 C 4.132812 -8.972656 4.660156 -9.078125 5.234375 -9.078125 C 6.242188 -9.078125 7.066406 -8.753906 7.703125 -8.109375 C 8.347656 -7.472656 8.671875 -6.644531 8.671875 -5.625 L 8.671875 0 L 7.375 0 L 7.375 -5.359375 C 7.375 -6.140625 7.144531 -6.757812 6.6875 -7.21875 C 6.238281 -7.6875 5.640625 -7.921875 4.890625 -7.921875 C 4.359375 -7.921875 3.878906 -7.800781 3.453125 -7.5625 C 3.035156 -7.332031 2.695312 -7 2.4375 -6.5625 L 2.4375 0 Z M 1.125 0 "/></g></g></g><g fill="#222222" fill-opacity="1"><g transform="translate(32.731391, 18.368377)"><g><path d="M 8.609375 -0.9375 C 8.117188 -0.570312 7.601562 -0.296875 7.0625 -0.109375 C 6.519531 0.0664062 5.929688 0.15625 5.296875 0.15625 C 4.648438 0.15625 4.046875 0.0390625 3.484375 -0.1875 C 2.921875 -0.425781 2.4375 -0.753906 2.03125 -1.171875 C 1.625 -1.585938 1.300781 -2.078125 1.0625 -2.640625 C 0.820312 -3.203125 0.703125 -3.804688 0.703125 -4.453125 C 0.703125 -5.097656 0.816406 -5.695312 1.046875 -6.25 C 1.285156 -6.8125 1.597656 -7.296875 1.984375 -7.703125 C 2.378906 -8.117188 2.84375 -8.445312 3.375 -8.6875 C 3.914062 -8.925781 4.488281 -9.046875 5.09375 -9.046875 C 5.6875 -9.046875 6.238281 -8.925781 6.75 -8.6875 C 7.269531 -8.445312 7.71875 -8.117188 8.09375 -7.703125 C 8.46875 -7.296875 8.765625 -6.8125 8.984375 -6.25 C 9.203125 -5.695312 9.3125 -5.097656 9.3125 -4.453125 L 9.3125 -4.046875 L 2 -4.046875 C 2.101562 -3.171875 2.46875 -2.441406 3.09375 -1.859375 C 3.71875 -1.285156 4.46875 -1 5.34375 -1 C 5.8125 -1 6.265625 -1.066406 6.703125 -1.203125 C 7.140625 -1.347656 7.503906 -1.550781 7.796875 -1.8125 Z M 5.0625 -7.890625 C 4.289062 -7.890625 3.625 -7.628906 3.0625 -7.109375 C 2.5 -6.585938 2.160156 -5.914062 2.046875 -5.09375 L 8 -5.09375 C 7.875 -5.875 7.535156 -6.535156 6.984375 -7.078125 C 6.441406 -7.617188 5.800781 -7.890625 5.0625 -7.890625 Z M 5.0625 -7.890625 "/></g></g></g><g fill="#222222" fill-opacity="1"><g transform="translate(45.726784, 18.368377)"><g><path d="M 1.125 0 L 1.125 -8.90625 L 2.4375 -8.90625 L 2.4375 -7.640625 C 2.695312 -8.097656 3.039062 -8.453125 3.46875 -8.703125 C 3.894531 -8.960938 4.378906 -9.09375 4.921875 -9.09375 C 5.085938 -9.09375 5.234375 -9.082031 5.359375 -9.0625 C 5.492188 -9.050781 5.625 -9.019531 5.75 -8.96875 L 5.75 -7.765625 C 5.601562 -7.804688 5.453125 -7.84375 5.296875 -7.875 C 5.140625 -7.90625 4.984375 -7.921875 4.828125 -7.921875 C 4.285156 -7.921875 3.804688 -7.765625 3.390625 -7.453125 C 2.972656 -7.140625 2.65625 -6.6875 2.4375 -6.09375 L 2.4375 0 Z M 1.125 0 "/></g></g></g><g fill="#222222" fill-opacity="1"><g transform="translate(54.852489, 18.368377)"><g><path d="M 8.609375 -0.9375 C 8.117188 -0.570312 7.601562 -0.296875 7.0625 -0.109375 C 6.519531 0.0664062 5.929688 0.15625 5.296875 0.15625 C 4.648438 0.15625 4.046875 0.0390625 3.484375 -0.1875 C 2.921875 -0.425781 2.4375 -0.753906 2.03125 -1.171875 C 1.625 -1.585938 1.300781 -2.078125 1.0625 -2.640625 C 0.820312 -3.203125 0.703125 -3.804688 0.703125 -4.453125 C 0.703125 -5.097656 0.816406 -5.695312 1.046875 -6.25 C 1.285156 -6.8125 1.597656 -7.296875 1.984375 -7.703125 C 2.378906 -8.117188 2.84375 -8.445312 3.375 -8.6875 C 3.914062 -8.925781 4.488281 -9.046875 5.09375 -9.046875 C 5.6875 -9.046875 6.238281 -8.925781 6.75 -8.6875 C 7.269531 -8.445312 7.71875 -8.117188 8.09375 -7.703125 C 8.46875 -7.296875 8.765625 -6.8125 8.984375 -6.25 C 9.203125 -5.695312 9.3125 -5.097656 9.3125 -4.453125 L 9.3125 -4.046875 L 2 -4.046875 C 2.101562 -3.171875 2.46875 -2.441406 3.09375 -1.859375 C 3.71875 -1.285156 4.46875 -1 5.34375 -1 C 5.8125 -1 6.265625 -1.066406 6.703125 -1.203125 C 7.140625 -1.347656 7.503906 -1.550781 7.796875 -1.8125 Z M 5.0625 -7.890625 C 4.289062 -7.890625 3.625 -7.628906 3.0625 -7.109375 C 2.5 -6.585938 2.160156 -5.914062 2.046875 -5.09375 L 8 -5.09375 C 7.875 -5.875 7.535156 -6.535156 6.984375 -7.078125 C 6.441406 -7.617188 5.800781 -7.890625 5.0625 -7.890625 Z M 5.0625 -7.890625 "/></g></g></g><g fill="#222222" fill-opacity="1"><g transform="translate(67.847883, 18.368377)"><g/></g></g><g fill="#222222" fill-opacity="1"><g transform="translate(74.648219, 18.368377)"><g><path d="M 7.265625 -1.0625 C 8.035156 -1.0625 8.769531 -1.210938 9.46875 -1.515625 C 10.164062 -1.816406 10.753906 -2.234375 11.234375 -2.765625 L 12.109375 -1.84375 C 11.492188 -1.207031 10.757812 -0.707031 9.90625 -0.34375 C 9.0625 0.0195312 8.171875 0.203125 7.234375 0.203125 C 6.328125 0.203125 5.476562 0.0351562 4.6875 -0.296875 C 3.90625 -0.628906 3.222656 -1.082031 2.640625 -1.65625 C 2.066406 -2.226562 1.613281 -2.910156 1.28125 -3.703125 C 0.945312 -4.492188 0.78125 -5.332031 0.78125 -6.21875 C 0.78125 -7.101562 0.945312 -7.9375 1.28125 -8.71875 C 1.613281 -9.507812 2.066406 -10.191406 2.640625 -10.765625 C 3.222656 -11.347656 3.90625 -11.800781 4.6875 -12.125 C 5.476562 -12.457031 6.328125 -12.625 7.234375 -12.625 C 8.191406 -12.625 9.097656 -12.441406 9.953125 -12.078125 C 10.816406 -11.722656 11.550781 -11.226562 12.15625 -10.59375 L 11.25 -9.625 C 10.757812 -10.175781 10.15625 -10.601562 9.4375 -10.90625 C 8.726562 -11.21875 7.992188 -11.375 7.234375 -11.375 C 6.523438 -11.375 5.859375 -11.238281 5.234375 -10.96875 C 4.609375 -10.707031 4.070312 -10.347656 3.625 -9.890625 C 3.175781 -9.429688 2.820312 -8.882812 2.5625 -8.25 C 2.300781 -7.613281 2.171875 -6.9375 2.171875 -6.21875 C 2.171875 -5.5 2.300781 -4.820312 2.5625 -4.1875 C 2.820312 -3.550781 3.175781 -3.003906 3.625 -2.546875 C 4.082031 -2.085938 4.625 -1.722656 5.25 -1.453125 C 5.875 -1.191406 6.546875 -1.0625 7.265625 -1.0625 Z M 7.265625 -1.0625 "/></g></g></g><g fill="#222222" fill-opacity="1"><g transform="translate(90.448243, 18.368377)"><g><path d="M 1.125 0 L 1.125 -12.4375 L 2.4375 -12.734375 L 2.4375 -7.859375 C 2.78125 -8.253906 3.1875 -8.554688 3.65625 -8.765625 C 4.132812 -8.972656 4.660156 -9.078125 5.234375 -9.078125 C 6.242188 -9.078125 7.066406 -8.753906 7.703125 -8.109375 C 8.347656 -7.472656 8.671875 -6.644531 8.671875 -5.625 L 8.671875 0 L 7.375 0 L 7.375 -5.359375 C 7.375 -6.140625 7.144531 -6.757812 6.6875 -7.21875 C 6.238281 -7.6875 5.640625 -7.921875 4.890625 -7.921875 C 4.359375 -7.921875 3.878906 -7.800781 3.453125 -7.5625 C 3.035156 -7.332031 2.695312 -7 2.4375 -6.5625 L 2.4375 0 Z M 1.125 0 "/></g></g></g><g fill="#222222" fill-opacity="1"><g transform="translate(103.177369, 18.368377)"><g><path d="M 8.609375 -0.9375 C 8.117188 -0.570312 7.601562 -0.296875 7.0625 -0.109375 C 6.519531 0.0664062 5.929688 0.15625 5.296875 0.15625 C 4.648438 0.15625 4.046875 0.0390625 3.484375 -0.1875 C 2.921875 -0.425781 2.4375 -0.753906 2.03125 -1.171875 C 1.625 -1.585938 1.300781 -2.078125 1.0625 -2.640625 C 0.820312 -3.203125 0.703125 -3.804688 0.703125 -4.453125 C 0.703125 -5.097656 0.816406 -5.695312 1.046875 -6.25 C 1.285156 -6.8125 1.597656 -7.296875 1.984375 -7.703125 C 2.378906 -8.117188 2.84375 -8.445312 3.375 -8.6875 C 3.914062 -8.925781 4.488281 -9.046875 5.09375 -9.046875 C 5.6875 -9.046875 6.238281 -8.925781 6.75 -8.6875 C 7.269531 -8.445312 7.71875 -8.117188 8.09375 -7.703125 C 8.46875 -7.296875 8.765625 -6.8125 8.984375 -6.25 C 9.203125 -5.695312 9.3125 -5.097656 9.3125 -4.453125 L 9.3125 -4.046875 L 2 -4.046875 C 2.101562 -3.171875 2.46875 -2.441406 3.09375 -1.859375 C 3.71875 -1.285156 4.46875 -1 5.34375 -1 C 5.8125 -1 6.265625 -1.066406 6.703125 -1.203125 C 7.140625 -1.347656 7.503906 -1.550781 7.796875 -1.8125 Z M 5.0625 -7.890625 C 4.289062 -7.890625 3.625 -7.628906 3.0625 -7.109375 C 2.5 -6.585938 2.160156 -5.914062 2.046875 -5.09375 L 8 -5.09375 C 7.875 -5.875 7.535156 -6.535156 6.984375 -7.078125 C 6.441406 -7.617188 5.800781 -7.890625 5.0625 -7.890625 Z M 5.0625 -7.890625 "/></g></g></g><g fill="#222222" fill-opacity="1"><g transform="translate(116.172762, 18.368377)"><g><path d="M 1.125 0 L 1.125 -8.90625 L 2.4375 -8.90625 L 2.4375 -7.921875 C 2.769531 -8.296875 3.15625 -8.582031 3.59375 -8.78125 C 4.03125 -8.976562 4.515625 -9.078125 5.046875 -9.078125 C 5.660156 -9.078125 6.210938 -8.929688 6.703125 -8.640625 C 7.191406 -8.347656 7.578125 -7.957031 7.859375 -7.46875 C 8.222656 -8.007812 8.660156 -8.410156 9.171875 -8.671875 C 9.691406 -8.941406 10.269531 -9.078125 10.90625 -9.078125 C 11.863281 -9.078125 12.644531 -8.753906 13.25 -8.109375 C 13.863281 -7.472656 14.171875 -6.644531 14.171875 -5.625 L 14.171875 0 L 12.875 0 L 12.875 -5.359375 C 12.875 -6.140625 12.664062 -6.757812 12.25 -7.21875 C 11.84375 -7.6875 11.285156 -7.921875 10.578125 -7.921875 C 10.085938 -7.921875 9.640625 -7.796875 9.234375 -7.546875 C 8.835938 -7.296875 8.492188 -6.9375 8.203125 -6.46875 C 8.234375 -6.332031 8.253906 -6.195312 8.265625 -6.0625 C 8.285156 -5.925781 8.296875 -5.78125 8.296875 -5.625 L 8.296875 0 L 7 0 L 7 -5.359375 C 7 -6.140625 6.789062 -6.757812 6.375 -7.21875 C 5.957031 -7.6875 5.398438 -7.921875 4.703125 -7.921875 C 4.234375 -7.921875 3.804688 -7.8125 3.421875 -7.59375 C 3.035156 -7.375 2.707031 -7.050781 2.4375 -6.625 L 2.4375 0 Z M 1.125 0 "/></g></g></g><g fill="#222222" fill-opacity="1"><g transform="translate(134.40466, 18.368377)"><g><path d="M 1.78125 -10.609375 C 1.539062 -10.609375 1.332031 -10.695312 1.15625 -10.875 C 0.976562 -11.050781 0.890625 -11.257812 0.890625 -11.5 C 0.890625 -11.75 0.976562 -11.957031 1.15625 -12.125 C 1.332031 -12.289062 1.539062 -12.375 1.78125 -12.375 C 2.03125 -12.375 2.238281 -12.289062 2.40625 -12.125 C 2.582031 -11.957031 2.671875 -11.75 2.671875 -11.5 C 2.671875 -11.257812 2.582031 -11.050781 2.40625 -10.875 C 2.238281 -10.695312 2.03125 -10.609375 1.78125 -10.609375 Z M 2.4375 -8.90625 L 2.4375 0 L 1.125 0 L 1.125 -8.90625 Z M 2.4375 -8.90625 "/></g></g></g><g fill="#222222" fill-opacity="1"><g transform="translate(140.938742, 18.368377)"><g><path d="M 0.21875 -1.21875 L 1.015625 -2.078125 C 1.410156 -1.703125 1.859375 -1.410156 2.359375 -1.203125 C 2.867188 -0.992188 3.382812 -0.890625 3.90625 -0.890625 C 4.613281 -0.890625 5.191406 -1.035156 5.640625 -1.328125 C 6.097656 -1.628906 6.328125 -2.015625 6.328125 -2.484375 C 6.328125 -2.867188 6.191406 -3.171875 5.921875 -3.390625 C 5.660156 -3.609375 5.242188 -3.757812 4.671875 -3.84375 L 3.125 -4.046875 C 2.238281 -4.179688 1.578125 -4.445312 1.140625 -4.84375 C 0.710938 -5.238281 0.5 -5.773438 0.5 -6.453125 C 0.5 -7.191406 0.8125 -7.804688 1.4375 -8.296875 C 2.0625 -8.796875 2.863281 -9.046875 3.84375 -9.046875 C 4.476562 -9.046875 5.082031 -8.945312 5.65625 -8.75 C 6.226562 -8.5625 6.789062 -8.269531 7.34375 -7.875 L 6.640625 -6.984375 C 6.140625 -7.316406 5.65625 -7.566406 5.1875 -7.734375 C 4.726562 -7.898438 4.253906 -7.984375 3.765625 -7.984375 C 3.160156 -7.984375 2.664062 -7.84375 2.28125 -7.5625 C 1.894531 -7.289062 1.703125 -6.9375 1.703125 -6.5 C 1.703125 -6.125 1.832031 -5.832031 2.09375 -5.625 C 2.351562 -5.414062 2.773438 -5.269531 3.359375 -5.1875 L 4.90625 -4.96875 C 5.789062 -4.851562 6.453125 -4.59375 6.890625 -4.1875 C 7.335938 -3.78125 7.5625 -3.238281 7.5625 -2.5625 C 7.5625 -2.175781 7.46875 -1.816406 7.28125 -1.484375 C 7.101562 -1.148438 6.851562 -0.859375 6.53125 -0.609375 C 6.207031 -0.367188 5.820312 -0.179688 5.375 -0.046875 C 4.9375 0.0859375 4.46875 0.15625 3.96875 0.15625 C 3.226562 0.15625 2.535156 0.0351562 1.890625 -0.203125 C 1.242188 -0.441406 0.6875 -0.78125 0.21875 -1.21875 Z M 0.21875 -1.21875 "/></g></g></g><g fill="#222222" fill-opacity="1"><g transform="translate(151.839528, 18.368377)"><g><path d="M 2.21875 -1.984375 L 2.21875 -7.78125 L 0.296875 -7.78125 L 0.296875 -8.90625 L 2.21875 -8.90625 L 2.21875 -11.15625 L 3.515625 -11.5 L 3.515625 -8.90625 L 6.203125 -8.90625 L 6.203125 -7.78125 L 3.515625 -7.78125 L 3.515625 -2.328125 C 3.515625 -1.847656 3.617188 -1.503906 3.828125 -1.296875 C 4.046875 -1.097656 4.398438 -1 4.890625 -1 C 5.140625 -1 5.359375 -1.015625 5.546875 -1.046875 C 5.742188 -1.078125 5.957031 -1.132812 6.1875 -1.21875 L 6.1875 -0.078125 C 5.957031 0.00390625 5.703125 0.0625 5.421875 0.09375 C 5.148438 0.132812 4.882812 0.15625 4.625 0.15625 C 3.851562 0.15625 3.257812 -0.0234375 2.84375 -0.390625 C 2.425781 -0.753906 2.21875 -1.285156 2.21875 -1.984375 Z M 2.21875 -1.984375 "/></g></g></g><g fill="#222222" fill-opacity="1"><g transform="translate(161.302499, 18.368377)"><g><path d="M 1.125 0 L 1.125 -8.90625 L 2.4375 -8.90625 L 2.4375 -7.640625 C 2.695312 -8.097656 3.039062 -8.453125 3.46875 -8.703125 C 3.894531 -8.960938 4.378906 -9.09375 4.921875 -9.09375 C 5.085938 -9.09375 5.234375 -9.082031 5.359375 -9.0625 C 5.492188 -9.050781 5.625 -9.019531 5.75 -8.96875 L 5.75 -7.765625 C 5.601562 -7.804688 5.453125 -7.84375 5.296875 -7.875 C 5.140625 -7.90625 4.984375 -7.921875 4.828125 -7.921875 C 4.285156 -7.921875 3.804688 -7.765625 3.390625 -7.453125 C 2.972656 -7.140625 2.65625 -6.6875 2.4375 -6.09375 L 2.4375 0 Z M 1.125 0 "/></g></g></g><g fill="#222222" fill-opacity="1"><g transform="translate(170.428204, 18.368377)"><g><path d="M 3.203125 1.15625 L 3.71875 -0.015625 L 0.09375 -8.90625 L 1.546875 -8.90625 L 4.421875 -1.59375 L 7.53125 -8.90625 L 8.953125 -8.90625 L 4.53125 1.328125 C 4.15625 2.179688 3.734375 2.796875 3.265625 3.171875 C 2.804688 3.554688 2.222656 3.75 1.515625 3.75 C 1.347656 3.75 1.1875 3.738281 1.03125 3.71875 C 0.882812 3.695312 0.765625 3.675781 0.671875 3.65625 L 0.671875 2.46875 C 0.796875 2.488281 0.910156 2.503906 1.015625 2.515625 C 1.128906 2.535156 1.265625 2.546875 1.421875 2.546875 C 1.828125 2.546875 2.171875 2.429688 2.453125 2.203125 C 2.734375 1.972656 2.984375 1.625 3.203125 1.15625 Z M 3.203125 1.15625 "/></g></g></g><g fill="#222222" fill-opacity="1"><g transform="translate(182.465045, 18.368377)"><g/></g></g><g fill="#222222" fill-opacity="1"><g transform="translate(189.265381, 18.368377)"><g><path d="M 7.515625 -0.890625 L 2.640625 -10.859375 L 2.640625 0 L 1.375 0 L 1.375 -12.4375 L 3.28125 -12.4375 L 7.53125 -3.609375 L 11.765625 -12.4375 L 13.671875 -12.4375 L 13.671875 0 L 12.375 0 L 12.375 -10.875 Z M 7.515625 -0.890625 "/></g></g></g><g fill="#222222" fill-opacity="1"><g transform="translate(207.284271, 18.368377)"><g><path d="M 8.609375 -0.9375 C 8.117188 -0.570312 7.601562 -0.296875 7.0625 -0.109375 C 6.519531 0.0664062 5.929688 0.15625 5.296875 0.15625 C 4.648438 0.15625 4.046875 0.0390625 3.484375 -0.1875 C 2.921875 -0.425781 2.4375 -0.753906 2.03125 -1.171875 C 1.625 -1.585938 1.300781 -2.078125 1.0625 -2.640625 C 0.820312 -3.203125 0.703125 -3.804688 0.703125 -4.453125 C 0.703125 -5.097656 0.816406 -5.695312 1.046875 -6.25 C 1.285156 -6.8125 1.597656 -7.296875 1.984375 -7.703125 C 2.378906 -8.117188 2.84375 -8.445312 3.375 -8.6875 C 3.914062 -8.925781 4.488281 -9.046875 5.09375 -9.046875 C 5.6875 -9.046875 6.238281 -8.925781 6.75 -8.6875 C 7.269531 -8.445312 7.71875 -8.117188 8.09375 -7.703125 C 8.46875 -7.296875 8.765625 -6.8125 8.984375 -6.25 C 9.203125 -5.695312 9.3125 -5.097656 9.3125 -4.453125 L 9.3125 -4.046875 L 2 -4.046875 C 2.101562 -3.171875 2.46875 -2.441406 3.09375 -1.859375 C 3.71875 -1.285156 4.46875 -1 5.34375 -1 C 5.8125 -1 6.265625 -1.066406 6.703125 -1.203125 C 7.140625 -1.347656 7.503906 -1.550781 7.796875 -1.8125 Z M 5.0625 -7.890625 C 4.289062 -7.890625 3.625 -7.628906 3.0625 -7.109375 C 2.5 -6.585938 2.160156 -5.914062 2.046875 -5.09375 L 8 -5.09375 C 7.875 -5.875 7.535156 -6.535156 6.984375 -7.078125 C 6.441406 -7.617188 5.800781 -7.890625 5.0625 -7.890625 Z M 5.0625 -7.890625 "/></g></g></g><g fill="#222222" fill-opacity="1"><g transform="translate(220.279664, 18.368377)"><g><path d="M 8.609375 -0.9375 C 8.117188 -0.570312 7.601562 -0.296875 7.0625 -0.109375 C 6.519531 0.0664062 5.929688 0.15625 5.296875 0.15625 C 4.648438 0.15625 4.046875 0.0390625 3.484375 -0.1875 C 2.921875 -0.425781 2.4375 -0.753906 2.03125 -1.171875 C 1.625 -1.585938 1.300781 -2.078125 1.0625 -2.640625 C 0.820312 -3.203125 0.703125 -3.804688 0.703125 -4.453125 C 0.703125 -5.097656 0.816406 -5.695312 1.046875 -6.25 C 1.285156 -6.8125 1.597656 -7.296875 1.984375 -7.703125 C 2.378906 -8.117188 2.84375 -8.445312 3.375 -8.6875 C 3.914062 -8.925781 4.488281 -9.046875 5.09375 -9.046875 C 5.6875 -9.046875 6.238281 -8.925781 6.75 -8.6875 C 7.269531 -8.445312 7.71875 -8.117188 8.09375 -7.703125 C 8.46875 -7.296875 8.765625 -6.8125 8.984375 -6.25 C 9.203125 -5.695312 9.3125 -5.097656 9.3125 -4.453125 L 9.3125 -4.046875 L 2 -4.046875 C 2.101562 -3.171875 2.46875 -2.441406 3.09375 -1.859375 C 3.71875 -1.285156 4.46875 -1 5.34375 -1 C 5.8125 -1 6.265625 -1.066406 6.703125 -1.203125 C 7.140625 -1.347656 7.503906 -1.550781 7.796875 -1.8125 Z M 5.0625 -7.890625 C 4.289062 -7.890625 3.625 -7.628906 3.0625 -7.109375 C 2.5 -6.585938 2.160156 -5.914062 2.046875 -5.09375 L 8 -5.09375 C 7.875 -5.875 7.535156 -6.535156 6.984375 -7.078125 C 6.441406 -7.617188 5.800781 -7.890625 5.0625 -7.890625 Z M 5.0625 -7.890625 "/></g></g></g><g fill="#222222" fill-opacity="1"><g transform="translate(233.275057, 18.368377)"><g><path d="M 2.21875 -1.984375 L 2.21875 -7.78125 L 0.296875 -7.78125 L 0.296875 -8.90625 L 2.21875 -8.90625 L 2.21875 -11.15625 L 3.515625 -11.5 L 3.515625 -8.90625 L 6.203125 -8.90625 L 6.203125 -7.78125 L 3.515625 -7.78125 L 3.515625 -2.328125 C 3.515625 -1.847656 3.617188 -1.503906 3.828125 -1.296875 C 4.046875 -1.097656 4.398438 -1 4.890625 -1 C 5.140625 -1 5.359375 -1.015625 5.546875 -1.046875 C 5.742188 -1.078125 5.957031 -1.132812 6.1875 -1.21875 L 6.1875 -0.078125 C 5.957031 0.00390625 5.703125 0.0625 5.421875 0.09375 C 5.148438 0.132812 4.882812 0.15625 4.625 0.15625 C 3.851562 0.15625 3.257812 -0.0234375 2.84375 -0.390625 C 2.425781 -0.753906 2.21875 -1.285156 2.21875 -1.984375 Z M 2.21875 -1.984375 "/></g></g></g><g fill="#222222" fill-opacity="1"><g transform="translate(242.738028, 18.368377)"><g><path d="M 0.21875 -1.21875 L 1.015625 -2.078125 C 1.410156 -1.703125 1.859375 -1.410156 2.359375 -1.203125 C 2.867188 -0.992188 3.382812 -0.890625 3.90625 -0.890625 C 4.613281 -0.890625 5.191406 -1.035156 5.640625 -1.328125 C 6.097656 -1.628906 6.328125 -2.015625 6.328125 -2.484375 C 6.328125 -2.867188 6.191406 -3.171875 5.921875 -3.390625 C 5.660156 -3.609375 5.242188 -3.757812 4.671875 -3.84375 L 3.125 -4.046875 C 2.238281 -4.179688 1.578125 -4.445312 1.140625 -4.84375 C 0.710938 -5.238281 0.5 -5.773438 0.5 -6.453125 C 0.5 -7.191406 0.8125 -7.804688 1.4375 -8.296875 C 2.0625 -8.796875 2.863281 -9.046875 3.84375 -9.046875 C 4.476562 -9.046875 5.082031 -8.945312 5.65625 -8.75 C 6.226562 -8.5625 6.789062 -8.269531 7.34375 -7.875 L 6.640625 -6.984375 C 6.140625 -7.316406 5.65625 -7.566406 5.1875 -7.734375 C 4.726562 -7.898438 4.253906 -7.984375 3.765625 -7.984375 C 3.160156 -7.984375 2.664062 -7.84375 2.28125 -7.5625 C 1.894531 -7.289062 1.703125 -6.9375 1.703125 -6.5 C 1.703125 -6.125 1.832031 -5.832031 2.09375 -5.625 C 2.351562 -5.414062 2.773438 -5.269531 3.359375 -5.1875 L 4.90625 -4.96875 C 5.789062 -4.851562 6.453125 -4.59375 6.890625 -4.1875 C 7.335938 -3.78125 7.5625 -3.238281 7.5625 -2.5625 C 7.5625 -2.175781 7.46875 -1.816406 7.28125 -1.484375 C 7.101562 -1.148438 6.851562 -0.859375 6.53125 -0.609375 C 6.207031 -0.367188 5.820312 -0.179688 5.375 -0.046875 C 4.9375 0.0859375 4.46875 0.15625 3.96875 0.15625 C 3.226562 0.15625 2.535156 0.0351562 1.890625 -0.203125 C 1.242188 -0.441406 0.6875 -0.78125 0.21875 -1.21875 Z M 0.21875 -1.21875 "/></g></g></g><g fill="#222222" fill-opacity="1"><g transform="translate(253.638814, 18.368377)"><g/></g></g><g fill="#222222" fill-opacity="1"><g transform="translate(260.439165, 18.368377)"><g><path d="M 1.375 0 L 1.375 -12.4375 L 6.765625 -12.4375 C 7.972656 -12.4375 8.941406 -12.109375 9.671875 -11.453125 C 10.410156 -10.796875 10.78125 -9.925781 10.78125 -8.84375 C 10.78125 -7.769531 10.410156 -6.898438 9.671875 -6.234375 C 8.929688 -5.566406 7.960938 -5.234375 6.765625 -5.234375 L 2.734375 -5.234375 L 2.734375 0 Z M 6.65625 -11.203125 L 2.734375 -11.203125 L 2.734375 -6.4375 L 6.65625 -6.4375 C 7.5 -6.4375 8.171875 -6.648438 8.671875 -7.078125 C 9.171875 -7.515625 9.421875 -8.097656 9.421875 -8.828125 C 9.421875 -9.566406 9.171875 -10.144531 8.671875 -10.5625 C 8.171875 -10.988281 7.5 -11.203125 6.65625 -11.203125 Z M 6.65625 -11.203125 "/></g></g></g><g fill="#222222" fill-opacity="1"><g transform="translate(274.907879, 18.368377)"><g><path d="M 1.125 0 L 1.125 -8.90625 L 2.4375 -8.90625 L 2.4375 -7.640625 C 2.695312 -8.097656 3.039062 -8.453125 3.46875 -8.703125 C 3.894531 -8.960938 4.378906 -9.09375 4.921875 -9.09375 C 5.085938 -9.09375 5.234375 -9.082031 5.359375 -9.0625 C 5.492188 -9.050781 5.625 -9.019531 5.75 -8.96875 L 5.75 -7.765625 C 5.601562 -7.804688 5.453125 -7.84375 5.296875 -7.875 C 5.140625 -7.90625 4.984375 -7.921875 4.828125 -7.921875 C 4.285156 -7.921875 3.804688 -7.765625 3.390625 -7.453125 C 2.972656 -7.140625 2.65625 -6.6875 2.4375 -6.09375 L 2.4375 0 Z M 1.125 0 "/></g></g></g><g fill="#222222" fill-opacity="1"><g transform="translate(284.033584, 18.368377)"><g><path d="M 8.609375 -0.9375 C 8.117188 -0.570312 7.601562 -0.296875 7.0625 -0.109375 C 6.519531 0.0664062 5.929688 0.15625 5.296875 0.15625 C 4.648438 0.15625 4.046875 0.0390625 3.484375 -0.1875 C 2.921875 -0.425781 2.4375 -0.753906 2.03125 -1.171875 C 1.625 -1.585938 1.300781 -2.078125 1.0625 -2.640625 C 0.820312 -3.203125 0.703125 -3.804688 0.703125 -4.453125 C 0.703125 -5.097656 0.816406 -5.695312 1.046875 -6.25 C 1.285156 -6.8125 1.597656 -7.296875 1.984375 -7.703125 C 2.378906 -8.117188 2.84375 -8.445312 3.375 -8.6875 C 3.914062 -8.925781 4.488281 -9.046875 5.09375 -9.046875 C 5.6875 -9.046875 6.238281 -8.925781 6.75 -8.6875 C 7.269531 -8.445312 7.71875 -8.117188 8.09375 -7.703125 C 8.46875 -7.296875 8.765625 -6.8125 8.984375 -6.25 C 9.203125 -5.695312 9.3125 -5.097656 9.3125 -4.453125 L 9.3125 -4.046875 L 2 -4.046875 C 2.101562 -3.171875 2.46875 -2.441406 3.09375 -1.859375 C 3.71875 -1.285156 4.46875 -1 5.34375 -1 C 5.8125 -1 6.265625 -1.066406 6.703125 -1.203125 C 7.140625 -1.347656 7.503906 -1.550781 7.796875 -1.8125 Z M 5.0625 -7.890625 C 4.289062 -7.890625 3.625 -7.628906 3.0625 -7.109375 C 2.5 -6.585938 2.160156 -5.914062 2.046875 -5.09375 L 8 -5.09375 C 7.875 -5.875 7.535156 -6.535156 6.984375 -7.078125 C 6.441406 -7.617188 5.800781 -7.890625 5.0625 -7.890625 Z M 5.0625 -7.890625 "/></g></g></g><g fill="#222222" fill-opacity="1"><g transform="translate(297.028977, 18.368377)"><g><path d="M 5.28125 -1.03125 C 5.75 -1.03125 6.203125 -1.125 6.640625 -1.3125 C 7.078125 -1.5 7.488281 -1.78125 7.875 -2.15625 L 8.6875 -1.265625 C 8.21875 -0.816406 7.6875 -0.46875 7.09375 -0.21875 C 6.5 0.03125 5.878906 0.15625 5.234375 0.15625 C 4.609375 0.15625 4.015625 0.0390625 3.453125 -0.1875 C 2.898438 -0.425781 2.421875 -0.753906 2.015625 -1.171875 C 1.617188 -1.585938 1.300781 -2.078125 1.0625 -2.640625 C 0.820312 -3.210938 0.703125 -3.816406 0.703125 -4.453125 C 0.703125 -5.097656 0.820312 -5.703125 1.0625 -6.265625 C 1.300781 -6.828125 1.617188 -7.3125 2.015625 -7.71875 C 2.421875 -8.132812 2.898438 -8.460938 3.453125 -8.703125 C 4.015625 -8.953125 4.609375 -9.078125 5.234375 -9.078125 C 5.878906 -9.078125 6.503906 -8.953125 7.109375 -8.703125 C 7.722656 -8.453125 8.257812 -8.109375 8.71875 -7.671875 L 7.890625 -6.71875 C 7.535156 -7.082031 7.125 -7.363281 6.65625 -7.5625 C 6.195312 -7.769531 5.734375 -7.875 5.265625 -7.875 C 4.804688 -7.875 4.375 -7.785156 3.96875 -7.609375 C 3.570312 -7.429688 3.226562 -7.1875 2.9375 -6.875 C 2.644531 -6.5625 2.414062 -6.195312 2.25 -5.78125 C 2.082031 -5.375 2 -4.929688 2 -4.453125 C 2 -3.972656 2.082031 -3.519531 2.25 -3.09375 C 2.425781 -2.675781 2.660156 -2.316406 2.953125 -2.015625 C 3.242188 -1.710938 3.585938 -1.472656 3.984375 -1.296875 C 4.390625 -1.117188 4.820312 -1.03125 5.28125 -1.03125 Z M 5.28125 -1.03125 "/></g></g></g><g fill="#222222" fill-opacity="1"><g transform="translate(309.119063, 18.368377)"><g><path d="M 1.78125 -10.609375 C 1.539062 -10.609375 1.332031 -10.695312 1.15625 -10.875 C 0.976562 -11.050781 0.890625 -11.257812 0.890625 -11.5 C 0.890625 -11.75 0.976562 -11.957031 1.15625 -12.125 C 1.332031 -12.289062 1.539062 -12.375 1.78125 -12.375 C 2.03125 -12.375 2.238281 -12.289062 2.40625 -12.125 C 2.582031 -11.957031 2.671875 -11.75 2.671875 -11.5 C 2.671875 -11.257812 2.582031 -11.050781 2.40625 -10.875 C 2.238281 -10.695312 2.03125 -10.609375 1.78125 -10.609375 Z M 2.4375 -8.90625 L 2.4375 0 L 1.125 0 L 1.125 -8.90625 Z M 2.4375 -8.90625 "/></g></g></g><g fill="#222222" fill-opacity="1"><g transform="translate(315.65316, 18.368377)"><g><path d="M 0.21875 -1.21875 L 1.015625 -2.078125 C 1.410156 -1.703125 1.859375 -1.410156 2.359375 -1.203125 C 2.867188 -0.992188 3.382812 -0.890625 3.90625 -0.890625 C 4.613281 -0.890625 5.191406 -1.035156 5.640625 -1.328125 C 6.097656 -1.628906 6.328125 -2.015625 6.328125 -2.484375 C 6.328125 -2.867188 6.191406 -3.171875 5.921875 -3.390625 C 5.660156 -3.609375 5.242188 -3.757812 4.671875 -3.84375 L 3.125 -4.046875 C 2.238281 -4.179688 1.578125 -4.445312 1.140625 -4.84375 C 0.710938 -5.238281 0.5 -5.773438 0.5 -6.453125 C 0.5 -7.191406 0.8125 -7.804688 1.4375 -8.296875 C 2.0625 -8.796875 2.863281 -9.046875 3.84375 -9.046875 C 4.476562 -9.046875 5.082031 -8.945312 5.65625 -8.75 C 6.226562 -8.5625 6.789062 -8.269531 7.34375 -7.875 L 6.640625 -6.984375 C 6.140625 -7.316406 5.65625 -7.566406 5.1875 -7.734375 C 4.726562 -7.898438 4.253906 -7.984375 3.765625 -7.984375 C 3.160156 -7.984375 2.664062 -7.84375 2.28125 -7.5625 C 1.894531 -7.289062 1.703125 -6.9375 1.703125 -6.5 C 1.703125 -6.125 1.832031 -5.832031 2.09375 -5.625 C 2.351562 -5.414062 2.773438 -5.269531 3.359375 -5.1875 L 4.90625 -4.96875 C 5.789062 -4.851562 6.453125 -4.59375 6.890625 -4.1875 C 7.335938 -3.78125 7.5625 -3.238281 7.5625 -2.5625 C 7.5625 -2.175781 7.46875 -1.816406 7.28125 -1.484375 C 7.101562 -1.148438 6.851562 -0.859375 6.53125 -0.609375 C 6.207031 -0.367188 5.820312 -0.179688 5.375 -0.046875 C 4.9375 0.0859375 4.46875 0.15625 3.96875 0.15625 C 3.226562 0.15625 2.535156 0.0351562 1.890625 -0.203125 C 1.242188 -0.441406 0.6875 -0.78125 0.21875 -1.21875 Z M 0.21875 -1.21875 "/></g></g></g><g fill="#222222" fill-opacity="1"><g transform="translate(326.553945, 18.368377)"><g><path d="M 1.78125 -10.609375 C 1.539062 -10.609375 1.332031 -10.695312 1.15625 -10.875 C 0.976562 -11.050781 0.890625 -11.257812 0.890625 -11.5 C 0.890625 -11.75 0.976562 -11.957031 1.15625 -12.125 C 1.332031 -12.289062 1.539062 -12.375 1.78125 -12.375 C 2.03125 -12.375 2.238281 -12.289062 2.40625 -12.125 C 2.582031 -11.957031 2.671875 -11.75 2.671875 -11.5 C 2.671875 -11.257812 2.582031 -11.050781 2.40625 -10.875 C 2.238281 -10.695312 2.03125 -10.609375 1.78125 -10.609375 Z M 2.4375 -8.90625 L 2.4375 0 L 1.125 0 L 1.125 -8.90625 Z M 2.4375 -8.90625 "/></g></g></g><g fill="#222222" fill-opacity="1"><g transform="translate(333.088014, 18.368377)"><g><path d="M 0.703125 -4.453125 C 0.703125 -5.097656 0.820312 -5.703125 1.0625 -6.265625 C 1.300781 -6.835938 1.625 -7.332031 2.03125 -7.75 C 2.4375 -8.164062 2.914062 -8.488281 3.46875 -8.71875 C 4.03125 -8.957031 4.628906 -9.078125 5.265625 -9.078125 C 5.890625 -9.078125 6.476562 -8.957031 7.03125 -8.71875 C 7.582031 -8.488281 8.0625 -8.164062 8.46875 -7.75 C 8.875 -7.332031 9.191406 -6.835938 9.421875 -6.265625 C 9.660156 -5.703125 9.78125 -5.097656 9.78125 -4.453125 C 9.78125 -3.804688 9.660156 -3.195312 9.421875 -2.625 C 9.191406 -2.0625 8.875 -1.570312 8.46875 -1.15625 C 8.0625 -0.738281 7.582031 -0.410156 7.03125 -0.171875 C 6.476562 0.0546875 5.890625 0.171875 5.265625 0.171875 C 4.628906 0.171875 4.03125 0.0546875 3.46875 -0.171875 C 2.914062 -0.410156 2.4375 -0.738281 2.03125 -1.15625 C 1.625 -1.570312 1.300781 -2.0625 1.0625 -2.625 C 0.820312 -3.195312 0.703125 -3.804688 0.703125 -4.453125 Z M 5.265625 -1 C 5.710938 -1 6.132812 -1.085938 6.53125 -1.265625 C 6.925781 -1.441406 7.269531 -1.6875 7.5625 -2 C 7.851562 -2.3125 8.078125 -2.675781 8.234375 -3.09375 C 8.398438 -3.519531 8.484375 -3.972656 8.484375 -4.453125 C 8.484375 -4.941406 8.398438 -5.394531 8.234375 -5.8125 C 8.078125 -6.238281 7.851562 -6.601562 7.5625 -6.90625 C 7.269531 -7.21875 6.925781 -7.460938 6.53125 -7.640625 C 6.132812 -7.816406 5.710938 -7.90625 5.265625 -7.90625 C 4.804688 -7.90625 4.378906 -7.816406 3.984375 -7.640625 C 3.585938 -7.460938 3.242188 -7.21875 2.953125 -6.90625 C 2.660156 -6.601562 2.425781 -6.238281 2.25 -5.8125 C 2.082031 -5.394531 2 -4.941406 2 -4.453125 C 2 -3.972656 2.082031 -3.519531 2.25 -3.09375 C 2.414062 -2.675781 2.644531 -2.3125 2.9375 -2 C 3.226562 -1.6875 3.570312 -1.441406 3.96875 -1.265625 C 4.375 -1.085938 4.804688 -1 5.265625 -1 Z M 5.265625 -1 "/></g></g></g><g fill="#222222" fill-opacity="1"><g transform="translate(346.562669, 18.368377)"><g><path d="M 1.125 0 L 1.125 -8.90625 L 2.4375 -8.90625 L 2.4375 -7.859375 C 2.78125 -8.253906 3.1875 -8.554688 3.65625 -8.765625 C 4.132812 -8.972656 4.660156 -9.078125 5.234375 -9.078125 C 6.242188 -9.078125 7.066406 -8.753906 7.703125 -8.109375 C 8.347656 -7.472656 8.671875 -6.644531 8.671875 -5.625 L 8.671875 0 L 7.375 0 L 7.375 -5.359375 C 7.375 -6.140625 7.144531 -6.757812 6.6875 -7.21875 C 6.238281 -7.6875 5.640625 -7.921875 4.890625 -7.921875 C 4.359375 -7.921875 3.878906 -7.800781 3.453125 -7.5625 C 3.035156 -7.332031 2.695312 -7 2.4375 -6.5625 L 2.4375 0 Z M 1.125 0 "/></g></g></g><g fill="#222222" fill-opacity="1"><g transform="translate(359.291809, 18.368377)"><g><path d="M 1.765625 -1.703125 C 2.003906 -1.703125 2.210938 -1.613281 2.390625 -1.4375 C 2.578125 -1.257812 2.671875 -1.046875 2.671875 -0.796875 C 2.671875 -0.546875 2.578125 -0.332031 2.390625 -0.15625 C 2.210938 0.0195312 2.003906 0.109375 1.765625 0.109375 C 1.515625 0.109375 1.300781 0.0195312 1.125 -0.15625 C 0.945312 -0.332031 0.859375 -0.546875 0.859375 -0.796875 C 0.859375 -1.046875 0.945312 -1.257812 1.125 -1.4375 C 1.300781 -1.613281 1.515625 -1.703125 1.765625 -1.703125 Z M 1.765625 -1.703125 "/></g></g></g></g></g></svg>