<svg xmlns="http://www.w3.org/2000/svg" xmlns:xlink="http://www.w3.org/1999/xlink" width="1080" zoomAndPan="magnify" viewBox="0 0 810 809.999993" height="1080" preserveAspectRatio="xMidYMid meet" version="1.0"><defs><filter x="0%" y="0%" width="100%" height="100%" id="2ee890638a"><feColorMatrix values="0 0 0 0 1 0 0 0 0 1 0 0 0 0 1 0 0 0 1 0" color-interpolation-filters="sRGB"/></filter><g/><linearGradient x1="174.591001" gradientTransform="matrix(0.7502, 0, 0, 0.750182, 59.023551, 285.679489)" y1="149" x2="1001.034328" gradientUnits="userSpaceOnUse" y2="149" id="db0a89050f"><stop stop-opacity="1" stop-color="rgb(100%, 19.219971%, 19.219971%)" offset="0"/><stop stop-opacity="1" stop-color="rgb(100%, 19.219971%, 19.219971%)" offset="0.5"/><stop stop-opacity="1" stop-color="rgb(100%, 19.219971%, 19.219971%)" offset="0.515625"/><stop stop-opacity="1" stop-color="rgb(100%, 20.196533%, 19.503784%)" offset="0.519531"/><stop stop-opacity="1" stop-color="rgb(100%, 21.173096%, 19.789124%)" offset="0.523438"/><stop stop-opacity="1" stop-color="rgb(100%, 22.184753%, 20.083618%)" offset="0.527344"/><stop stop-opacity="1" stop-color="rgb(100%, 23.197937%, 20.379639%)" offset="0.53125"/><stop stop-opacity="1" stop-color="rgb(100%, 24.209595%, 20.674133%)" offset="0.535156"/><stop stop-opacity="1" stop-color="rgb(100%, 25.222778%, 20.970154%)" offset="0.539062"/><stop stop-opacity="1" stop-color="rgb(100%, 26.234436%, 21.264648%)" offset="0.542969"/><stop stop-opacity="1" stop-color="rgb(100%, 27.24762%, 21.560669%)" offset="0.546875"/><stop stop-opacity="1" stop-color="rgb(100%, 28.259277%, 21.856689%)" offset="0.550781"/><stop stop-opacity="1" stop-color="rgb(100%, 29.272461%, 22.15271%)" offset="0.554688"/><stop stop-opacity="1" stop-color="rgb(100%, 30.284119%, 22.447205%)" offset="0.558594"/><stop stop-opacity="1" stop-color="rgb(100%, 31.297302%, 22.743225%)" offset="0.5625"/><stop stop-opacity="1" stop-color="rgb(100%, 32.30896%, 23.03772%)" offset="0.566406"/><stop stop-opacity="1" stop-color="rgb(100%, 33.322144%, 23.33374%)" offset="0.570312"/><stop stop-opacity="1" stop-color="rgb(100%, 34.333801%, 23.628235%)" offset="0.574219"/><stop stop-opacity="1" stop-color="rgb(100%, 35.346985%, 23.924255%)" offset="0.578125"/><stop stop-opacity="1" stop-color="rgb(100%, 36.358643%, 24.21875%)" offset="0.582031"/><stop stop-opacity="1" stop-color="rgb(100%, 37.371826%, 24.514771%)" offset="0.585938"/><stop stop-opacity="1" stop-color="rgb(100%, 38.38501%, 24.809265%)" offset="0.589844"/><stop stop-opacity="1" stop-color="rgb(100%, 39.398193%, 25.105286%)" offset="0.59375"/><stop stop-opacity="1" stop-color="rgb(100%, 40.409851%, 25.39978%)" offset="0.597656"/><stop stop-opacity="1" stop-color="rgb(100%, 41.423035%, 25.695801%)" offset="0.601562"/><stop stop-opacity="1" stop-color="rgb(100%, 42.434692%, 25.990295%)" offset="0.605469"/><stop stop-opacity="1" stop-color="rgb(100%, 43.447876%, 26.286316%)" offset="0.609375"/><stop stop-opacity="1" stop-color="rgb(100%, 44.459534%, 26.580811%)" offset="0.613281"/><stop stop-opacity="1" stop-color="rgb(100%, 45.472717%, 26.876831%)" offset="0.617187"/><stop stop-opacity="1" stop-color="rgb(100%, 46.484375%, 27.172852%)" offset="0.621094"/><stop stop-opacity="1" stop-color="rgb(100%, 47.497559%, 27.468872%)" offset="0.625"/><stop stop-opacity="1" stop-color="rgb(100%, 48.509216%, 27.763367%)" offset="0.628906"/><stop stop-opacity="1" stop-color="rgb(100%, 49.5224%, 28.059387%)" offset="0.632812"/><stop stop-opacity="1" stop-color="rgb(100%, 50.534058%, 28.353882%)" offset="0.636719"/><stop stop-opacity="1" stop-color="rgb(100%, 51.547241%, 28.649902%)" offset="0.640625"/><stop stop-opacity="1" stop-color="rgb(100%, 52.558899%, 28.944397%)" offset="0.644531"/><stop stop-opacity="1" stop-color="rgb(100%, 53.572083%, 29.240417%)" offset="0.648438"/><stop stop-opacity="1" stop-color="rgb(100%, 54.58374%, 29.534912%)" offset="0.652344"/><stop stop-opacity="1" stop-color="rgb(100%, 55.596924%, 29.830933%)" offset="0.65625"/><stop stop-opacity="1" stop-color="rgb(100%, 56.227112%, 30.014038%)" offset="0.660156"/><stop stop-opacity="1" stop-color="rgb(100%, 56.858826%, 30.198669%)" offset="0.664062"/><stop stop-opacity="1" stop-color="rgb(100%, 56.858826%, 30.198669%)" offset="0.671875"/><stop stop-opacity="1" stop-color="rgb(100%, 56.858826%, 30.198669%)" offset="0.6875"/><stop stop-opacity="1" stop-color="rgb(100%, 56.858826%, 30.198669%)" offset="0.75"/><stop stop-opacity="1" stop-color="rgb(100%, 56.858826%, 30.198669%)" offset="1"/></linearGradient><clipPath id="a11f873f79"><rect x="0" width="810" y="0" height="810"/></clipPath><clipPath id="029e86ed50"><rect x="0" width="810" y="0" height="810"/></clipPath><clipPath id="9745e5826a"><rect x="0" width="810" y="0" height="810"/></clipPath><mask id="9817d531d0"><g filter="url(#2ee890638a)"><g transform="matrix(1, 0, 0, 1, 0, 0.000000000000039746)"><g clip-path="url(#9745e5826a)"><g transform="matrix(1, 0, 0, 1, 0, 0.000000000000039746)"><g clip-path="url(#029e86ed50)"><g fill="#000000" fill-opacity="1"><g transform="translate(509.466629, 453.331521)"><g><path d="M 4.796875 -41.578125 C 4.796875 -47.648438 5.941406 -53.320312 8.234375 -58.59375 C 10.523438 -63.875 13.664062 -68.457031 17.65625 -72.34375 C 21.65625 -76.238281 26.375 -79.304688 31.8125 -81.546875 C 37.25 -83.785156 43.0625 -84.90625 49.25 -84.90625 C 55.425781 -84.90625 61.234375 -83.785156 66.671875 -81.546875 C 72.109375 -79.304688 76.828125 -76.238281 80.828125 -72.34375 C 84.828125 -68.457031 87.972656 -63.875 90.265625 -58.59375 C 92.554688 -53.320312 93.703125 -47.648438 93.703125 -41.578125 C 93.703125 -35.492188 92.554688 -29.8125 90.265625 -24.53125 C 87.972656 -19.257812 84.828125 -14.703125 80.828125 -10.859375 C 76.828125 -7.023438 72.109375 -3.988281 66.671875 -1.75 C 61.234375 0.476562 55.425781 1.59375 49.25 1.59375 C 43.0625 1.59375 37.25 0.476562 31.8125 -1.75 C 26.375 -3.988281 21.65625 -7.023438 17.65625 -10.859375 C 13.664062 -14.703125 10.523438 -19.257812 8.234375 -24.53125 C 5.941406 -29.8125 4.796875 -35.492188 4.796875 -41.578125 Z M 49.25 -17.421875 C 55.644531 -17.421875 61.078125 -19.765625 65.546875 -24.453125 C 70.023438 -29.148438 72.265625 -34.859375 72.265625 -41.578125 C 72.265625 -48.390625 70.023438 -54.140625 65.546875 -58.828125 C 61.078125 -63.523438 55.644531 -65.875 49.25 -65.875 C 42.851562 -65.875 37.414062 -63.523438 32.9375 -58.828125 C 28.457031 -54.140625 26.21875 -48.390625 26.21875 -41.578125 C 26.21875 -34.859375 28.457031 -29.148438 32.9375 -24.453125 C 37.414062 -19.765625 42.851562 -17.421875 49.25 -17.421875 Z M 49.25 -17.421875 "/></g></g></g></g></g></g></g></g></mask><clipPath id="87fc5685eb"><rect x="0" width="810" y="0" height="810"/></clipPath><clipPath id="9177133da8"><rect x="0" width="810" y="0" height="810"/></clipPath><clipPath id="26e4c03930"><rect x="0" width="557" y="0" height="36"/></clipPath></defs><rect x="-81" width="972" fill="#ffffff" y="-80.999999" height="971.999992" fill-opacity="1"/><rect x="-81" width="972" fill="#ffffff" y="-80.999999" height="971.999992" fill-opacity="1"/><g fill="#ffffff" fill-opacity="1"><g transform="translate(65.642428, 453.331521)"><g><path d="M 49.40625 -17.59375 C 53.132812 -17.59375 56.625 -18.335938 59.875 -19.828125 C 63.125 -21.316406 66.242188 -23.660156 69.234375 -26.859375 L 82.34375 -13.265625 C 78.082031 -8.578125 72.96875 -4.925781 67 -2.3125 C 61.03125 0.289062 54.847656 1.59375 48.453125 1.59375 C 42.367188 1.59375 36.632812 0.476562 31.25 -1.75 C 25.875 -3.988281 21.238281 -7.023438 17.34375 -10.859375 C 13.457031 -14.703125 10.394531 -19.257812 8.15625 -24.53125 C 5.914062 -29.8125 4.796875 -35.492188 4.796875 -41.578125 C 4.796875 -47.648438 5.914062 -53.320312 8.15625 -58.59375 C 10.394531 -63.875 13.457031 -68.457031 17.34375 -72.34375 C 21.238281 -76.238281 25.875 -79.304688 31.25 -81.546875 C 36.632812 -83.785156 42.367188 -84.90625 48.453125 -84.90625 C 55.054688 -84.90625 61.394531 -83.597656 67.46875 -80.984375 C 73.550781 -78.367188 78.722656 -74.71875 82.984375 -70.03125 L 69.546875 -55.796875 C 66.566406 -59.109375 63.367188 -61.613281 59.953125 -63.3125 C 56.546875 -65.019531 52.867188 -65.875 48.921875 -65.875 C 42.640625 -65.875 37.335938 -63.523438 33.015625 -58.828125 C 28.703125 -54.140625 26.546875 -48.390625 26.546875 -41.578125 C 26.546875 -34.753906 28.753906 -29.050781 33.171875 -24.46875 C 37.597656 -19.882812 43.007812 -17.59375 49.40625 -17.59375 Z M 49.40625 -17.59375 "/></g></g></g><g fill="#ffffff" fill-opacity="1"><g transform="translate(142.224101, 453.331521)"><g><path d="M 8.640625 0 L 8.640625 -111.921875 L 30.546875 -116.71875 L 30.546875 -76.75 C 33.734375 -79.414062 37.273438 -81.441406 41.171875 -82.828125 C 45.066406 -84.210938 49.304688 -84.90625 53.890625 -84.90625 C 63.472656 -84.90625 71.359375 -81.8125 77.546875 -75.625 C 83.734375 -69.445312 86.828125 -61.503906 86.828125 -51.796875 L 86.828125 0 L 64.921875 0 L 64.921875 -48.609375 C 64.921875 -53.828125 63.347656 -58.035156 60.203125 -61.234375 C 57.054688 -64.429688 52.867188 -66.03125 47.640625 -66.03125 C 44.023438 -66.03125 40.75 -65.3125 37.8125 -63.875 C 34.882812 -62.4375 32.460938 -60.382812 30.546875 -57.71875 L 30.546875 0 Z M 8.640625 0 "/></g></g></g><g fill="#ffffff" fill-opacity="1"><g transform="translate(228.558382, 453.331521)"><g><path d="M 83.296875 -10.390625 C 78.179688 -6.234375 72.929688 -3.195312 67.546875 -1.28125 C 62.171875 0.632812 56.175781 1.59375 49.5625 1.59375 C 43.269531 1.59375 37.378906 0.476562 31.890625 -1.75 C 26.398438 -3.988281 21.65625 -7.023438 17.65625 -10.859375 C 13.664062 -14.703125 10.523438 -19.257812 8.234375 -24.53125 C 5.941406 -29.8125 4.796875 -35.492188 4.796875 -41.578125 C 4.796875 -47.546875 5.890625 -53.164062 8.078125 -58.4375 C 10.265625 -63.71875 13.273438 -68.300781 17.109375 -72.1875 C 20.941406 -76.082031 25.492188 -79.144531 30.765625 -81.375 C 36.046875 -83.613281 41.671875 -84.734375 47.640625 -84.734375 C 53.503906 -84.734375 58.96875 -83.585938 64.03125 -81.296875 C 69.09375 -79.003906 73.460938 -75.882812 77.140625 -71.9375 C 80.816406 -68 83.695312 -63.285156 85.78125 -57.796875 C 87.863281 -52.304688 88.90625 -46.363281 88.90625 -39.96875 L 88.90625 -34.21875 L 26.859375 -34.21875 C 28.347656 -28.988281 31.222656 -24.773438 35.484375 -21.578125 C 39.753906 -18.378906 44.769531 -16.78125 50.53125 -16.78125 C 54.15625 -16.78125 57.566406 -17.367188 60.765625 -18.546875 C 63.960938 -19.722656 66.675781 -21.375 68.90625 -23.5 Z M 47.171875 -66.671875 C 42.160156 -66.671875 37.84375 -65.148438 34.21875 -62.109375 C 30.59375 -59.078125 28.085938 -55.003906 26.703125 -49.890625 L 67.46875 -49.890625 C 66.082031 -54.785156 63.550781 -58.804688 59.875 -61.953125 C 56.195312 -65.097656 51.960938 -66.671875 47.171875 -66.671875 Z M 47.171875 -66.671875 "/></g></g></g><g fill="#ffffff" fill-opacity="1"><g transform="translate(313.773512, 453.331521)"><g><path d="M 8.640625 0 L 8.640625 -83.296875 L 30.546875 -83.296875 L 30.546875 -77.0625 C 33.523438 -79.625 36.828125 -81.570312 40.453125 -82.90625 C 44.078125 -84.238281 48.019531 -84.90625 52.28125 -84.90625 C 57.613281 -84.90625 62.4375 -83.8125 66.75 -81.625 C 71.070312 -79.4375 74.617188 -76.375 77.390625 -72.4375 C 80.691406 -76.476562 84.6875 -79.566406 89.375 -81.703125 C 94.070312 -83.835938 99.242188 -84.90625 104.890625 -84.90625 C 114.160156 -84.90625 121.78125 -81.8125 127.75 -75.625 C 133.71875 -69.445312 136.703125 -61.503906 136.703125 -51.796875 L 136.703125 0 L 114.796875 0 L 114.796875 -48.609375 C 114.796875 -53.828125 113.382812 -58.035156 110.5625 -61.234375 C 107.738281 -64.429688 103.925781 -66.03125 99.125 -66.03125 C 95.820312 -66.03125 92.8125 -65.3125 90.09375 -63.875 C 87.375 -62.4375 85.054688 -60.382812 83.140625 -57.71875 C 83.242188 -56.757812 83.347656 -55.800781 83.453125 -54.84375 C 83.566406 -53.882812 83.625 -52.867188 83.625 -51.796875 L 83.625 0 L 61.71875 0 L 61.71875 -48.609375 C 61.71875 -53.828125 60.304688 -58.035156 57.484375 -61.234375 C 54.660156 -64.429688 50.847656 -66.03125 46.046875 -66.03125 C 42.742188 -66.03125 39.8125 -65.390625 37.25 -64.109375 C 34.695312 -62.835938 32.460938 -60.972656 30.546875 -58.515625 L 30.546875 0 Z M 8.640625 0 "/></g></g></g><g fill="#ffffff" fill-opacity="1"><g transform="translate(450.149882, 453.331521)"><g><path d="M 19.984375 -23.5 L 19.984375 -64.921875 L 2.875 -64.921875 L 2.875 -83.296875 L 19.984375 -83.296875 L 19.984375 -104.5625 L 41.890625 -109.53125 L 41.890625 -83.296875 L 65.5625 -83.296875 L 65.5625 -64.921875 L 41.890625 -64.921875 L 41.890625 -27.984375 C 41.890625 -24.035156 42.742188 -21.257812 44.453125 -19.65625 C 46.160156 -18.0625 49.144531 -17.265625 53.40625 -17.265625 C 55.425781 -17.265625 57.34375 -17.394531 59.15625 -17.65625 C 60.96875 -17.925781 62.941406 -18.4375 65.078125 -19.1875 L 65.078125 -1.28125 C 62.734375 -0.53125 59.90625 0.0820312 56.59375 0.5625 C 53.289062 1.039062 50.46875 1.28125 48.125 1.28125 C 38.851562 1.28125 31.84375 -0.820312 27.09375 -5.03125 C 22.351562 -9.25 19.984375 -15.40625 19.984375 -23.5 Z M 19.984375 -23.5 "/></g></g></g><g fill="#ffffff" fill-opacity="1"><g transform="translate(599.478339, 453.331521)"><g><path d="M 8.640625 0 L 8.640625 -83.296875 L 30.546875 -83.296875 L 30.546875 -77.0625 C 33.523438 -79.625 36.828125 -81.570312 40.453125 -82.90625 C 44.078125 -84.238281 48.019531 -84.90625 52.28125 -84.90625 C 57.613281 -84.90625 62.4375 -83.8125 66.75 -81.625 C 71.070312 -79.4375 74.617188 -76.375 77.390625 -72.4375 C 80.691406 -76.476562 84.6875 -79.566406 89.375 -81.703125 C 94.070312 -83.835938 99.242188 -84.90625 104.890625 -84.90625 C 114.160156 -84.90625 121.78125 -81.8125 127.75 -75.625 C 133.71875 -69.445312 136.703125 -61.503906 136.703125 -51.796875 L 136.703125 0 L 114.796875 0 L 114.796875 -48.609375 C 114.796875 -53.828125 113.382812 -58.035156 110.5625 -61.234375 C 107.738281 -64.429688 103.925781 -66.03125 99.125 -66.03125 C 95.820312 -66.03125 92.8125 -65.3125 90.09375 -63.875 C 87.375 -62.4375 85.054688 -60.382812 83.140625 -57.71875 C 83.242188 -56.757812 83.347656 -55.800781 83.453125 -54.84375 C 83.566406 -53.882812 83.625 -52.867188 83.625 -51.796875 L 83.625 0 L 61.71875 0 L 61.71875 -48.609375 C 61.71875 -53.828125 60.304688 -58.035156 57.484375 -61.234375 C 54.660156 -64.429688 50.847656 -66.03125 46.046875 -66.03125 C 42.742188 -66.03125 39.8125 -65.390625 37.25 -64.109375 C 34.695312 -62.835938 32.460938 -60.972656 30.546875 -58.515625 L 30.546875 0 Z M 8.640625 0 "/></g></g></g><g transform="matrix(1, 0, 0, 1, 0, 0.000000000000039746)"><g clip-path="url(#9177133da8)"><g mask="url(#9817d531d0)"><g transform="matrix(1, 0, 0, 1, 0, 0.000000000000039746)"><g clip-path="url(#87fc5685eb)"><path fill="url(#db0a89050f)" d="M 190 0 L 190 810 L 810 810 L 810 0 Z M 190 0 " fill-rule="nonzero"/></g></g></g></g></g><g transform="matrix(1, 0, 0, 1, 133, 474)"><g clip-path="url(#26e4c03930)"><g fill="#ffffff" fill-opacity="1"><g transform="translate(1.98154, 27.323064)"><g><path d="M 7.125 0 L 5.015625 0 L 0.9375 -18.90625 L 3.046875 -18.90625 L 6.265625 -3.296875 L 10.9375 -18.90625 L 12.953125 -18.90625 L 17.625 -3.34375 L 20.875 -18.90625 L 22.890625 -18.90625 L 18.8125 0 L 16.71875 0 L 11.9375 -16.015625 Z M 7.125 0 "/></g></g></g><g fill="#ffffff" fill-opacity="1"><g transform="translate(30.315517, 27.323064)"><g><path d="M 1.703125 0 L 1.703125 -18.90625 L 3.703125 -19.359375 L 3.703125 -11.9375 C 4.222656 -12.550781 4.84375 -13.015625 5.5625 -13.328125 C 6.28125 -13.640625 7.082031 -13.796875 7.96875 -13.796875 C 9.5 -13.796875 10.75 -13.304688 11.71875 -12.328125 C 12.6875 -11.359375 13.171875 -10.101562 13.171875 -8.5625 L 13.171875 0 L 11.203125 0 L 11.203125 -8.15625 C 11.203125 -9.34375 10.859375 -10.285156 10.171875 -10.984375 C 9.492188 -11.691406 8.578125 -12.046875 7.421875 -12.046875 C 6.609375 -12.046875 5.882812 -11.863281 5.25 -11.5 C 4.613281 -11.144531 4.097656 -10.632812 3.703125 -9.96875 L 3.703125 0 Z M 1.703125 0 "/></g></g></g><g fill="#ffffff" fill-opacity="1"><g transform="translate(49.664423, 27.323064)"><g><path d="M 13.09375 -1.4375 C 12.34375 -0.875 11.554688 -0.453125 10.734375 -0.171875 C 9.910156 0.109375 9.015625 0.25 8.046875 0.25 C 7.078125 0.25 6.160156 0.0664062 5.296875 -0.296875 C 4.441406 -0.660156 3.703125 -1.15625 3.078125 -1.78125 C 2.460938 -2.414062 1.972656 -3.160156 1.609375 -4.015625 C 1.253906 -4.867188 1.078125 -5.789062 1.078125 -6.78125 C 1.078125 -7.75 1.253906 -8.65625 1.609375 -9.5 C 1.960938 -10.34375 2.4375 -11.078125 3.03125 -11.703125 C 3.625 -12.335938 4.328125 -12.835938 5.140625 -13.203125 C 5.960938 -13.566406 6.832031 -13.75 7.75 -13.75 C 8.644531 -13.75 9.484375 -13.566406 10.265625 -13.203125 C 11.054688 -12.835938 11.734375 -12.335938 12.296875 -11.703125 C 12.867188 -11.078125 13.316406 -10.34375 13.640625 -9.5 C 13.972656 -8.65625 14.140625 -7.75 14.140625 -6.78125 L 14.140625 -6.15625 L 3.046875 -6.15625 C 3.191406 -4.820312 3.738281 -3.710938 4.6875 -2.828125 C 5.644531 -1.953125 6.789062 -1.515625 8.125 -1.515625 C 8.832031 -1.515625 9.515625 -1.617188 10.171875 -1.828125 C 10.835938 -2.046875 11.398438 -2.351562 11.859375 -2.75 Z M 7.6875 -11.984375 C 6.519531 -11.984375 5.507812 -11.585938 4.65625 -10.796875 C 3.800781 -10.003906 3.285156 -8.988281 3.109375 -7.75 L 12.15625 -7.75 C 11.96875 -8.9375 11.457031 -9.9375 10.625 -10.75 C 9.789062 -11.570312 8.8125 -11.984375 7.6875 -11.984375 Z M 7.6875 -11.984375 "/></g></g></g><g fill="#ffffff" fill-opacity="1"><g transform="translate(69.41807, 27.323064)"><g><path d="M 1.703125 0 L 1.703125 -13.53125 L 3.703125 -13.53125 L 3.703125 -11.609375 C 4.097656 -12.304688 4.617188 -12.847656 5.265625 -13.234375 C 5.910156 -13.628906 6.648438 -13.828125 7.484375 -13.828125 C 7.734375 -13.828125 7.957031 -13.8125 8.15625 -13.78125 C 8.351562 -13.757812 8.550781 -13.710938 8.75 -13.640625 L 8.75 -11.796875 C 8.507812 -11.867188 8.269531 -11.925781 8.03125 -11.96875 C 7.800781 -12.019531 7.570312 -12.046875 7.34375 -12.046875 C 6.519531 -12.046875 5.789062 -11.804688 5.15625 -11.328125 C 4.53125 -10.847656 4.046875 -10.160156 3.703125 -9.265625 L 3.703125 0 Z M 1.703125 0 "/></g></g></g><g fill="#ffffff" fill-opacity="1"><g transform="translate(83.289598, 27.323064)"><g><path d="M 13.09375 -1.4375 C 12.34375 -0.875 11.554688 -0.453125 10.734375 -0.171875 C 9.910156 0.109375 9.015625 0.25 8.046875 0.25 C 7.078125 0.25 6.160156 0.0664062 5.296875 -0.296875 C 4.441406 -0.660156 3.703125 -1.15625 3.078125 -1.78125 C 2.460938 -2.414062 1.972656 -3.160156 1.609375 -4.015625 C 1.253906 -4.867188 1.078125 -5.789062 1.078125 -6.78125 C 1.078125 -7.75 1.253906 -8.65625 1.609375 -9.5 C 1.960938 -10.34375 2.4375 -11.078125 3.03125 -11.703125 C 3.625 -12.335938 4.328125 -12.835938 5.140625 -13.203125 C 5.960938 -13.566406 6.832031 -13.75 7.75 -13.75 C 8.644531 -13.75 9.484375 -13.566406 10.265625 -13.203125 C 11.054688 -12.835938 11.734375 -12.335938 12.296875 -11.703125 C 12.867188 -11.078125 13.316406 -10.34375 13.640625 -9.5 C 13.972656 -8.65625 14.140625 -7.75 14.140625 -6.78125 L 14.140625 -6.15625 L 3.046875 -6.15625 C 3.191406 -4.820312 3.738281 -3.710938 4.6875 -2.828125 C 5.644531 -1.953125 6.789062 -1.515625 8.125 -1.515625 C 8.832031 -1.515625 9.515625 -1.617188 10.171875 -1.828125 C 10.835938 -2.046875 11.398438 -2.351562 11.859375 -2.75 Z M 7.6875 -11.984375 C 6.519531 -11.984375 5.507812 -11.585938 4.65625 -10.796875 C 3.800781 -10.003906 3.285156 -8.988281 3.109375 -7.75 L 12.15625 -7.75 C 11.96875 -8.9375 11.457031 -9.9375 10.625 -10.75 C 9.789062 -11.570312 8.8125 -11.984375 7.6875 -11.984375 Z M 7.6875 -11.984375 "/></g></g></g><g fill="#ffffff" fill-opacity="1"><g transform="translate(103.043245, 27.323064)"><g/></g></g><g fill="#ffffff" fill-opacity="1"><g transform="translate(113.380096, 27.323064)"><g><path d="M 11.046875 -1.625 C 12.210938 -1.625 13.328125 -1.851562 14.390625 -2.3125 C 15.453125 -2.769531 16.34375 -3.40625 17.0625 -4.21875 L 18.40625 -2.8125 C 17.476562 -1.832031 16.363281 -1.066406 15.0625 -0.515625 C 13.769531 0.0234375 12.410156 0.296875 10.984375 0.296875 C 9.617188 0.296875 8.335938 0.046875 7.140625 -0.453125 C 5.941406 -0.960938 4.898438 -1.648438 4.015625 -2.515625 C 3.140625 -3.390625 2.445312 -4.425781 1.9375 -5.625 C 1.4375 -6.820312 1.1875 -8.097656 1.1875 -9.453125 C 1.1875 -10.796875 1.4375 -12.066406 1.9375 -13.265625 C 2.445312 -14.460938 3.140625 -15.5 4.015625 -16.375 C 4.898438 -17.25 5.941406 -17.9375 7.140625 -18.4375 C 8.335938 -18.945312 9.617188 -19.203125 10.984375 -19.203125 C 12.441406 -19.203125 13.820312 -18.925781 15.125 -18.375 C 16.4375 -17.820312 17.550781 -17.0625 18.46875 -16.09375 L 17.09375 -14.640625 C 16.351562 -15.460938 15.4375 -16.109375 14.34375 -16.578125 C 13.257812 -17.046875 12.140625 -17.28125 10.984375 -17.28125 C 9.910156 -17.28125 8.898438 -17.078125 7.953125 -16.671875 C 7.003906 -16.265625 6.1875 -15.710938 5.5 -15.015625 C 4.820312 -14.328125 4.285156 -13.5 3.890625 -12.53125 C 3.492188 -11.570312 3.296875 -10.546875 3.296875 -9.453125 C 3.296875 -8.347656 3.492188 -7.3125 3.890625 -6.34375 C 4.285156 -5.382812 4.828125 -4.554688 5.515625 -3.859375 C 6.210938 -3.171875 7.03125 -2.625 7.96875 -2.21875 C 8.914062 -1.820312 9.941406 -1.625 11.046875 -1.625 Z M 11.046875 -1.625 "/></g></g></g><g fill="#ffffff" fill-opacity="1"><g transform="translate(137.396922, 27.323064)"><g><path d="M 1.703125 0 L 1.703125 -18.90625 L 3.703125 -19.359375 L 3.703125 -11.9375 C 4.222656 -12.550781 4.84375 -13.015625 5.5625 -13.328125 C 6.28125 -13.640625 7.082031 -13.796875 7.96875 -13.796875 C 9.5 -13.796875 10.75 -13.304688 11.71875 -12.328125 C 12.6875 -11.359375 13.171875 -10.101562 13.171875 -8.5625 L 13.171875 0 L 11.203125 0 L 11.203125 -8.15625 C 11.203125 -9.34375 10.859375 -10.285156 10.171875 -10.984375 C 9.492188 -11.691406 8.578125 -12.046875 7.421875 -12.046875 C 6.609375 -12.046875 5.882812 -11.863281 5.25 -11.5 C 4.613281 -11.144531 4.097656 -10.632812 3.703125 -9.96875 L 3.703125 0 Z M 1.703125 0 "/></g></g></g><g fill="#ffffff" fill-opacity="1"><g transform="translate(156.745829, 27.323064)"><g><path d="M 13.09375 -1.4375 C 12.34375 -0.875 11.554688 -0.453125 10.734375 -0.171875 C 9.910156 0.109375 9.015625 0.25 8.046875 0.25 C 7.078125 0.25 6.160156 0.0664062 5.296875 -0.296875 C 4.441406 -0.660156 3.703125 -1.15625 3.078125 -1.78125 C 2.460938 -2.414062 1.972656 -3.160156 1.609375 -4.015625 C 1.253906 -4.867188 1.078125 -5.789062 1.078125 -6.78125 C 1.078125 -7.75 1.253906 -8.65625 1.609375 -9.5 C 1.960938 -10.34375 2.4375 -11.078125 3.03125 -11.703125 C 3.625 -12.335938 4.328125 -12.835938 5.140625 -13.203125 C 5.960938 -13.566406 6.832031 -13.75 7.75 -13.75 C 8.644531 -13.75 9.484375 -13.566406 10.265625 -13.203125 C 11.054688 -12.835938 11.734375 -12.335938 12.296875 -11.703125 C 12.867188 -11.078125 13.316406 -10.34375 13.640625 -9.5 C 13.972656 -8.65625 14.140625 -7.75 14.140625 -6.78125 L 14.140625 -6.15625 L 3.046875 -6.15625 C 3.191406 -4.820312 3.738281 -3.710938 4.6875 -2.828125 C 5.644531 -1.953125 6.789062 -1.515625 8.125 -1.515625 C 8.832031 -1.515625 9.515625 -1.617188 10.171875 -1.828125 C 10.835938 -2.046875 11.398438 -2.351562 11.859375 -2.75 Z M 7.6875 -11.984375 C 6.519531 -11.984375 5.507812 -11.585938 4.65625 -10.796875 C 3.800781 -10.003906 3.285156 -8.988281 3.109375 -7.75 L 12.15625 -7.75 C 11.96875 -8.9375 11.457031 -9.9375 10.625 -10.75 C 9.789062 -11.570312 8.8125 -11.984375 7.6875 -11.984375 Z M 7.6875 -11.984375 "/></g></g></g><g fill="#ffffff" fill-opacity="1"><g transform="translate(176.499476, 27.323064)"><g><path d="M 1.703125 0 L 1.703125 -13.53125 L 3.703125 -13.53125 L 3.703125 -12.046875 C 4.203125 -12.617188 4.785156 -13.050781 5.453125 -13.34375 C 6.117188 -13.644531 6.859375 -13.796875 7.671875 -13.796875 C 8.609375 -13.796875 9.445312 -13.570312 10.1875 -13.125 C 10.9375 -12.6875 11.519531 -12.09375 11.9375 -11.34375 C 12.488281 -12.164062 13.15625 -12.78125 13.9375 -13.1875 C 14.726562 -13.59375 15.609375 -13.796875 16.578125 -13.796875 C 18.035156 -13.796875 19.226562 -13.304688 20.15625 -12.328125 C 21.082031 -11.359375 21.546875 -10.101562 21.546875 -8.5625 L 21.546875 0 L 19.578125 0 L 19.578125 -8.15625 C 19.578125 -9.34375 19.257812 -10.285156 18.625 -10.984375 C 18 -11.691406 17.144531 -12.046875 16.0625 -12.046875 C 15.320312 -12.046875 14.644531 -11.851562 14.03125 -11.46875 C 13.425781 -11.09375 12.90625 -10.546875 12.46875 -9.828125 C 12.507812 -9.628906 12.539062 -9.425781 12.5625 -9.21875 C 12.59375 -9.007812 12.609375 -8.789062 12.609375 -8.5625 L 12.609375 0 L 10.640625 0 L 10.640625 -8.15625 C 10.640625 -9.34375 10.320312 -10.285156 9.6875 -10.984375 C 9.0625 -11.691406 8.21875 -12.046875 7.15625 -12.046875 C 6.4375 -12.046875 5.78125 -11.878906 5.1875 -11.546875 C 4.601562 -11.210938 4.109375 -10.722656 3.703125 -10.078125 L 3.703125 0 Z M 1.703125 0 "/></g></g></g><g fill="#ffffff" fill-opacity="1"><g transform="translate(204.212871, 27.323064)"><g><path d="M 2.703125 -16.125 C 2.335938 -16.125 2.019531 -16.253906 1.75 -16.515625 C 1.476562 -16.785156 1.34375 -17.101562 1.34375 -17.46875 C 1.34375 -17.84375 1.476562 -18.160156 1.75 -18.421875 C 2.019531 -18.679688 2.335938 -18.8125 2.703125 -18.8125 C 3.078125 -18.8125 3.394531 -18.679688 3.65625 -18.421875 C 3.914062 -18.160156 4.046875 -17.84375 4.046875 -17.46875 C 4.046875 -17.101562 3.914062 -16.785156 3.65625 -16.515625 C 3.394531 -16.253906 3.078125 -16.125 2.703125 -16.125 Z M 3.703125 -13.53125 L 3.703125 0 L 1.703125 0 L 1.703125 -13.53125 Z M 3.703125 -13.53125 "/></g></g></g><g fill="#ffffff" fill-opacity="1"><g transform="translate(214.145003, 27.323064)"><g><path d="M 0.328125 -1.859375 L 1.53125 -3.15625 C 2.144531 -2.582031 2.832031 -2.132812 3.59375 -1.8125 C 4.363281 -1.5 5.144531 -1.34375 5.9375 -1.34375 C 7.019531 -1.34375 7.898438 -1.566406 8.578125 -2.015625 C 9.265625 -2.472656 9.609375 -3.0625 9.609375 -3.78125 C 9.609375 -4.351562 9.40625 -4.804688 9 -5.140625 C 8.59375 -5.472656 7.957031 -5.703125 7.09375 -5.828125 L 4.75 -6.15625 C 3.40625 -6.351562 2.398438 -6.753906 1.734375 -7.359375 C 1.078125 -7.960938 0.75 -8.773438 0.75 -9.796875 C 0.75 -10.929688 1.226562 -11.875 2.1875 -12.625 C 3.144531 -13.375 4.359375 -13.75 5.828125 -13.75 C 6.804688 -13.75 7.726562 -13.601562 8.59375 -13.3125 C 9.46875 -13.019531 10.320312 -12.570312 11.15625 -11.96875 L 10.09375 -10.609375 C 9.34375 -11.109375 8.609375 -11.484375 7.890625 -11.734375 C 7.179688 -11.992188 6.457031 -12.125 5.71875 -12.125 C 4.800781 -12.125 4.050781 -11.914062 3.46875 -11.5 C 2.882812 -11.082031 2.59375 -10.539062 2.59375 -9.875 C 2.59375 -9.300781 2.789062 -8.859375 3.1875 -8.546875 C 3.582031 -8.234375 4.222656 -8.015625 5.109375 -7.890625 L 7.453125 -7.5625 C 8.804688 -7.382812 9.816406 -6.984375 10.484375 -6.359375 C 11.160156 -5.734375 11.5 -4.910156 11.5 -3.890625 C 11.5 -3.316406 11.359375 -2.769531 11.078125 -2.25 C 10.804688 -1.738281 10.421875 -1.296875 9.921875 -0.921875 C 9.429688 -0.554688 8.851562 -0.269531 8.1875 -0.0625 C 7.519531 0.144531 6.796875 0.25 6.015625 0.25 C 4.898438 0.25 3.851562 0.0664062 2.875 -0.296875 C 1.894531 -0.671875 1.046875 -1.191406 0.328125 -1.859375 Z M 0.328125 -1.859375 "/></g></g></g><g fill="#ffffff" fill-opacity="1"><g transform="translate(230.714742, 27.323064)"><g><path d="M 3.375 -3.03125 L 3.375 -11.828125 L 0.453125 -11.828125 L 0.453125 -13.53125 L 3.375 -13.53125 L 3.375 -16.953125 L 5.34375 -17.46875 L 5.34375 -13.53125 L 9.421875 -13.53125 L 9.421875 -11.828125 L 5.34375 -11.828125 L 5.34375 -3.53125 C 5.34375 -2.8125 5.503906 -2.296875 5.828125 -1.984375 C 6.148438 -1.671875 6.679688 -1.515625 7.421875 -1.515625 C 7.796875 -1.515625 8.132812 -1.539062 8.4375 -1.59375 C 8.738281 -1.644531 9.054688 -1.734375 9.390625 -1.859375 L 9.390625 -0.109375 C 9.054688 0.015625 8.675781 0.101562 8.25 0.15625 C 7.820312 0.21875 7.410156 0.25 7.015625 0.25 C 5.847656 0.25 4.945312 -0.03125 4.3125 -0.59375 C 3.6875 -1.15625 3.375 -1.96875 3.375 -3.03125 Z M 3.375 -3.03125 "/></g></g></g><g fill="#ffffff" fill-opacity="1"><g transform="translate(245.098931, 27.323064)"><g><path d="M 1.703125 0 L 1.703125 -13.53125 L 3.703125 -13.53125 L 3.703125 -11.609375 C 4.097656 -12.304688 4.617188 -12.847656 5.265625 -13.234375 C 5.910156 -13.628906 6.648438 -13.828125 7.484375 -13.828125 C 7.734375 -13.828125 7.957031 -13.8125 8.15625 -13.78125 C 8.351562 -13.757812 8.550781 -13.710938 8.75 -13.640625 L 8.75 -11.796875 C 8.507812 -11.867188 8.269531 -11.925781 8.03125 -11.96875 C 7.800781 -12.019531 7.570312 -12.046875 7.34375 -12.046875 C 6.519531 -12.046875 5.789062 -11.804688 5.15625 -11.328125 C 4.53125 -10.847656 4.046875 -10.160156 3.703125 -9.265625 L 3.703125 0 Z M 1.703125 0 "/></g></g></g><g fill="#ffffff" fill-opacity="1"><g transform="translate(258.970459, 27.323064)"><g><path d="M 4.859375 1.75 L 5.640625 -0.03125 L 0.140625 -13.53125 L 2.34375 -13.53125 L 6.71875 -2.4375 L 11.453125 -13.53125 L 13.609375 -13.53125 L 6.890625 2.03125 C 6.304688 3.320312 5.664062 4.253906 4.96875 4.828125 C 4.269531 5.410156 3.378906 5.703125 2.296875 5.703125 C 2.046875 5.703125 1.804688 5.6875 1.578125 5.65625 C 1.347656 5.625 1.164062 5.59375 1.03125 5.5625 L 1.03125 3.75 C 1.207031 3.789062 1.378906 3.816406 1.546875 3.828125 C 1.722656 3.847656 1.925781 3.859375 2.15625 3.859375 C 2.769531 3.859375 3.289062 3.6875 3.71875 3.34375 C 4.15625 3 4.535156 2.46875 4.859375 1.75 Z M 4.859375 1.75 "/></g></g></g><g fill="#ffffff" fill-opacity="1"><g transform="translate(277.267058, 27.323064)"><g/></g></g><g fill="#ffffff" fill-opacity="1"><g transform="translate(287.603908, 27.323064)"><g><path d="M 11.421875 -1.34375 L 4.015625 -16.5 L 4.015625 0 L 2.078125 0 L 2.078125 -18.90625 L 5 -18.90625 L 11.453125 -5.484375 L 17.875 -18.90625 L 20.796875 -18.90625 L 20.796875 0 L 18.8125 0 L 18.8125 -16.53125 Z M 11.421875 -1.34375 "/></g></g></g><g fill="#ffffff" fill-opacity="1"><g transform="translate(314.993521, 27.323064)"><g><path d="M 13.09375 -1.4375 C 12.34375 -0.875 11.554688 -0.453125 10.734375 -0.171875 C 9.910156 0.109375 9.015625 0.25 8.046875 0.25 C 7.078125 0.25 6.160156 0.0664062 5.296875 -0.296875 C 4.441406 -0.660156 3.703125 -1.15625 3.078125 -1.78125 C 2.460938 -2.414062 1.972656 -3.160156 1.609375 -4.015625 C 1.253906 -4.867188 1.078125 -5.789062 1.078125 -6.78125 C 1.078125 -7.75 1.253906 -8.65625 1.609375 -9.5 C 1.960938 -10.34375 2.4375 -11.078125 3.03125 -11.703125 C 3.625 -12.335938 4.328125 -12.835938 5.140625 -13.203125 C 5.960938 -13.566406 6.832031 -13.75 7.75 -13.75 C 8.644531 -13.75 9.484375 -13.566406 10.265625 -13.203125 C 11.054688 -12.835938 11.734375 -12.335938 12.296875 -11.703125 C 12.867188 -11.078125 13.316406 -10.34375 13.640625 -9.5 C 13.972656 -8.65625 14.140625 -7.75 14.140625 -6.78125 L 14.140625 -6.15625 L 3.046875 -6.15625 C 3.191406 -4.820312 3.738281 -3.710938 4.6875 -2.828125 C 5.644531 -1.953125 6.789062 -1.515625 8.125 -1.515625 C 8.832031 -1.515625 9.515625 -1.617188 10.171875 -1.828125 C 10.835938 -2.046875 11.398438 -2.351562 11.859375 -2.75 Z M 7.6875 -11.984375 C 6.519531 -11.984375 5.507812 -11.585938 4.65625 -10.796875 C 3.800781 -10.003906 3.285156 -8.988281 3.109375 -7.75 L 12.15625 -7.75 C 11.96875 -8.9375 11.457031 -9.9375 10.625 -10.75 C 9.789062 -11.570312 8.8125 -11.984375 7.6875 -11.984375 Z M 7.6875 -11.984375 "/></g></g></g><g fill="#ffffff" fill-opacity="1"><g transform="translate(334.747168, 27.323064)"><g><path d="M 13.09375 -1.4375 C 12.34375 -0.875 11.554688 -0.453125 10.734375 -0.171875 C 9.910156 0.109375 9.015625 0.25 8.046875 0.25 C 7.078125 0.25 6.160156 0.0664062 5.296875 -0.296875 C 4.441406 -0.660156 3.703125 -1.15625 3.078125 -1.78125 C 2.460938 -2.414062 1.972656 -3.160156 1.609375 -4.015625 C 1.253906 -4.867188 1.078125 -5.789062 1.078125 -6.78125 C 1.078125 -7.75 1.253906 -8.65625 1.609375 -9.5 C 1.960938 -10.34375 2.4375 -11.078125 3.03125 -11.703125 C 3.625 -12.335938 4.328125 -12.835938 5.140625 -13.203125 C 5.960938 -13.566406 6.832031 -13.75 7.75 -13.75 C 8.644531 -13.75 9.484375 -13.566406 10.265625 -13.203125 C 11.054688 -12.835938 11.734375 -12.335938 12.296875 -11.703125 C 12.867188 -11.078125 13.316406 -10.34375 13.640625 -9.5 C 13.972656 -8.65625 14.140625 -7.75 14.140625 -6.78125 L 14.140625 -6.15625 L 3.046875 -6.15625 C 3.191406 -4.820312 3.738281 -3.710938 4.6875 -2.828125 C 5.644531 -1.953125 6.789062 -1.515625 8.125 -1.515625 C 8.832031 -1.515625 9.515625 -1.617188 10.171875 -1.828125 C 10.835938 -2.046875 11.398438 -2.351562 11.859375 -2.75 Z M 7.6875 -11.984375 C 6.519531 -11.984375 5.507812 -11.585938 4.65625 -10.796875 C 3.800781 -10.003906 3.285156 -8.988281 3.109375 -7.75 L 12.15625 -7.75 C 11.96875 -8.9375 11.457031 -9.9375 10.625 -10.75 C 9.789062 -11.570312 8.8125 -11.984375 7.6875 -11.984375 Z M 7.6875 -11.984375 "/></g></g></g><g fill="#ffffff" fill-opacity="1"><g transform="translate(354.500815, 27.323064)"><g><path d="M 3.375 -3.03125 L 3.375 -11.828125 L 0.453125 -11.828125 L 0.453125 -13.53125 L 3.375 -13.53125 L 3.375 -16.953125 L 5.34375 -17.46875 L 5.34375 -13.53125 L 9.421875 -13.53125 L 9.421875 -11.828125 L 5.34375 -11.828125 L 5.34375 -3.53125 C 5.34375 -2.8125 5.503906 -2.296875 5.828125 -1.984375 C 6.148438 -1.671875 6.679688 -1.515625 7.421875 -1.515625 C 7.796875 -1.515625 8.132812 -1.539062 8.4375 -1.59375 C 8.738281 -1.644531 9.054688 -1.734375 9.390625 -1.859375 L 9.390625 -0.109375 C 9.054688 0.015625 8.675781 0.101562 8.25 0.15625 C 7.820312 0.21875 7.410156 0.25 7.015625 0.25 C 5.847656 0.25 4.945312 -0.03125 4.3125 -0.59375 C 3.6875 -1.15625 3.375 -1.96875 3.375 -3.03125 Z M 3.375 -3.03125 "/></g></g></g><g fill="#ffffff" fill-opacity="1"><g transform="translate(368.885004, 27.323064)"><g><path d="M 0.328125 -1.859375 L 1.53125 -3.15625 C 2.144531 -2.582031 2.832031 -2.132812 3.59375 -1.8125 C 4.363281 -1.5 5.144531 -1.34375 5.9375 -1.34375 C 7.019531 -1.34375 7.898438 -1.566406 8.578125 -2.015625 C 9.265625 -2.472656 9.609375 -3.0625 9.609375 -3.78125 C 9.609375 -4.351562 9.40625 -4.804688 9 -5.140625 C 8.59375 -5.472656 7.957031 -5.703125 7.09375 -5.828125 L 4.75 -6.15625 C 3.40625 -6.351562 2.398438 -6.753906 1.734375 -7.359375 C 1.078125 -7.960938 0.75 -8.773438 0.75 -9.796875 C 0.75 -10.929688 1.226562 -11.875 2.1875 -12.625 C 3.144531 -13.375 4.359375 -13.75 5.828125 -13.75 C 6.804688 -13.75 7.726562 -13.601562 8.59375 -13.3125 C 9.46875 -13.019531 10.320312 -12.570312 11.15625 -11.96875 L 10.09375 -10.609375 C 9.34375 -11.109375 8.609375 -11.484375 7.890625 -11.734375 C 7.179688 -11.992188 6.457031 -12.125 5.71875 -12.125 C 4.800781 -12.125 4.050781 -11.914062 3.46875 -11.5 C 2.882812 -11.082031 2.59375 -10.539062 2.59375 -9.875 C 2.59375 -9.300781 2.789062 -8.859375 3.1875 -8.546875 C 3.582031 -8.234375 4.222656 -8.015625 5.109375 -7.890625 L 7.453125 -7.5625 C 8.804688 -7.382812 9.816406 -6.984375 10.484375 -6.359375 C 11.160156 -5.734375 11.5 -4.910156 11.5 -3.890625 C 11.5 -3.316406 11.359375 -2.769531 11.078125 -2.25 C 10.804688 -1.738281 10.421875 -1.296875 9.921875 -0.921875 C 9.429688 -0.554688 8.851562 -0.269531 8.1875 -0.0625 C 7.519531 0.144531 6.796875 0.25 6.015625 0.25 C 4.898438 0.25 3.851562 0.0664062 2.875 -0.296875 C 1.894531 -0.671875 1.046875 -1.191406 0.328125 -1.859375 Z M 0.328125 -1.859375 "/></g></g></g><g fill="#ffffff" fill-opacity="1"><g transform="translate(385.454742, 27.323064)"><g/></g></g><g fill="#ffffff" fill-opacity="1"><g transform="translate(395.791615, 27.323064)"><g><path d="M 2.078125 0 L 2.078125 -18.90625 L 10.28125 -18.90625 C 12.125 -18.90625 13.601562 -18.40625 14.71875 -17.40625 C 15.832031 -16.40625 16.390625 -15.085938 16.390625 -13.453125 C 16.390625 -11.804688 15.828125 -10.476562 14.703125 -9.46875 C 13.578125 -8.46875 12.101562 -7.96875 10.28125 -7.96875 L 4.15625 -7.96875 L 4.15625 0 Z M 10.125 -17.03125 L 4.15625 -17.03125 L 4.15625 -9.78125 L 10.125 -9.78125 C 11.40625 -9.78125 12.421875 -10.109375 13.171875 -10.765625 C 13.929688 -11.421875 14.3125 -12.304688 14.3125 -13.421875 C 14.3125 -14.535156 13.929688 -15.414062 13.171875 -16.0625 C 12.421875 -16.707031 11.40625 -17.03125 10.125 -17.03125 Z M 10.125 -17.03125 "/></g></g></g><g fill="#ffffff" fill-opacity="1"><g transform="translate(417.784783, 27.323064)"><g><path d="M 1.703125 0 L 1.703125 -13.53125 L 3.703125 -13.53125 L 3.703125 -11.609375 C 4.097656 -12.304688 4.617188 -12.847656 5.265625 -13.234375 C 5.910156 -13.628906 6.648438 -13.828125 7.484375 -13.828125 C 7.734375 -13.828125 7.957031 -13.8125 8.15625 -13.78125 C 8.351562 -13.757812 8.550781 -13.710938 8.75 -13.640625 L 8.75 -11.796875 C 8.507812 -11.867188 8.269531 -11.925781 8.03125 -11.96875 C 7.800781 -12.019531 7.570312 -12.046875 7.34375 -12.046875 C 6.519531 -12.046875 5.789062 -11.804688 5.15625 -11.328125 C 4.53125 -10.847656 4.046875 -10.160156 3.703125 -9.265625 L 3.703125 0 Z M 1.703125 0 "/></g></g></g><g fill="#ffffff" fill-opacity="1"><g transform="translate(431.656311, 27.323064)"><g><path d="M 13.09375 -1.4375 C 12.34375 -0.875 11.554688 -0.453125 10.734375 -0.171875 C 9.910156 0.109375 9.015625 0.25 8.046875 0.25 C 7.078125 0.25 6.160156 0.0664062 5.296875 -0.296875 C 4.441406 -0.660156 3.703125 -1.15625 3.078125 -1.78125 C 2.460938 -2.414062 1.972656 -3.160156 1.609375 -4.015625 C 1.253906 -4.867188 1.078125 -5.789062 1.078125 -6.78125 C 1.078125 -7.75 1.253906 -8.65625 1.609375 -9.5 C 1.960938 -10.34375 2.4375 -11.078125 3.03125 -11.703125 C 3.625 -12.335938 4.328125 -12.835938 5.140625 -13.203125 C 5.960938 -13.566406 6.832031 -13.75 7.75 -13.75 C 8.644531 -13.75 9.484375 -13.566406 10.265625 -13.203125 C 11.054688 -12.835938 11.734375 -12.335938 12.296875 -11.703125 C 12.867188 -11.078125 13.316406 -10.34375 13.640625 -9.5 C 13.972656 -8.65625 14.140625 -7.75 14.140625 -6.78125 L 14.140625 -6.15625 L 3.046875 -6.15625 C 3.191406 -4.820312 3.738281 -3.710938 4.6875 -2.828125 C 5.644531 -1.953125 6.789062 -1.515625 8.125 -1.515625 C 8.832031 -1.515625 9.515625 -1.617188 10.171875 -1.828125 C 10.835938 -2.046875 11.398438 -2.351562 11.859375 -2.75 Z M 7.6875 -11.984375 C 6.519531 -11.984375 5.507812 -11.585938 4.65625 -10.796875 C 3.800781 -10.003906 3.285156 -8.988281 3.109375 -7.75 L 12.15625 -7.75 C 11.96875 -8.9375 11.457031 -9.9375 10.625 -10.75 C 9.789062 -11.570312 8.8125 -11.984375 7.6875 -11.984375 Z M 7.6875 -11.984375 "/></g></g></g><g fill="#ffffff" fill-opacity="1"><g transform="translate(451.409958, 27.323064)"><g><path d="M 8.015625 -1.5625 C 8.734375 -1.5625 9.425781 -1.707031 10.09375 -2 C 10.757812 -2.289062 11.382812 -2.710938 11.96875 -3.265625 L 13.203125 -1.921875 C 12.484375 -1.234375 11.671875 -0.695312 10.765625 -0.3125 C 9.867188 0.0625 8.9375 0.25 7.96875 0.25 C 7.007812 0.25 6.109375 0.0664062 5.265625 -0.296875 C 4.421875 -0.660156 3.691406 -1.15625 3.078125 -1.78125 C 2.460938 -2.414062 1.972656 -3.160156 1.609375 -4.015625 C 1.253906 -4.878906 1.078125 -5.800781 1.078125 -6.78125 C 1.078125 -7.75 1.253906 -8.660156 1.609375 -9.515625 C 1.972656 -10.367188 2.460938 -11.109375 3.078125 -11.734375 C 3.691406 -12.367188 4.421875 -12.867188 5.265625 -13.234375 C 6.109375 -13.609375 7.007812 -13.796875 7.96875 -13.796875 C 8.9375 -13.796875 9.882812 -13.601562 10.8125 -13.21875 C 11.738281 -12.84375 12.550781 -12.320312 13.25 -11.65625 L 11.984375 -10.203125 C 11.441406 -10.765625 10.820312 -11.195312 10.125 -11.5 C 9.425781 -11.8125 8.710938 -11.96875 7.984375 -11.96875 C 7.304688 -11.96875 6.660156 -11.832031 6.046875 -11.5625 C 5.429688 -11.289062 4.90625 -10.921875 4.46875 -10.453125 C 4.03125 -9.984375 3.679688 -9.429688 3.421875 -8.796875 C 3.171875 -8.171875 3.046875 -7.5 3.046875 -6.78125 C 3.046875 -6.039062 3.175781 -5.347656 3.4375 -4.703125 C 3.695312 -4.066406 4.046875 -3.519531 4.484375 -3.0625 C 4.929688 -2.601562 5.460938 -2.238281 6.078125 -1.96875 C 6.691406 -1.695312 7.335938 -1.5625 8.015625 -1.5625 Z M 8.015625 -1.5625 "/></g></g></g><g fill="#ffffff" fill-opacity="1"><g transform="translate(469.787492, 27.323064)"><g><path d="M 2.703125 -16.125 C 2.335938 -16.125 2.019531 -16.253906 1.75 -16.515625 C 1.476562 -16.785156 1.34375 -17.101562 1.34375 -17.46875 C 1.34375 -17.84375 1.476562 -18.160156 1.75 -18.421875 C 2.019531 -18.679688 2.335938 -18.8125 2.703125 -18.8125 C 3.078125 -18.8125 3.394531 -18.679688 3.65625 -18.421875 C 3.914062 -18.160156 4.046875 -17.84375 4.046875 -17.46875 C 4.046875 -17.101562 3.914062 -16.785156 3.65625 -16.515625 C 3.394531 -16.253906 3.078125 -16.125 2.703125 -16.125 Z M 3.703125 -13.53125 L 3.703125 0 L 1.703125 0 L 1.703125 -13.53125 Z M 3.703125 -13.53125 "/></g></g></g><g fill="#ffffff" fill-opacity="1"><g transform="translate(479.719646, 27.323064)"><g><path d="M 0.328125 -1.859375 L 1.53125 -3.15625 C 2.144531 -2.582031 2.832031 -2.132812 3.59375 -1.8125 C 4.363281 -1.5 5.144531 -1.34375 5.9375 -1.34375 C 7.019531 -1.34375 7.898438 -1.566406 8.578125 -2.015625 C 9.265625 -2.472656 9.609375 -3.0625 9.609375 -3.78125 C 9.609375 -4.351562 9.40625 -4.804688 9 -5.140625 C 8.59375 -5.472656 7.957031 -5.703125 7.09375 -5.828125 L 4.75 -6.15625 C 3.40625 -6.351562 2.398438 -6.753906 1.734375 -7.359375 C 1.078125 -7.960938 0.75 -8.773438 0.75 -9.796875 C 0.75 -10.929688 1.226562 -11.875 2.1875 -12.625 C 3.144531 -13.375 4.359375 -13.75 5.828125 -13.75 C 6.804688 -13.75 7.726562 -13.601562 8.59375 -13.3125 C 9.46875 -13.019531 10.320312 -12.570312 11.15625 -11.96875 L 10.09375 -10.609375 C 9.34375 -11.109375 8.609375 -11.484375 7.890625 -11.734375 C 7.179688 -11.992188 6.457031 -12.125 5.71875 -12.125 C 4.800781 -12.125 4.050781 -11.914062 3.46875 -11.5 C 2.882812 -11.082031 2.59375 -10.539062 2.59375 -9.875 C 2.59375 -9.300781 2.789062 -8.859375 3.1875 -8.546875 C 3.582031 -8.234375 4.222656 -8.015625 5.109375 -7.890625 L 7.453125 -7.5625 C 8.804688 -7.382812 9.816406 -6.984375 10.484375 -6.359375 C 11.160156 -5.734375 11.5 -4.910156 11.5 -3.890625 C 11.5 -3.316406 11.359375 -2.769531 11.078125 -2.25 C 10.804688 -1.738281 10.421875 -1.296875 9.921875 -0.921875 C 9.429688 -0.554688 8.851562 -0.269531 8.1875 -0.0625 C 7.519531 0.144531 6.796875 0.25 6.015625 0.25 C 4.898438 0.25 3.851562 0.0664062 2.875 -0.296875 C 1.894531 -0.671875 1.046875 -1.191406 0.328125 -1.859375 Z M 0.328125 -1.859375 "/></g></g></g><g fill="#ffffff" fill-opacity="1"><g transform="translate(496.289385, 27.323064)"><g><path d="M 2.703125 -16.125 C 2.335938 -16.125 2.019531 -16.253906 1.75 -16.515625 C 1.476562 -16.785156 1.34375 -17.101562 1.34375 -17.46875 C 1.34375 -17.84375 1.476562 -18.160156 1.75 -18.421875 C 2.019531 -18.679688 2.335938 -18.8125 2.703125 -18.8125 C 3.078125 -18.8125 3.394531 -18.679688 3.65625 -18.421875 C 3.914062 -18.160156 4.046875 -17.84375 4.046875 -17.46875 C 4.046875 -17.101562 3.914062 -16.785156 3.65625 -16.515625 C 3.394531 -16.253906 3.078125 -16.125 2.703125 -16.125 Z M 3.703125 -13.53125 L 3.703125 0 L 1.703125 0 L 1.703125 -13.53125 Z M 3.703125 -13.53125 "/></g></g></g><g fill="#ffffff" fill-opacity="1"><g transform="translate(506.221495, 27.323064)"><g><path d="M 1.078125 -6.78125 C 1.078125 -7.75 1.253906 -8.664062 1.609375 -9.53125 C 1.972656 -10.394531 2.460938 -11.140625 3.078125 -11.765625 C 3.703125 -12.398438 4.4375 -12.894531 5.28125 -13.25 C 6.132812 -13.613281 7.035156 -13.796875 7.984375 -13.796875 C 8.941406 -13.796875 9.835938 -13.613281 10.671875 -13.25 C 11.515625 -12.894531 12.242188 -12.398438 12.859375 -11.765625 C 13.484375 -11.140625 13.972656 -10.394531 14.328125 -9.53125 C 14.691406 -8.664062 14.875 -7.75 14.875 -6.78125 C 14.875 -5.789062 14.691406 -4.863281 14.328125 -4 C 13.972656 -3.132812 13.484375 -2.382812 12.859375 -1.75 C 12.242188 -1.125 11.515625 -0.628906 10.671875 -0.265625 C 9.835938 0.0859375 8.941406 0.265625 7.984375 0.265625 C 7.035156 0.265625 6.132812 0.0859375 5.28125 -0.265625 C 4.4375 -0.628906 3.703125 -1.125 3.078125 -1.75 C 2.460938 -2.382812 1.972656 -3.132812 1.609375 -4 C 1.253906 -4.863281 1.078125 -5.789062 1.078125 -6.78125 Z M 7.984375 -1.515625 C 8.671875 -1.515625 9.316406 -1.648438 9.921875 -1.921875 C 10.523438 -2.191406 11.046875 -2.5625 11.484375 -3.03125 C 11.929688 -3.507812 12.28125 -4.066406 12.53125 -4.703125 C 12.78125 -5.347656 12.90625 -6.039062 12.90625 -6.78125 C 12.90625 -7.519531 12.78125 -8.207031 12.53125 -8.84375 C 12.28125 -9.476562 11.929688 -10.03125 11.484375 -10.5 C 11.046875 -10.96875 10.523438 -11.335938 9.921875 -11.609375 C 9.316406 -11.878906 8.671875 -12.015625 7.984375 -12.015625 C 7.304688 -12.015625 6.664062 -11.878906 6.0625 -11.609375 C 5.457031 -11.335938 4.929688 -10.96875 4.484375 -10.5 C 4.046875 -10.03125 3.695312 -9.476562 3.4375 -8.84375 C 3.175781 -8.207031 3.046875 -7.519531 3.046875 -6.78125 C 3.046875 -6.039062 3.171875 -5.347656 3.421875 -4.703125 C 3.679688 -4.066406 4.03125 -3.507812 4.46875 -3.03125 C 4.90625 -2.5625 5.429688 -2.191406 6.046875 -1.921875 C 6.660156 -1.648438 7.304688 -1.515625 7.984375 -1.515625 Z M 7.984375 -1.515625 "/></g></g></g><g fill="#ffffff" fill-opacity="1"><g transform="translate(526.703644, 27.323064)"><g><path d="M 1.703125 0 L 1.703125 -13.53125 L 3.703125 -13.53125 L 3.703125 -11.9375 C 4.222656 -12.550781 4.84375 -13.015625 5.5625 -13.328125 C 6.28125 -13.640625 7.082031 -13.796875 7.96875 -13.796875 C 9.5 -13.796875 10.75 -13.304688 11.71875 -12.328125 C 12.6875 -11.359375 13.171875 -10.101562 13.171875 -8.5625 L 13.171875 0 L 11.203125 0 L 11.203125 -8.15625 C 11.203125 -9.34375 10.859375 -10.285156 10.171875 -10.984375 C 9.492188 -11.691406 8.578125 -12.046875 7.421875 -12.046875 C 6.609375 -12.046875 5.882812 -11.863281 5.25 -11.5 C 4.613281 -11.144531 4.097656 -10.632812 3.703125 -9.96875 L 3.703125 0 Z M 1.703125 0 "/></g></g></g><g fill="#ffffff" fill-opacity="1"><g transform="translate(546.052572, 27.323064)"><g><path d="M 2.671875 -2.59375 C 3.046875 -2.59375 3.367188 -2.457031 3.640625 -2.1875 C 3.910156 -1.914062 4.046875 -1.59375 4.046875 -1.21875 C 4.046875 -0.832031 3.910156 -0.503906 3.640625 -0.234375 C 3.367188 0.0234375 3.046875 0.15625 2.671875 0.15625 C 2.296875 0.15625 1.972656 0.0234375 1.703125 -0.234375 C 1.429688 -0.503906 1.296875 -0.832031 1.296875 -1.21875 C 1.296875 -1.59375 1.429688 -1.914062 1.703125 -2.1875 C 1.972656 -2.457031 2.296875 -2.59375 2.671875 -2.59375 Z M 2.671875 -2.59375 "/></g></g></g></g></g></svg>